G04 #@! TF.FileFunction,Copper,L1,Top,Signal*
%FSLAX46Y46*%
G04 Gerber Fmt 4.6, Leading zero omitted, Abs format (unit mm)*
G04 Created by KiCad (PCBNEW 4.0.6) date 07/08/18 16:23:33*
%MOMM*%
%LPD*%
G01*
G04 APERTURE LIST*
%ADD10C,0.100000*%
%ADD11C,1.500000*%
%ADD12C,1.600000*%
%ADD13C,0.812800*%
%ADD14C,0.406400*%
%ADD15C,0.254000*%
G04 APERTURE END LIST*
D10*
G36*
X42295210Y-33715198D02*
X43355870Y-34775858D01*
X42295210Y-35836518D01*
X41234550Y-34775858D01*
X42295210Y-33715198D01*
X42295210Y-33715198D01*
G37*
D11*
X37458600Y-43148002D03*
X36638356Y-40432712D03*
X43115454Y-37491148D03*
X39339504Y-41267098D03*
X41227479Y-39379123D03*
X38533402Y-38537666D03*
X40407235Y-36663833D03*
D10*
G36*
X37437386Y-25350124D02*
X38993021Y-26905759D01*
X37932360Y-27966420D01*
X36376725Y-26410785D01*
X37437386Y-25350124D01*
X37437386Y-25350124D01*
G37*
G36*
X26830785Y-35956725D02*
X28386420Y-37512360D01*
X27325759Y-38573021D01*
X25770124Y-37017386D01*
X26830785Y-35956725D01*
X26830785Y-35956725D01*
G37*
G36*
X34502893Y-22769185D02*
X36624213Y-24890505D01*
X25310505Y-36204213D01*
X23189185Y-34082893D01*
X34502893Y-22769185D01*
X34502893Y-22769185D01*
G37*
G36*
X34195198Y-51634790D02*
X35255858Y-50574130D01*
X36316518Y-51634790D01*
X35255858Y-52695450D01*
X34195198Y-51634790D01*
X34195198Y-51634790D01*
G37*
D11*
X43628002Y-56471400D03*
X40912712Y-57291644D03*
X37971148Y-50814546D03*
X41747098Y-54590496D03*
X39859123Y-52702521D03*
X39017666Y-55396598D03*
X37143833Y-53522765D03*
D10*
G36*
X25830124Y-56492614D02*
X27385759Y-54936979D01*
X28446420Y-55997640D01*
X26890785Y-57553275D01*
X25830124Y-56492614D01*
X25830124Y-56492614D01*
G37*
G36*
X36436725Y-67099215D02*
X37992360Y-65543580D01*
X39053021Y-66604241D01*
X37497386Y-68159876D01*
X36436725Y-67099215D01*
X36436725Y-67099215D01*
G37*
G36*
X23249185Y-59427107D02*
X25370505Y-57305787D01*
X36684213Y-68619495D01*
X34562893Y-70740815D01*
X23249185Y-59427107D01*
X23249185Y-59427107D01*
G37*
G36*
X60364802Y-41815210D02*
X59304142Y-42875870D01*
X58243482Y-41815210D01*
X59304142Y-40754550D01*
X60364802Y-41815210D01*
X60364802Y-41815210D01*
G37*
D11*
X50931998Y-36978600D03*
X53647288Y-36158356D03*
X56588852Y-42635454D03*
X52812902Y-38859504D03*
X54700877Y-40747479D03*
X55542334Y-38053402D03*
X57416167Y-39927235D03*
D10*
G36*
X68729876Y-36957386D02*
X67174241Y-38513021D01*
X66113580Y-37452360D01*
X67669215Y-35896725D01*
X68729876Y-36957386D01*
X68729876Y-36957386D01*
G37*
G36*
X58123275Y-26350785D02*
X56567640Y-27906420D01*
X55506979Y-26845759D01*
X57062614Y-25290124D01*
X58123275Y-26350785D01*
X58123275Y-26350785D01*
G37*
G36*
X71310815Y-34022893D02*
X69189495Y-36144213D01*
X57875787Y-24830505D01*
X59997107Y-22709185D01*
X71310815Y-34022893D01*
X71310815Y-34022893D01*
G37*
D12*
X42690000Y-45040000D03*
X44457767Y-43272233D03*
X49500000Y-50750000D03*
X51267767Y-48982233D03*
D10*
G36*
X52264790Y-59864802D02*
X51204130Y-58804142D01*
X52264790Y-57743482D01*
X53325450Y-58804142D01*
X52264790Y-59864802D01*
X52264790Y-59864802D01*
G37*
D11*
X57101400Y-50431998D03*
X57921644Y-53147288D03*
X51444546Y-56088852D03*
X55220496Y-52312902D03*
X53332521Y-54200877D03*
X56026598Y-55042334D03*
X54152765Y-56916167D03*
D10*
G36*
X57122614Y-68229876D02*
X55566979Y-66674241D01*
X56627640Y-65613580D01*
X58183275Y-67169215D01*
X57122614Y-68229876D01*
X57122614Y-68229876D01*
G37*
G36*
X67729215Y-57623275D02*
X66173580Y-56067640D01*
X67234241Y-55006979D01*
X68789876Y-56562614D01*
X67729215Y-57623275D01*
X67729215Y-57623275D01*
G37*
G36*
X60057107Y-70810815D02*
X57935787Y-68689495D01*
X69249495Y-57375787D01*
X71370815Y-59497107D01*
X60057107Y-70810815D01*
X60057107Y-70810815D01*
G37*
D13*
X43870000Y-39790000D03*
X43870000Y-41240000D03*
X52410000Y-51780000D03*
X52410000Y-50450000D03*
D14*
X35325210Y-51634790D02*
X40790000Y-46170000D01*
X40790000Y-46170000D02*
X40790000Y-46150000D01*
X40790000Y-46150000D02*
X39380000Y-44740000D01*
X39380000Y-44740000D02*
X39380000Y-44280000D01*
X39380000Y-44280000D02*
X43870000Y-39790000D01*
X35255858Y-51634790D02*
X35325210Y-51634790D01*
X35255858Y-51634790D02*
X35255858Y-51114142D01*
X37971148Y-50814546D02*
X37971148Y-49878852D01*
X41550000Y-45920000D02*
X41450000Y-45820000D01*
X40370000Y-44740000D02*
X43870000Y-41240000D01*
X41450000Y-45820000D02*
X40370000Y-44740000D01*
X41550000Y-46300000D02*
X41550000Y-45920000D01*
X37971148Y-49878852D02*
X41550000Y-46300000D01*
X54302765Y-56886167D02*
X54378932Y-56810000D01*
X57416167Y-39927235D02*
X57395269Y-39927235D01*
X57395269Y-39927235D02*
X53520000Y-43802504D01*
X53520000Y-43802504D02*
X53520000Y-50670000D01*
X53520000Y-50670000D02*
X52410000Y-51780000D01*
X57416167Y-39927235D02*
X57416167Y-39993833D01*
X36638356Y-40432712D02*
X36682712Y-40432712D01*
X42390000Y-49240000D02*
X42390000Y-47420000D01*
X42390000Y-50850000D02*
X42390000Y-49240000D01*
X40537479Y-52702521D02*
X42390000Y-50850000D01*
X43590000Y-45940000D02*
X42690000Y-45040000D01*
X43590000Y-46220000D02*
X43590000Y-45940000D01*
X42390000Y-47420000D02*
X43590000Y-46220000D01*
X39859123Y-52702521D02*
X40537479Y-52702521D01*
X43210000Y-48899402D02*
X43210000Y-47690000D01*
X39023402Y-55396598D02*
X43210000Y-51210000D01*
X43210000Y-51210000D02*
X43210000Y-48899402D01*
X44457767Y-46442233D02*
X44457767Y-43272233D01*
X43210000Y-47690000D02*
X44457767Y-46442233D01*
X39017666Y-55396598D02*
X39023402Y-55396598D01*
X52812902Y-50047098D02*
X52410000Y-50450000D01*
X52812902Y-42612902D02*
X52812902Y-38859504D01*
X52812902Y-42612902D02*
X52812902Y-50047098D01*
X51750000Y-52750000D02*
X53750000Y-52750000D01*
X49750000Y-50750000D02*
X51750000Y-52750000D01*
X56922712Y-53117288D02*
X58071644Y-53117288D01*
X56330000Y-53710000D02*
X56922712Y-53117288D01*
X54710000Y-53710000D02*
X56330000Y-53710000D01*
X53750000Y-52750000D02*
X54710000Y-53710000D01*
X49500000Y-50750000D02*
X49750000Y-50750000D01*
X48255000Y-48505000D02*
X48255000Y-49505000D01*
X48255000Y-49505000D02*
X49500000Y-50750000D01*
X53647288Y-36158356D02*
X52218356Y-36158356D01*
X49370000Y-47390000D02*
X48255000Y-48505000D01*
X48255000Y-48505000D02*
X48250000Y-48510000D01*
X49370000Y-36520000D02*
X49370000Y-47390000D01*
X50460000Y-35430000D02*
X49370000Y-36520000D01*
X51490000Y-35430000D02*
X50460000Y-35430000D01*
X52218356Y-36158356D02*
X51490000Y-35430000D01*
X53647288Y-36158356D02*
X53641644Y-36158356D01*
X53647288Y-36158356D02*
X53647288Y-36252712D01*
X50090000Y-42140000D02*
X50090000Y-47804466D01*
X50090000Y-47804466D02*
X51267767Y-48982233D01*
X50090000Y-38640000D02*
X50090000Y-42140000D01*
X50931998Y-37798002D02*
X50090000Y-38640000D01*
X50931998Y-36978600D02*
X50931998Y-37798002D01*
X26901495Y-32491903D02*
X32911903Y-26481495D01*
X67598505Y-37381650D02*
X67598505Y-37701495D01*
X61588097Y-26421495D02*
X67598505Y-32431903D01*
X61798097Y-67068505D02*
X67808505Y-61058097D01*
X26961495Y-61018097D02*
X32971903Y-67028505D01*
D15*
G36*
X42099497Y-30595579D02*
X42168512Y-30680111D01*
X42229145Y-30770855D01*
X42258746Y-30790634D01*
X42281261Y-30818211D01*
X42377375Y-30869899D01*
X42468115Y-30930530D01*
X42503032Y-30937475D01*
X42534386Y-30954337D01*
X42642965Y-30965309D01*
X42750000Y-30986600D01*
X51750000Y-30986600D01*
X51857032Y-30965310D01*
X51965613Y-30954337D01*
X51996967Y-30937476D01*
X52031885Y-30930530D01*
X52122626Y-30869898D01*
X52218739Y-30818211D01*
X52241254Y-30790634D01*
X52270855Y-30770855D01*
X52331486Y-30680114D01*
X52400503Y-30595580D01*
X52451245Y-30500065D01*
X53475119Y-30500065D01*
X53837448Y-31376969D01*
X54507774Y-32048466D01*
X55384045Y-32412325D01*
X56332857Y-32413153D01*
X57209761Y-32050824D01*
X57881258Y-31380498D01*
X58074997Y-30913921D01*
X63285684Y-30913921D01*
X63285684Y-31138428D01*
X67448207Y-35300951D01*
X67309517Y-35358398D01*
X67130889Y-35537027D01*
X66644441Y-36023474D01*
X66644441Y-36247981D01*
X67421728Y-37025268D01*
X67435871Y-37011126D01*
X67615476Y-37190731D01*
X67601333Y-37204873D01*
X68378620Y-37982160D01*
X68603127Y-37982160D01*
X69089574Y-37495712D01*
X69268203Y-37317084D01*
X69364876Y-37083695D01*
X69364875Y-36831076D01*
X69339353Y-36769460D01*
X69549193Y-36682541D01*
X70497112Y-35734622D01*
X70497112Y-35510115D01*
X64593301Y-29606304D01*
X63285684Y-30913921D01*
X58074997Y-30913921D01*
X58245117Y-30504227D01*
X58245945Y-29555415D01*
X57883616Y-28678511D01*
X57289114Y-28082970D01*
X57592414Y-27779671D01*
X57592414Y-27555164D01*
X56815127Y-26777877D01*
X56800985Y-26792020D01*
X56621380Y-26612415D01*
X56635522Y-26598272D01*
X55858235Y-25820985D01*
X55633728Y-25820985D01*
X55147281Y-26307433D01*
X54968652Y-26486061D01*
X54871979Y-26719450D01*
X54871980Y-26972069D01*
X54968653Y-27205458D01*
X55386241Y-27623047D01*
X55610744Y-27623047D01*
X55591287Y-27642504D01*
X55388207Y-27642327D01*
X54511303Y-28004656D01*
X53839806Y-28674982D01*
X53475947Y-29551253D01*
X53475119Y-30500065D01*
X52451245Y-30500065D01*
X55151691Y-25416873D01*
X56037840Y-25416873D01*
X56037840Y-25641380D01*
X56815127Y-26418667D01*
X56829270Y-26404525D01*
X57008875Y-26584130D01*
X56994732Y-26598272D01*
X57772019Y-27375559D01*
X57996526Y-27375559D01*
X58482973Y-26889111D01*
X58661602Y-26710483D01*
X58719049Y-26571793D01*
X62881572Y-30734316D01*
X63106079Y-30734316D01*
X64413696Y-29426699D01*
X58509885Y-23522888D01*
X58285378Y-23522888D01*
X57337459Y-24470807D01*
X57250540Y-24680647D01*
X57188924Y-24655125D01*
X56936305Y-24655124D01*
X56702916Y-24751797D01*
X56524288Y-24930426D01*
X56037840Y-25416873D01*
X55151691Y-25416873D01*
X56442774Y-22986600D01*
X58821666Y-22986600D01*
X58689490Y-23118776D01*
X58689490Y-23343283D01*
X64593301Y-29247094D01*
X64607444Y-29232952D01*
X64787049Y-29412557D01*
X64772906Y-29426699D01*
X70676717Y-35330510D01*
X70901224Y-35330510D01*
X71263400Y-34968334D01*
X71263400Y-37788885D01*
X62928177Y-41837422D01*
X62830769Y-41911242D01*
X62729145Y-41979145D01*
X62716811Y-41997604D01*
X62699116Y-42011014D01*
X62637371Y-42116494D01*
X62569470Y-42218115D01*
X62565139Y-42239890D01*
X62553923Y-42259050D01*
X62537243Y-42380132D01*
X62513400Y-42500000D01*
X62513400Y-46303471D01*
X62373046Y-51496569D01*
X62381714Y-51546231D01*
X62409019Y-51588609D01*
X62444513Y-51614238D01*
X62698230Y-51737472D01*
X62699116Y-51738986D01*
X62716811Y-51752396D01*
X62729145Y-51770855D01*
X62830769Y-51838758D01*
X62928177Y-51912578D01*
X71263400Y-55961115D01*
X71263400Y-58491666D01*
X70961224Y-58189490D01*
X70736717Y-58189490D01*
X64832906Y-64093301D01*
X64847049Y-64107444D01*
X64667444Y-64287049D01*
X64653301Y-64272906D01*
X58749490Y-70176717D01*
X58749490Y-70401224D01*
X59111666Y-70763400D01*
X56443493Y-70763400D01*
X54916257Y-67878620D01*
X56097840Y-67878620D01*
X56097840Y-68103127D01*
X56584288Y-68589574D01*
X56762916Y-68768203D01*
X56996305Y-68864876D01*
X57248924Y-68864875D01*
X57310540Y-68839353D01*
X57397459Y-69049193D01*
X58345378Y-69997112D01*
X58569885Y-69997112D01*
X64473696Y-64093301D01*
X63166079Y-62785684D01*
X62941572Y-62785684D01*
X58779049Y-66948207D01*
X58721602Y-66809517D01*
X58542973Y-66630889D01*
X58056526Y-66144441D01*
X57832019Y-66144441D01*
X57054732Y-66921728D01*
X57068875Y-66935871D01*
X56889270Y-67115476D01*
X56875127Y-67101333D01*
X56097840Y-67878620D01*
X54916257Y-67878620D01*
X52844121Y-63964585D01*
X53535119Y-63964585D01*
X53897448Y-64841489D01*
X54567774Y-65512986D01*
X55444045Y-65876845D01*
X55650816Y-65877025D01*
X55670744Y-65896953D01*
X55446241Y-65896953D01*
X55028653Y-66314542D01*
X54931980Y-66547931D01*
X54931979Y-66800550D01*
X55028652Y-67033939D01*
X55207281Y-67212567D01*
X55693728Y-67699015D01*
X55918235Y-67699015D01*
X56695522Y-66921728D01*
X56681380Y-66907586D01*
X56860985Y-66727981D01*
X56875127Y-66742123D01*
X57652414Y-65964836D01*
X57652414Y-65740329D01*
X57348663Y-65436579D01*
X57941258Y-64845018D01*
X58305117Y-63968747D01*
X58305945Y-63019935D01*
X58042180Y-62381572D01*
X63345684Y-62381572D01*
X63345684Y-62606079D01*
X64653301Y-63913696D01*
X70557112Y-58009885D01*
X70557112Y-57785378D01*
X69609193Y-56837459D01*
X69399353Y-56750540D01*
X69424875Y-56688924D01*
X69424876Y-56436305D01*
X69328203Y-56202916D01*
X69149574Y-56024288D01*
X68663127Y-55537840D01*
X68438620Y-55537840D01*
X67661333Y-56315127D01*
X67675476Y-56329270D01*
X67495871Y-56508875D01*
X67481728Y-56494732D01*
X66704441Y-57272019D01*
X66704441Y-57496526D01*
X67190889Y-57982973D01*
X67369517Y-58161602D01*
X67508207Y-58219049D01*
X63345684Y-62381572D01*
X58042180Y-62381572D01*
X57943616Y-62143031D01*
X57273290Y-61471534D01*
X56397019Y-61107675D01*
X55448207Y-61106847D01*
X54571303Y-61469176D01*
X53899806Y-62139502D01*
X53535947Y-63015773D01*
X53535119Y-63964585D01*
X52844121Y-63964585D01*
X52150998Y-62655354D01*
X52081775Y-62570318D01*
X52020855Y-62479145D01*
X51991695Y-62459661D01*
X51969554Y-62432462D01*
X51873056Y-62380389D01*
X51781885Y-62319470D01*
X51747488Y-62312628D01*
X51716624Y-62295973D01*
X51607541Y-62284791D01*
X51500000Y-62263400D01*
X42750000Y-62263400D01*
X42625767Y-62288111D01*
X42500499Y-62306942D01*
X42485400Y-62316032D01*
X42468115Y-62319470D01*
X42362792Y-62389845D01*
X42254269Y-62455178D01*
X42243798Y-62469354D01*
X42229145Y-62479145D01*
X42158772Y-62584466D01*
X42083510Y-62686358D01*
X38282550Y-70763400D01*
X35438334Y-70763400D01*
X35870510Y-70331224D01*
X35870510Y-70106717D01*
X29966699Y-64202906D01*
X29952557Y-64217049D01*
X29772952Y-64037444D01*
X29787094Y-64023301D01*
X30146304Y-64023301D01*
X36050115Y-69927112D01*
X36274622Y-69927112D01*
X37222541Y-68979193D01*
X37309460Y-68769353D01*
X37371076Y-68794875D01*
X37623695Y-68794876D01*
X37857084Y-68698203D01*
X38035712Y-68519574D01*
X38522160Y-68033127D01*
X38522160Y-67808620D01*
X37744873Y-67031333D01*
X37730731Y-67045476D01*
X37551126Y-66865871D01*
X37565268Y-66851728D01*
X36787981Y-66074441D01*
X36563474Y-66074441D01*
X36077027Y-66560889D01*
X35898398Y-66739517D01*
X35840951Y-66878207D01*
X32857329Y-63894585D01*
X36314055Y-63894585D01*
X36676384Y-64771489D01*
X37270886Y-65367030D01*
X36967586Y-65670329D01*
X36967586Y-65894836D01*
X37744873Y-66672123D01*
X37759016Y-66657981D01*
X37938621Y-66837586D01*
X37924478Y-66851728D01*
X38701765Y-67629015D01*
X38926272Y-67629015D01*
X39412719Y-67142567D01*
X39591348Y-66963939D01*
X39688021Y-66730550D01*
X39688020Y-66477931D01*
X39591347Y-66244542D01*
X39173759Y-65826953D01*
X38949256Y-65826953D01*
X38968713Y-65807496D01*
X39171793Y-65807673D01*
X40048697Y-65445344D01*
X40720194Y-64775018D01*
X41084053Y-63898747D01*
X41084881Y-62949935D01*
X40722552Y-62073031D01*
X40052226Y-61401534D01*
X39175955Y-61037675D01*
X38227143Y-61036847D01*
X37350239Y-61399176D01*
X36678742Y-62069502D01*
X36314883Y-62945773D01*
X36314055Y-63894585D01*
X32857329Y-63894585D01*
X31678428Y-62715684D01*
X31453921Y-62715684D01*
X30146304Y-64023301D01*
X29787094Y-64023301D01*
X23883283Y-58119490D01*
X23658776Y-58119490D01*
X23486600Y-58291666D01*
X23486600Y-57715378D01*
X24062888Y-57715378D01*
X24062888Y-57939885D01*
X29966699Y-63843696D01*
X31274316Y-62536079D01*
X31274316Y-62311572D01*
X27111793Y-58149049D01*
X27250483Y-58091602D01*
X27429111Y-57912973D01*
X27915559Y-57426526D01*
X27915559Y-57202019D01*
X27138272Y-56424732D01*
X27124130Y-56438875D01*
X26944525Y-56259270D01*
X26958667Y-56245127D01*
X26181380Y-55467840D01*
X25956873Y-55467840D01*
X25470426Y-55954288D01*
X25291797Y-56132916D01*
X25195124Y-56366305D01*
X25195125Y-56618924D01*
X25220647Y-56680540D01*
X25010807Y-56767459D01*
X24062888Y-57715378D01*
X23486600Y-57715378D01*
X23486600Y-55932182D01*
X25040675Y-55063728D01*
X26360985Y-55063728D01*
X26360985Y-55288235D01*
X27138272Y-56065522D01*
X27152415Y-56051380D01*
X27332020Y-56230985D01*
X27317877Y-56245127D01*
X28095164Y-57022414D01*
X28319671Y-57022414D01*
X28623421Y-56718663D01*
X29214982Y-57311258D01*
X30091253Y-57675117D01*
X31040065Y-57675945D01*
X31916969Y-57313616D01*
X32588466Y-56643290D01*
X32952325Y-55767019D01*
X32953153Y-54818207D01*
X32590824Y-53941303D01*
X31920498Y-53269806D01*
X31044227Y-52905947D01*
X30095415Y-52905119D01*
X29218511Y-53267448D01*
X28547014Y-53937774D01*
X28183155Y-54814045D01*
X28182975Y-55020816D01*
X28163047Y-55040744D01*
X28163047Y-54816241D01*
X27745458Y-54398653D01*
X27512069Y-54301980D01*
X27259450Y-54301979D01*
X27026061Y-54398652D01*
X26847433Y-54577281D01*
X26360985Y-55063728D01*
X25040675Y-55063728D01*
X31192675Y-51625846D01*
X33547820Y-51625846D01*
X33595344Y-51878417D01*
X33737389Y-52092599D01*
X34798049Y-53153259D01*
X34995752Y-53288344D01*
X35246914Y-53342828D01*
X35499485Y-53295304D01*
X35713667Y-53153259D01*
X35857217Y-53009709D01*
X35759074Y-53246063D01*
X35758593Y-53797050D01*
X35969002Y-54306280D01*
X36358269Y-54696226D01*
X36867131Y-54907524D01*
X37418118Y-54908005D01*
X37783598Y-54756992D01*
X37632907Y-55119896D01*
X37632426Y-55670883D01*
X37842835Y-56180113D01*
X38232102Y-56570059D01*
X38740964Y-56781357D01*
X39291951Y-56781838D01*
X39693670Y-56615852D01*
X39527953Y-57014942D01*
X39527472Y-57565929D01*
X39737881Y-58075159D01*
X40127148Y-58465105D01*
X40636010Y-58676403D01*
X41186997Y-58676884D01*
X41696227Y-58466475D01*
X42086173Y-58077208D01*
X42297471Y-57568346D01*
X42297952Y-57017359D01*
X42087543Y-56508129D01*
X41698276Y-56118183D01*
X41189414Y-55906885D01*
X40638427Y-55906404D01*
X40236708Y-56072390D01*
X40402425Y-55673300D01*
X40402836Y-55202558D01*
X40472599Y-55132795D01*
X40572267Y-55374011D01*
X40961534Y-55763957D01*
X41470396Y-55975255D01*
X42021383Y-55975736D01*
X42398943Y-55819732D01*
X42243243Y-56194698D01*
X42242762Y-56745685D01*
X42453171Y-57254915D01*
X42842438Y-57644861D01*
X43351300Y-57856159D01*
X43902287Y-57856640D01*
X44411517Y-57646231D01*
X44801463Y-57256964D01*
X45012761Y-56748102D01*
X45013242Y-56197115D01*
X44802833Y-55687885D01*
X44413566Y-55297939D01*
X43904704Y-55086641D01*
X43353717Y-55086160D01*
X42976157Y-55242164D01*
X43131857Y-54867198D01*
X43132338Y-54316211D01*
X42921929Y-53806981D01*
X42532662Y-53417035D01*
X42289379Y-53316015D01*
X43802697Y-51802697D01*
X43984396Y-51530765D01*
X44048200Y-51210000D01*
X44048200Y-48510000D01*
X47411800Y-48510000D01*
X47416800Y-48535137D01*
X47416800Y-49505000D01*
X47480604Y-49825766D01*
X47662303Y-50097697D01*
X48065217Y-50500611D01*
X48064752Y-51034187D01*
X48282757Y-51561800D01*
X48686077Y-51965824D01*
X49213309Y-52184750D01*
X49784187Y-52185248D01*
X49936797Y-52122191D01*
X51157303Y-53342697D01*
X51429234Y-53524396D01*
X51750000Y-53588200D01*
X52087271Y-53588200D01*
X51947762Y-53924175D01*
X51947281Y-54475162D01*
X52108276Y-54864801D01*
X51721248Y-54704093D01*
X51170261Y-54703612D01*
X50661031Y-54914021D01*
X50271085Y-55303288D01*
X50059787Y-55812150D01*
X50059306Y-56363137D01*
X50269715Y-56872367D01*
X50658982Y-57262313D01*
X51167844Y-57473611D01*
X51618649Y-57474005D01*
X50746321Y-58346333D01*
X50611236Y-58544036D01*
X50556752Y-58795198D01*
X50604276Y-59047769D01*
X50746321Y-59261951D01*
X51806981Y-60322611D01*
X52004684Y-60457696D01*
X52255846Y-60512180D01*
X52508417Y-60464656D01*
X52722599Y-60322611D01*
X53783259Y-59261951D01*
X53918344Y-59064248D01*
X53972828Y-58813086D01*
X53925304Y-58560515D01*
X53783259Y-58346333D01*
X53639709Y-58202783D01*
X53876063Y-58300926D01*
X54427050Y-58301407D01*
X54936280Y-58090998D01*
X55326226Y-57701731D01*
X55537524Y-57192869D01*
X55538005Y-56641882D01*
X55386992Y-56276402D01*
X55749896Y-56427093D01*
X56300883Y-56427574D01*
X56810113Y-56217165D01*
X57195091Y-55832857D01*
X61666847Y-55832857D01*
X62029176Y-56709761D01*
X62699502Y-57381258D01*
X63575773Y-57745117D01*
X64524585Y-57745945D01*
X65401489Y-57383616D01*
X65997030Y-56789114D01*
X66300329Y-57092414D01*
X66524836Y-57092414D01*
X67302123Y-56315127D01*
X67287981Y-56300985D01*
X67467586Y-56121380D01*
X67481728Y-56135522D01*
X68259015Y-55358235D01*
X68259015Y-55133728D01*
X67772567Y-54647281D01*
X67593939Y-54468652D01*
X67360550Y-54371979D01*
X67107931Y-54371980D01*
X66874542Y-54468653D01*
X66456953Y-54886241D01*
X66456953Y-55110744D01*
X66437496Y-55091287D01*
X66437673Y-54888207D01*
X66075344Y-54011303D01*
X65405018Y-53339806D01*
X64528747Y-52975947D01*
X63579935Y-52975119D01*
X62703031Y-53337448D01*
X62031534Y-54007774D01*
X61667675Y-54884045D01*
X61666847Y-55832857D01*
X57195091Y-55832857D01*
X57200059Y-55827898D01*
X57411357Y-55319036D01*
X57411838Y-54768049D01*
X57245852Y-54366330D01*
X57644942Y-54532047D01*
X58195929Y-54532528D01*
X58705159Y-54322119D01*
X59095105Y-53932852D01*
X59306403Y-53423990D01*
X59306884Y-52873003D01*
X59096475Y-52363773D01*
X58707208Y-51973827D01*
X58198346Y-51762529D01*
X57647359Y-51762048D01*
X57138129Y-51972457D01*
X56808132Y-52301879D01*
X56605471Y-52342191D01*
X56605736Y-52038617D01*
X56449732Y-51661057D01*
X56824698Y-51816757D01*
X57375685Y-51817238D01*
X57884915Y-51606829D01*
X58274861Y-51217562D01*
X58486159Y-50708700D01*
X58486640Y-50157713D01*
X58276231Y-49648483D01*
X57886964Y-49258537D01*
X57378102Y-49047239D01*
X56827115Y-49046758D01*
X56317885Y-49257167D01*
X55927939Y-49646434D01*
X55716641Y-50155296D01*
X55716160Y-50706283D01*
X55872164Y-51083843D01*
X55497198Y-50928143D01*
X54946211Y-50927662D01*
X54436981Y-51138071D01*
X54047035Y-51527338D01*
X53876910Y-51937044D01*
X53750000Y-51911800D01*
X53463594Y-51911800D01*
X54112697Y-51262697D01*
X54294396Y-50990766D01*
X54358200Y-50670000D01*
X54358200Y-44149698D01*
X55318970Y-43188928D01*
X55414021Y-43418969D01*
X55803288Y-43808915D01*
X56312150Y-44020213D01*
X56863137Y-44020694D01*
X57372367Y-43810285D01*
X57762313Y-43421018D01*
X57973611Y-42912156D01*
X57974005Y-42461351D01*
X58846333Y-43333679D01*
X59044036Y-43468764D01*
X59295198Y-43523248D01*
X59547769Y-43475724D01*
X59761951Y-43333679D01*
X60822611Y-42273019D01*
X60957696Y-42075316D01*
X61012180Y-41824154D01*
X60964656Y-41571583D01*
X60822611Y-41357401D01*
X59761951Y-40296741D01*
X59564248Y-40161656D01*
X59313086Y-40107172D01*
X59060515Y-40154696D01*
X58846333Y-40296741D01*
X58702783Y-40440291D01*
X58800926Y-40203937D01*
X58801407Y-39652950D01*
X58590998Y-39143720D01*
X58201731Y-38753774D01*
X57907969Y-38631793D01*
X61606847Y-38631793D01*
X61969176Y-39508697D01*
X62639502Y-40180194D01*
X63515773Y-40544053D01*
X64464585Y-40544881D01*
X65341489Y-40182552D01*
X66012986Y-39512226D01*
X66376845Y-38635955D01*
X66377025Y-38429184D01*
X66396953Y-38409256D01*
X66396953Y-38633759D01*
X66814542Y-39051347D01*
X67047931Y-39148020D01*
X67300550Y-39148021D01*
X67533939Y-39051348D01*
X67712567Y-38872719D01*
X68199015Y-38386272D01*
X68199015Y-38161765D01*
X67421728Y-37384478D01*
X67407586Y-37398621D01*
X67227981Y-37219016D01*
X67242123Y-37204873D01*
X66464836Y-36427586D01*
X66240329Y-36427586D01*
X65936579Y-36731337D01*
X65345018Y-36138742D01*
X64468747Y-35774883D01*
X63519935Y-35774055D01*
X62643031Y-36136384D01*
X61971534Y-36806710D01*
X61607675Y-37682981D01*
X61606847Y-38631793D01*
X57907969Y-38631793D01*
X57692869Y-38542476D01*
X57141882Y-38541995D01*
X56776402Y-38693008D01*
X56927093Y-38330104D01*
X56927574Y-37779117D01*
X56717165Y-37269887D01*
X56327898Y-36879941D01*
X55819036Y-36668643D01*
X55268049Y-36668162D01*
X54866330Y-36834148D01*
X55032047Y-36435058D01*
X55032528Y-35884071D01*
X54822119Y-35374841D01*
X54432852Y-34984895D01*
X53923990Y-34773597D01*
X53373003Y-34773116D01*
X52863773Y-34983525D01*
X52546069Y-35300675D01*
X52082697Y-34837303D01*
X51810766Y-34655604D01*
X51490000Y-34591800D01*
X50460000Y-34591800D01*
X50139235Y-34655604D01*
X49867303Y-34837303D01*
X48777303Y-35927303D01*
X48595604Y-36199234D01*
X48538248Y-36487586D01*
X48531800Y-36520000D01*
X48531800Y-47042806D01*
X47657303Y-47917303D01*
X47475604Y-48189234D01*
X47411800Y-48510000D01*
X44048200Y-48510000D01*
X44048200Y-48037194D01*
X45050464Y-47034930D01*
X45232163Y-46762999D01*
X45295967Y-46442233D01*
X45295967Y-44463122D01*
X45673591Y-44086156D01*
X45892517Y-43558924D01*
X45893015Y-42988046D01*
X45675010Y-42460433D01*
X45271690Y-42056409D01*
X44745210Y-41837795D01*
X44752341Y-41830676D01*
X44911219Y-41448056D01*
X44911580Y-41033762D01*
X44753371Y-40650865D01*
X44617763Y-40515020D01*
X44752341Y-40380676D01*
X44911219Y-39998056D01*
X44911580Y-39583762D01*
X44753371Y-39200865D01*
X44460676Y-38907659D01*
X44078056Y-38748781D01*
X43699371Y-38748451D01*
X43898969Y-38665979D01*
X44288915Y-38276712D01*
X44500213Y-37767850D01*
X44500694Y-37216863D01*
X44290285Y-36707633D01*
X43901018Y-36317687D01*
X43392156Y-36106389D01*
X42941351Y-36105995D01*
X43813679Y-35233667D01*
X43948764Y-35035964D01*
X44003248Y-34784802D01*
X43955724Y-34532231D01*
X43813679Y-34318049D01*
X42753019Y-33257389D01*
X42555316Y-33122304D01*
X42304154Y-33067820D01*
X42051583Y-33115344D01*
X41837401Y-33257389D01*
X40776741Y-34318049D01*
X40641656Y-34515752D01*
X40587172Y-34766914D01*
X40634696Y-35019485D01*
X40776741Y-35233667D01*
X40920291Y-35377217D01*
X40683937Y-35279074D01*
X40132950Y-35278593D01*
X39623720Y-35489002D01*
X39233774Y-35878269D01*
X39022476Y-36387131D01*
X39021995Y-36938118D01*
X39173008Y-37303598D01*
X38810104Y-37152907D01*
X38259117Y-37152426D01*
X37749887Y-37362835D01*
X37359941Y-37752102D01*
X37148643Y-38260964D01*
X37148162Y-38811951D01*
X37314148Y-39213670D01*
X36915058Y-39047953D01*
X36364071Y-39047472D01*
X35854841Y-39257881D01*
X35464895Y-39647148D01*
X35253597Y-40156010D01*
X35253116Y-40706997D01*
X35463525Y-41216227D01*
X35852792Y-41606173D01*
X36361654Y-41817471D01*
X36912641Y-41817952D01*
X37421871Y-41607543D01*
X37811817Y-41218276D01*
X38023115Y-40709414D01*
X38023596Y-40158427D01*
X37857610Y-39756708D01*
X38256700Y-39922425D01*
X38807687Y-39922906D01*
X39316917Y-39712497D01*
X39706863Y-39323230D01*
X39918161Y-38814368D01*
X39918642Y-38263381D01*
X39767629Y-37897901D01*
X40130533Y-38048592D01*
X40681520Y-38049073D01*
X41190750Y-37838664D01*
X41580696Y-37449397D01*
X41791994Y-36940535D01*
X41792475Y-36389548D01*
X41693793Y-36150719D01*
X41837401Y-36294327D01*
X42035104Y-36429412D01*
X42185882Y-36462120D01*
X41941993Y-36705584D01*
X41730695Y-37214446D01*
X41730214Y-37765433D01*
X41891209Y-38155072D01*
X41504181Y-37994364D01*
X40953194Y-37993883D01*
X40443964Y-38204292D01*
X40054018Y-38593559D01*
X39842720Y-39102421D01*
X39842239Y-39653408D01*
X40003234Y-40043047D01*
X39616206Y-39882339D01*
X39065219Y-39881858D01*
X38555989Y-40092267D01*
X38166043Y-40481534D01*
X37954745Y-40990396D01*
X37954264Y-41541383D01*
X38110268Y-41918943D01*
X37735302Y-41763243D01*
X37184315Y-41762762D01*
X36675085Y-41973171D01*
X36285139Y-42362438D01*
X36073841Y-42871300D01*
X36073360Y-43422287D01*
X36283769Y-43931517D01*
X36673036Y-44321463D01*
X37181898Y-44532761D01*
X37732885Y-44533242D01*
X38242115Y-44322833D01*
X38605420Y-43960161D01*
X38541800Y-44280000D01*
X38541800Y-44740000D01*
X38605604Y-45060766D01*
X38787303Y-45332697D01*
X39614606Y-46160000D01*
X35680766Y-50093840D01*
X35515964Y-49981236D01*
X35264802Y-49926752D01*
X35012231Y-49974276D01*
X34798049Y-50116321D01*
X33737389Y-51176981D01*
X33602304Y-51374684D01*
X33547820Y-51625846D01*
X31192675Y-51625846D01*
X31609329Y-51393010D01*
X31686517Y-51327208D01*
X31770855Y-51270855D01*
X31772906Y-51267786D01*
X32060591Y-51111614D01*
X32099241Y-51079248D01*
X32122254Y-51034394D01*
X32126945Y-50996266D01*
X31986600Y-46224536D01*
X31986600Y-42750000D01*
X31966812Y-42650519D01*
X31958761Y-42549407D01*
X31939005Y-42510721D01*
X31930530Y-42468115D01*
X31874179Y-42383780D01*
X31828047Y-42293445D01*
X31794988Y-42265263D01*
X31770855Y-42229145D01*
X31686517Y-42172792D01*
X31609329Y-42106990D01*
X26070100Y-39011539D01*
X24727485Y-38221765D01*
X26300985Y-38221765D01*
X26300985Y-38446272D01*
X26787433Y-38932719D01*
X26966061Y-39111348D01*
X27199450Y-39208021D01*
X27452069Y-39208020D01*
X27685458Y-39111347D01*
X28103047Y-38693759D01*
X28103047Y-38469256D01*
X28122504Y-38488713D01*
X28122327Y-38691793D01*
X28484656Y-39568697D01*
X29154982Y-40240194D01*
X30031253Y-40604053D01*
X30980065Y-40604881D01*
X31856969Y-40242552D01*
X32528466Y-39572226D01*
X32892325Y-38695955D01*
X32893153Y-37747143D01*
X32530824Y-36870239D01*
X31860498Y-36198742D01*
X30984227Y-35834883D01*
X30035415Y-35834055D01*
X29158511Y-36196384D01*
X28562970Y-36790886D01*
X28259671Y-36487586D01*
X28035164Y-36487586D01*
X27257877Y-37264873D01*
X27272020Y-37279016D01*
X27092415Y-37458621D01*
X27078272Y-37444478D01*
X26300985Y-38221765D01*
X24727485Y-38221765D01*
X23486600Y-37491833D01*
X23486600Y-35570115D01*
X24002888Y-35570115D01*
X24002888Y-35794622D01*
X24950807Y-36742541D01*
X25160647Y-36829460D01*
X25135125Y-36891076D01*
X25135124Y-37143695D01*
X25231797Y-37377084D01*
X25410426Y-37555712D01*
X25896873Y-38042160D01*
X26121380Y-38042160D01*
X26898667Y-37264873D01*
X26884525Y-37250731D01*
X27064130Y-37071126D01*
X27078272Y-37085268D01*
X27855559Y-36307981D01*
X27855559Y-36083474D01*
X27369111Y-35597027D01*
X27190483Y-35418398D01*
X27051793Y-35360951D01*
X31214316Y-31198428D01*
X31214316Y-30973921D01*
X29906699Y-29666304D01*
X24002888Y-35570115D01*
X23486600Y-35570115D01*
X23486600Y-35278334D01*
X23598776Y-35390510D01*
X23823283Y-35390510D01*
X29727094Y-29486699D01*
X30086304Y-29486699D01*
X31393921Y-30794316D01*
X31618428Y-30794316D01*
X31852679Y-30560065D01*
X36254055Y-30560065D01*
X36616384Y-31436969D01*
X37286710Y-32108466D01*
X38162981Y-32472325D01*
X39111793Y-32473153D01*
X39988697Y-32110824D01*
X40660194Y-31440498D01*
X41024053Y-30564227D01*
X41024881Y-29615415D01*
X40662552Y-28738511D01*
X39992226Y-28067014D01*
X39115955Y-27703155D01*
X38909184Y-27702975D01*
X38889256Y-27683047D01*
X39113759Y-27683047D01*
X39531347Y-27265458D01*
X39628020Y-27032069D01*
X39628021Y-26779450D01*
X39531348Y-26546061D01*
X39352719Y-26367433D01*
X38866272Y-25880985D01*
X38641765Y-25880985D01*
X37864478Y-26658272D01*
X37878621Y-26672415D01*
X37699016Y-26852020D01*
X37684873Y-26837877D01*
X36907586Y-27615164D01*
X36907586Y-27839671D01*
X37211337Y-28143421D01*
X36618742Y-28734982D01*
X36254883Y-29611253D01*
X36254055Y-30560065D01*
X31852679Y-30560065D01*
X35780951Y-26631793D01*
X35838398Y-26770483D01*
X36017027Y-26949111D01*
X36503474Y-27435559D01*
X36727981Y-27435559D01*
X37505268Y-26658272D01*
X37491126Y-26644130D01*
X37670731Y-26464525D01*
X37684873Y-26478667D01*
X38462160Y-25701380D01*
X38462160Y-25476873D01*
X37975712Y-24990426D01*
X37797084Y-24811797D01*
X37563695Y-24715124D01*
X37311076Y-24715125D01*
X37249460Y-24740647D01*
X37162541Y-24530807D01*
X36214622Y-23582888D01*
X35990115Y-23582888D01*
X30086304Y-29486699D01*
X29727094Y-29486699D01*
X29712952Y-29472557D01*
X29892557Y-29292952D01*
X29906699Y-29307094D01*
X35810510Y-23403283D01*
X35810510Y-23178776D01*
X35618334Y-22986600D01*
X38057226Y-22986600D01*
X42099497Y-30595579D01*
X42099497Y-30595579D01*
G37*
X42099497Y-30595579D02*
X42168512Y-30680111D01*
X42229145Y-30770855D01*
X42258746Y-30790634D01*
X42281261Y-30818211D01*
X42377375Y-30869899D01*
X42468115Y-30930530D01*
X42503032Y-30937475D01*
X42534386Y-30954337D01*
X42642965Y-30965309D01*
X42750000Y-30986600D01*
X51750000Y-30986600D01*
X51857032Y-30965310D01*
X51965613Y-30954337D01*
X51996967Y-30937476D01*
X52031885Y-30930530D01*
X52122626Y-30869898D01*
X52218739Y-30818211D01*
X52241254Y-30790634D01*
X52270855Y-30770855D01*
X52331486Y-30680114D01*
X52400503Y-30595580D01*
X52451245Y-30500065D01*
X53475119Y-30500065D01*
X53837448Y-31376969D01*
X54507774Y-32048466D01*
X55384045Y-32412325D01*
X56332857Y-32413153D01*
X57209761Y-32050824D01*
X57881258Y-31380498D01*
X58074997Y-30913921D01*
X63285684Y-30913921D01*
X63285684Y-31138428D01*
X67448207Y-35300951D01*
X67309517Y-35358398D01*
X67130889Y-35537027D01*
X66644441Y-36023474D01*
X66644441Y-36247981D01*
X67421728Y-37025268D01*
X67435871Y-37011126D01*
X67615476Y-37190731D01*
X67601333Y-37204873D01*
X68378620Y-37982160D01*
X68603127Y-37982160D01*
X69089574Y-37495712D01*
X69268203Y-37317084D01*
X69364876Y-37083695D01*
X69364875Y-36831076D01*
X69339353Y-36769460D01*
X69549193Y-36682541D01*
X70497112Y-35734622D01*
X70497112Y-35510115D01*
X64593301Y-29606304D01*
X63285684Y-30913921D01*
X58074997Y-30913921D01*
X58245117Y-30504227D01*
X58245945Y-29555415D01*
X57883616Y-28678511D01*
X57289114Y-28082970D01*
X57592414Y-27779671D01*
X57592414Y-27555164D01*
X56815127Y-26777877D01*
X56800985Y-26792020D01*
X56621380Y-26612415D01*
X56635522Y-26598272D01*
X55858235Y-25820985D01*
X55633728Y-25820985D01*
X55147281Y-26307433D01*
X54968652Y-26486061D01*
X54871979Y-26719450D01*
X54871980Y-26972069D01*
X54968653Y-27205458D01*
X55386241Y-27623047D01*
X55610744Y-27623047D01*
X55591287Y-27642504D01*
X55388207Y-27642327D01*
X54511303Y-28004656D01*
X53839806Y-28674982D01*
X53475947Y-29551253D01*
X53475119Y-30500065D01*
X52451245Y-30500065D01*
X55151691Y-25416873D01*
X56037840Y-25416873D01*
X56037840Y-25641380D01*
X56815127Y-26418667D01*
X56829270Y-26404525D01*
X57008875Y-26584130D01*
X56994732Y-26598272D01*
X57772019Y-27375559D01*
X57996526Y-27375559D01*
X58482973Y-26889111D01*
X58661602Y-26710483D01*
X58719049Y-26571793D01*
X62881572Y-30734316D01*
X63106079Y-30734316D01*
X64413696Y-29426699D01*
X58509885Y-23522888D01*
X58285378Y-23522888D01*
X57337459Y-24470807D01*
X57250540Y-24680647D01*
X57188924Y-24655125D01*
X56936305Y-24655124D01*
X56702916Y-24751797D01*
X56524288Y-24930426D01*
X56037840Y-25416873D01*
X55151691Y-25416873D01*
X56442774Y-22986600D01*
X58821666Y-22986600D01*
X58689490Y-23118776D01*
X58689490Y-23343283D01*
X64593301Y-29247094D01*
X64607444Y-29232952D01*
X64787049Y-29412557D01*
X64772906Y-29426699D01*
X70676717Y-35330510D01*
X70901224Y-35330510D01*
X71263400Y-34968334D01*
X71263400Y-37788885D01*
X62928177Y-41837422D01*
X62830769Y-41911242D01*
X62729145Y-41979145D01*
X62716811Y-41997604D01*
X62699116Y-42011014D01*
X62637371Y-42116494D01*
X62569470Y-42218115D01*
X62565139Y-42239890D01*
X62553923Y-42259050D01*
X62537243Y-42380132D01*
X62513400Y-42500000D01*
X62513400Y-46303471D01*
X62373046Y-51496569D01*
X62381714Y-51546231D01*
X62409019Y-51588609D01*
X62444513Y-51614238D01*
X62698230Y-51737472D01*
X62699116Y-51738986D01*
X62716811Y-51752396D01*
X62729145Y-51770855D01*
X62830769Y-51838758D01*
X62928177Y-51912578D01*
X71263400Y-55961115D01*
X71263400Y-58491666D01*
X70961224Y-58189490D01*
X70736717Y-58189490D01*
X64832906Y-64093301D01*
X64847049Y-64107444D01*
X64667444Y-64287049D01*
X64653301Y-64272906D01*
X58749490Y-70176717D01*
X58749490Y-70401224D01*
X59111666Y-70763400D01*
X56443493Y-70763400D01*
X54916257Y-67878620D01*
X56097840Y-67878620D01*
X56097840Y-68103127D01*
X56584288Y-68589574D01*
X56762916Y-68768203D01*
X56996305Y-68864876D01*
X57248924Y-68864875D01*
X57310540Y-68839353D01*
X57397459Y-69049193D01*
X58345378Y-69997112D01*
X58569885Y-69997112D01*
X64473696Y-64093301D01*
X63166079Y-62785684D01*
X62941572Y-62785684D01*
X58779049Y-66948207D01*
X58721602Y-66809517D01*
X58542973Y-66630889D01*
X58056526Y-66144441D01*
X57832019Y-66144441D01*
X57054732Y-66921728D01*
X57068875Y-66935871D01*
X56889270Y-67115476D01*
X56875127Y-67101333D01*
X56097840Y-67878620D01*
X54916257Y-67878620D01*
X52844121Y-63964585D01*
X53535119Y-63964585D01*
X53897448Y-64841489D01*
X54567774Y-65512986D01*
X55444045Y-65876845D01*
X55650816Y-65877025D01*
X55670744Y-65896953D01*
X55446241Y-65896953D01*
X55028653Y-66314542D01*
X54931980Y-66547931D01*
X54931979Y-66800550D01*
X55028652Y-67033939D01*
X55207281Y-67212567D01*
X55693728Y-67699015D01*
X55918235Y-67699015D01*
X56695522Y-66921728D01*
X56681380Y-66907586D01*
X56860985Y-66727981D01*
X56875127Y-66742123D01*
X57652414Y-65964836D01*
X57652414Y-65740329D01*
X57348663Y-65436579D01*
X57941258Y-64845018D01*
X58305117Y-63968747D01*
X58305945Y-63019935D01*
X58042180Y-62381572D01*
X63345684Y-62381572D01*
X63345684Y-62606079D01*
X64653301Y-63913696D01*
X70557112Y-58009885D01*
X70557112Y-57785378D01*
X69609193Y-56837459D01*
X69399353Y-56750540D01*
X69424875Y-56688924D01*
X69424876Y-56436305D01*
X69328203Y-56202916D01*
X69149574Y-56024288D01*
X68663127Y-55537840D01*
X68438620Y-55537840D01*
X67661333Y-56315127D01*
X67675476Y-56329270D01*
X67495871Y-56508875D01*
X67481728Y-56494732D01*
X66704441Y-57272019D01*
X66704441Y-57496526D01*
X67190889Y-57982973D01*
X67369517Y-58161602D01*
X67508207Y-58219049D01*
X63345684Y-62381572D01*
X58042180Y-62381572D01*
X57943616Y-62143031D01*
X57273290Y-61471534D01*
X56397019Y-61107675D01*
X55448207Y-61106847D01*
X54571303Y-61469176D01*
X53899806Y-62139502D01*
X53535947Y-63015773D01*
X53535119Y-63964585D01*
X52844121Y-63964585D01*
X52150998Y-62655354D01*
X52081775Y-62570318D01*
X52020855Y-62479145D01*
X51991695Y-62459661D01*
X51969554Y-62432462D01*
X51873056Y-62380389D01*
X51781885Y-62319470D01*
X51747488Y-62312628D01*
X51716624Y-62295973D01*
X51607541Y-62284791D01*
X51500000Y-62263400D01*
X42750000Y-62263400D01*
X42625767Y-62288111D01*
X42500499Y-62306942D01*
X42485400Y-62316032D01*
X42468115Y-62319470D01*
X42362792Y-62389845D01*
X42254269Y-62455178D01*
X42243798Y-62469354D01*
X42229145Y-62479145D01*
X42158772Y-62584466D01*
X42083510Y-62686358D01*
X38282550Y-70763400D01*
X35438334Y-70763400D01*
X35870510Y-70331224D01*
X35870510Y-70106717D01*
X29966699Y-64202906D01*
X29952557Y-64217049D01*
X29772952Y-64037444D01*
X29787094Y-64023301D01*
X30146304Y-64023301D01*
X36050115Y-69927112D01*
X36274622Y-69927112D01*
X37222541Y-68979193D01*
X37309460Y-68769353D01*
X37371076Y-68794875D01*
X37623695Y-68794876D01*
X37857084Y-68698203D01*
X38035712Y-68519574D01*
X38522160Y-68033127D01*
X38522160Y-67808620D01*
X37744873Y-67031333D01*
X37730731Y-67045476D01*
X37551126Y-66865871D01*
X37565268Y-66851728D01*
X36787981Y-66074441D01*
X36563474Y-66074441D01*
X36077027Y-66560889D01*
X35898398Y-66739517D01*
X35840951Y-66878207D01*
X32857329Y-63894585D01*
X36314055Y-63894585D01*
X36676384Y-64771489D01*
X37270886Y-65367030D01*
X36967586Y-65670329D01*
X36967586Y-65894836D01*
X37744873Y-66672123D01*
X37759016Y-66657981D01*
X37938621Y-66837586D01*
X37924478Y-66851728D01*
X38701765Y-67629015D01*
X38926272Y-67629015D01*
X39412719Y-67142567D01*
X39591348Y-66963939D01*
X39688021Y-66730550D01*
X39688020Y-66477931D01*
X39591347Y-66244542D01*
X39173759Y-65826953D01*
X38949256Y-65826953D01*
X38968713Y-65807496D01*
X39171793Y-65807673D01*
X40048697Y-65445344D01*
X40720194Y-64775018D01*
X41084053Y-63898747D01*
X41084881Y-62949935D01*
X40722552Y-62073031D01*
X40052226Y-61401534D01*
X39175955Y-61037675D01*
X38227143Y-61036847D01*
X37350239Y-61399176D01*
X36678742Y-62069502D01*
X36314883Y-62945773D01*
X36314055Y-63894585D01*
X32857329Y-63894585D01*
X31678428Y-62715684D01*
X31453921Y-62715684D01*
X30146304Y-64023301D01*
X29787094Y-64023301D01*
X23883283Y-58119490D01*
X23658776Y-58119490D01*
X23486600Y-58291666D01*
X23486600Y-57715378D01*
X24062888Y-57715378D01*
X24062888Y-57939885D01*
X29966699Y-63843696D01*
X31274316Y-62536079D01*
X31274316Y-62311572D01*
X27111793Y-58149049D01*
X27250483Y-58091602D01*
X27429111Y-57912973D01*
X27915559Y-57426526D01*
X27915559Y-57202019D01*
X27138272Y-56424732D01*
X27124130Y-56438875D01*
X26944525Y-56259270D01*
X26958667Y-56245127D01*
X26181380Y-55467840D01*
X25956873Y-55467840D01*
X25470426Y-55954288D01*
X25291797Y-56132916D01*
X25195124Y-56366305D01*
X25195125Y-56618924D01*
X25220647Y-56680540D01*
X25010807Y-56767459D01*
X24062888Y-57715378D01*
X23486600Y-57715378D01*
X23486600Y-55932182D01*
X25040675Y-55063728D01*
X26360985Y-55063728D01*
X26360985Y-55288235D01*
X27138272Y-56065522D01*
X27152415Y-56051380D01*
X27332020Y-56230985D01*
X27317877Y-56245127D01*
X28095164Y-57022414D01*
X28319671Y-57022414D01*
X28623421Y-56718663D01*
X29214982Y-57311258D01*
X30091253Y-57675117D01*
X31040065Y-57675945D01*
X31916969Y-57313616D01*
X32588466Y-56643290D01*
X32952325Y-55767019D01*
X32953153Y-54818207D01*
X32590824Y-53941303D01*
X31920498Y-53269806D01*
X31044227Y-52905947D01*
X30095415Y-52905119D01*
X29218511Y-53267448D01*
X28547014Y-53937774D01*
X28183155Y-54814045D01*
X28182975Y-55020816D01*
X28163047Y-55040744D01*
X28163047Y-54816241D01*
X27745458Y-54398653D01*
X27512069Y-54301980D01*
X27259450Y-54301979D01*
X27026061Y-54398652D01*
X26847433Y-54577281D01*
X26360985Y-55063728D01*
X25040675Y-55063728D01*
X31192675Y-51625846D01*
X33547820Y-51625846D01*
X33595344Y-51878417D01*
X33737389Y-52092599D01*
X34798049Y-53153259D01*
X34995752Y-53288344D01*
X35246914Y-53342828D01*
X35499485Y-53295304D01*
X35713667Y-53153259D01*
X35857217Y-53009709D01*
X35759074Y-53246063D01*
X35758593Y-53797050D01*
X35969002Y-54306280D01*
X36358269Y-54696226D01*
X36867131Y-54907524D01*
X37418118Y-54908005D01*
X37783598Y-54756992D01*
X37632907Y-55119896D01*
X37632426Y-55670883D01*
X37842835Y-56180113D01*
X38232102Y-56570059D01*
X38740964Y-56781357D01*
X39291951Y-56781838D01*
X39693670Y-56615852D01*
X39527953Y-57014942D01*
X39527472Y-57565929D01*
X39737881Y-58075159D01*
X40127148Y-58465105D01*
X40636010Y-58676403D01*
X41186997Y-58676884D01*
X41696227Y-58466475D01*
X42086173Y-58077208D01*
X42297471Y-57568346D01*
X42297952Y-57017359D01*
X42087543Y-56508129D01*
X41698276Y-56118183D01*
X41189414Y-55906885D01*
X40638427Y-55906404D01*
X40236708Y-56072390D01*
X40402425Y-55673300D01*
X40402836Y-55202558D01*
X40472599Y-55132795D01*
X40572267Y-55374011D01*
X40961534Y-55763957D01*
X41470396Y-55975255D01*
X42021383Y-55975736D01*
X42398943Y-55819732D01*
X42243243Y-56194698D01*
X42242762Y-56745685D01*
X42453171Y-57254915D01*
X42842438Y-57644861D01*
X43351300Y-57856159D01*
X43902287Y-57856640D01*
X44411517Y-57646231D01*
X44801463Y-57256964D01*
X45012761Y-56748102D01*
X45013242Y-56197115D01*
X44802833Y-55687885D01*
X44413566Y-55297939D01*
X43904704Y-55086641D01*
X43353717Y-55086160D01*
X42976157Y-55242164D01*
X43131857Y-54867198D01*
X43132338Y-54316211D01*
X42921929Y-53806981D01*
X42532662Y-53417035D01*
X42289379Y-53316015D01*
X43802697Y-51802697D01*
X43984396Y-51530765D01*
X44048200Y-51210000D01*
X44048200Y-48510000D01*
X47411800Y-48510000D01*
X47416800Y-48535137D01*
X47416800Y-49505000D01*
X47480604Y-49825766D01*
X47662303Y-50097697D01*
X48065217Y-50500611D01*
X48064752Y-51034187D01*
X48282757Y-51561800D01*
X48686077Y-51965824D01*
X49213309Y-52184750D01*
X49784187Y-52185248D01*
X49936797Y-52122191D01*
X51157303Y-53342697D01*
X51429234Y-53524396D01*
X51750000Y-53588200D01*
X52087271Y-53588200D01*
X51947762Y-53924175D01*
X51947281Y-54475162D01*
X52108276Y-54864801D01*
X51721248Y-54704093D01*
X51170261Y-54703612D01*
X50661031Y-54914021D01*
X50271085Y-55303288D01*
X50059787Y-55812150D01*
X50059306Y-56363137D01*
X50269715Y-56872367D01*
X50658982Y-57262313D01*
X51167844Y-57473611D01*
X51618649Y-57474005D01*
X50746321Y-58346333D01*
X50611236Y-58544036D01*
X50556752Y-58795198D01*
X50604276Y-59047769D01*
X50746321Y-59261951D01*
X51806981Y-60322611D01*
X52004684Y-60457696D01*
X52255846Y-60512180D01*
X52508417Y-60464656D01*
X52722599Y-60322611D01*
X53783259Y-59261951D01*
X53918344Y-59064248D01*
X53972828Y-58813086D01*
X53925304Y-58560515D01*
X53783259Y-58346333D01*
X53639709Y-58202783D01*
X53876063Y-58300926D01*
X54427050Y-58301407D01*
X54936280Y-58090998D01*
X55326226Y-57701731D01*
X55537524Y-57192869D01*
X55538005Y-56641882D01*
X55386992Y-56276402D01*
X55749896Y-56427093D01*
X56300883Y-56427574D01*
X56810113Y-56217165D01*
X57195091Y-55832857D01*
X61666847Y-55832857D01*
X62029176Y-56709761D01*
X62699502Y-57381258D01*
X63575773Y-57745117D01*
X64524585Y-57745945D01*
X65401489Y-57383616D01*
X65997030Y-56789114D01*
X66300329Y-57092414D01*
X66524836Y-57092414D01*
X67302123Y-56315127D01*
X67287981Y-56300985D01*
X67467586Y-56121380D01*
X67481728Y-56135522D01*
X68259015Y-55358235D01*
X68259015Y-55133728D01*
X67772567Y-54647281D01*
X67593939Y-54468652D01*
X67360550Y-54371979D01*
X67107931Y-54371980D01*
X66874542Y-54468653D01*
X66456953Y-54886241D01*
X66456953Y-55110744D01*
X66437496Y-55091287D01*
X66437673Y-54888207D01*
X66075344Y-54011303D01*
X65405018Y-53339806D01*
X64528747Y-52975947D01*
X63579935Y-52975119D01*
X62703031Y-53337448D01*
X62031534Y-54007774D01*
X61667675Y-54884045D01*
X61666847Y-55832857D01*
X57195091Y-55832857D01*
X57200059Y-55827898D01*
X57411357Y-55319036D01*
X57411838Y-54768049D01*
X57245852Y-54366330D01*
X57644942Y-54532047D01*
X58195929Y-54532528D01*
X58705159Y-54322119D01*
X59095105Y-53932852D01*
X59306403Y-53423990D01*
X59306884Y-52873003D01*
X59096475Y-52363773D01*
X58707208Y-51973827D01*
X58198346Y-51762529D01*
X57647359Y-51762048D01*
X57138129Y-51972457D01*
X56808132Y-52301879D01*
X56605471Y-52342191D01*
X56605736Y-52038617D01*
X56449732Y-51661057D01*
X56824698Y-51816757D01*
X57375685Y-51817238D01*
X57884915Y-51606829D01*
X58274861Y-51217562D01*
X58486159Y-50708700D01*
X58486640Y-50157713D01*
X58276231Y-49648483D01*
X57886964Y-49258537D01*
X57378102Y-49047239D01*
X56827115Y-49046758D01*
X56317885Y-49257167D01*
X55927939Y-49646434D01*
X55716641Y-50155296D01*
X55716160Y-50706283D01*
X55872164Y-51083843D01*
X55497198Y-50928143D01*
X54946211Y-50927662D01*
X54436981Y-51138071D01*
X54047035Y-51527338D01*
X53876910Y-51937044D01*
X53750000Y-51911800D01*
X53463594Y-51911800D01*
X54112697Y-51262697D01*
X54294396Y-50990766D01*
X54358200Y-50670000D01*
X54358200Y-44149698D01*
X55318970Y-43188928D01*
X55414021Y-43418969D01*
X55803288Y-43808915D01*
X56312150Y-44020213D01*
X56863137Y-44020694D01*
X57372367Y-43810285D01*
X57762313Y-43421018D01*
X57973611Y-42912156D01*
X57974005Y-42461351D01*
X58846333Y-43333679D01*
X59044036Y-43468764D01*
X59295198Y-43523248D01*
X59547769Y-43475724D01*
X59761951Y-43333679D01*
X60822611Y-42273019D01*
X60957696Y-42075316D01*
X61012180Y-41824154D01*
X60964656Y-41571583D01*
X60822611Y-41357401D01*
X59761951Y-40296741D01*
X59564248Y-40161656D01*
X59313086Y-40107172D01*
X59060515Y-40154696D01*
X58846333Y-40296741D01*
X58702783Y-40440291D01*
X58800926Y-40203937D01*
X58801407Y-39652950D01*
X58590998Y-39143720D01*
X58201731Y-38753774D01*
X57907969Y-38631793D01*
X61606847Y-38631793D01*
X61969176Y-39508697D01*
X62639502Y-40180194D01*
X63515773Y-40544053D01*
X64464585Y-40544881D01*
X65341489Y-40182552D01*
X66012986Y-39512226D01*
X66376845Y-38635955D01*
X66377025Y-38429184D01*
X66396953Y-38409256D01*
X66396953Y-38633759D01*
X66814542Y-39051347D01*
X67047931Y-39148020D01*
X67300550Y-39148021D01*
X67533939Y-39051348D01*
X67712567Y-38872719D01*
X68199015Y-38386272D01*
X68199015Y-38161765D01*
X67421728Y-37384478D01*
X67407586Y-37398621D01*
X67227981Y-37219016D01*
X67242123Y-37204873D01*
X66464836Y-36427586D01*
X66240329Y-36427586D01*
X65936579Y-36731337D01*
X65345018Y-36138742D01*
X64468747Y-35774883D01*
X63519935Y-35774055D01*
X62643031Y-36136384D01*
X61971534Y-36806710D01*
X61607675Y-37682981D01*
X61606847Y-38631793D01*
X57907969Y-38631793D01*
X57692869Y-38542476D01*
X57141882Y-38541995D01*
X56776402Y-38693008D01*
X56927093Y-38330104D01*
X56927574Y-37779117D01*
X56717165Y-37269887D01*
X56327898Y-36879941D01*
X55819036Y-36668643D01*
X55268049Y-36668162D01*
X54866330Y-36834148D01*
X55032047Y-36435058D01*
X55032528Y-35884071D01*
X54822119Y-35374841D01*
X54432852Y-34984895D01*
X53923990Y-34773597D01*
X53373003Y-34773116D01*
X52863773Y-34983525D01*
X52546069Y-35300675D01*
X52082697Y-34837303D01*
X51810766Y-34655604D01*
X51490000Y-34591800D01*
X50460000Y-34591800D01*
X50139235Y-34655604D01*
X49867303Y-34837303D01*
X48777303Y-35927303D01*
X48595604Y-36199234D01*
X48538248Y-36487586D01*
X48531800Y-36520000D01*
X48531800Y-47042806D01*
X47657303Y-47917303D01*
X47475604Y-48189234D01*
X47411800Y-48510000D01*
X44048200Y-48510000D01*
X44048200Y-48037194D01*
X45050464Y-47034930D01*
X45232163Y-46762999D01*
X45295967Y-46442233D01*
X45295967Y-44463122D01*
X45673591Y-44086156D01*
X45892517Y-43558924D01*
X45893015Y-42988046D01*
X45675010Y-42460433D01*
X45271690Y-42056409D01*
X44745210Y-41837795D01*
X44752341Y-41830676D01*
X44911219Y-41448056D01*
X44911580Y-41033762D01*
X44753371Y-40650865D01*
X44617763Y-40515020D01*
X44752341Y-40380676D01*
X44911219Y-39998056D01*
X44911580Y-39583762D01*
X44753371Y-39200865D01*
X44460676Y-38907659D01*
X44078056Y-38748781D01*
X43699371Y-38748451D01*
X43898969Y-38665979D01*
X44288915Y-38276712D01*
X44500213Y-37767850D01*
X44500694Y-37216863D01*
X44290285Y-36707633D01*
X43901018Y-36317687D01*
X43392156Y-36106389D01*
X42941351Y-36105995D01*
X43813679Y-35233667D01*
X43948764Y-35035964D01*
X44003248Y-34784802D01*
X43955724Y-34532231D01*
X43813679Y-34318049D01*
X42753019Y-33257389D01*
X42555316Y-33122304D01*
X42304154Y-33067820D01*
X42051583Y-33115344D01*
X41837401Y-33257389D01*
X40776741Y-34318049D01*
X40641656Y-34515752D01*
X40587172Y-34766914D01*
X40634696Y-35019485D01*
X40776741Y-35233667D01*
X40920291Y-35377217D01*
X40683937Y-35279074D01*
X40132950Y-35278593D01*
X39623720Y-35489002D01*
X39233774Y-35878269D01*
X39022476Y-36387131D01*
X39021995Y-36938118D01*
X39173008Y-37303598D01*
X38810104Y-37152907D01*
X38259117Y-37152426D01*
X37749887Y-37362835D01*
X37359941Y-37752102D01*
X37148643Y-38260964D01*
X37148162Y-38811951D01*
X37314148Y-39213670D01*
X36915058Y-39047953D01*
X36364071Y-39047472D01*
X35854841Y-39257881D01*
X35464895Y-39647148D01*
X35253597Y-40156010D01*
X35253116Y-40706997D01*
X35463525Y-41216227D01*
X35852792Y-41606173D01*
X36361654Y-41817471D01*
X36912641Y-41817952D01*
X37421871Y-41607543D01*
X37811817Y-41218276D01*
X38023115Y-40709414D01*
X38023596Y-40158427D01*
X37857610Y-39756708D01*
X38256700Y-39922425D01*
X38807687Y-39922906D01*
X39316917Y-39712497D01*
X39706863Y-39323230D01*
X39918161Y-38814368D01*
X39918642Y-38263381D01*
X39767629Y-37897901D01*
X40130533Y-38048592D01*
X40681520Y-38049073D01*
X41190750Y-37838664D01*
X41580696Y-37449397D01*
X41791994Y-36940535D01*
X41792475Y-36389548D01*
X41693793Y-36150719D01*
X41837401Y-36294327D01*
X42035104Y-36429412D01*
X42185882Y-36462120D01*
X41941993Y-36705584D01*
X41730695Y-37214446D01*
X41730214Y-37765433D01*
X41891209Y-38155072D01*
X41504181Y-37994364D01*
X40953194Y-37993883D01*
X40443964Y-38204292D01*
X40054018Y-38593559D01*
X39842720Y-39102421D01*
X39842239Y-39653408D01*
X40003234Y-40043047D01*
X39616206Y-39882339D01*
X39065219Y-39881858D01*
X38555989Y-40092267D01*
X38166043Y-40481534D01*
X37954745Y-40990396D01*
X37954264Y-41541383D01*
X38110268Y-41918943D01*
X37735302Y-41763243D01*
X37184315Y-41762762D01*
X36675085Y-41973171D01*
X36285139Y-42362438D01*
X36073841Y-42871300D01*
X36073360Y-43422287D01*
X36283769Y-43931517D01*
X36673036Y-44321463D01*
X37181898Y-44532761D01*
X37732885Y-44533242D01*
X38242115Y-44322833D01*
X38605420Y-43960161D01*
X38541800Y-44280000D01*
X38541800Y-44740000D01*
X38605604Y-45060766D01*
X38787303Y-45332697D01*
X39614606Y-46160000D01*
X35680766Y-50093840D01*
X35515964Y-49981236D01*
X35264802Y-49926752D01*
X35012231Y-49974276D01*
X34798049Y-50116321D01*
X33737389Y-51176981D01*
X33602304Y-51374684D01*
X33547820Y-51625846D01*
X31192675Y-51625846D01*
X31609329Y-51393010D01*
X31686517Y-51327208D01*
X31770855Y-51270855D01*
X31772906Y-51267786D01*
X32060591Y-51111614D01*
X32099241Y-51079248D01*
X32122254Y-51034394D01*
X32126945Y-50996266D01*
X31986600Y-46224536D01*
X31986600Y-42750000D01*
X31966812Y-42650519D01*
X31958761Y-42549407D01*
X31939005Y-42510721D01*
X31930530Y-42468115D01*
X31874179Y-42383780D01*
X31828047Y-42293445D01*
X31794988Y-42265263D01*
X31770855Y-42229145D01*
X31686517Y-42172792D01*
X31609329Y-42106990D01*
X26070100Y-39011539D01*
X24727485Y-38221765D01*
X26300985Y-38221765D01*
X26300985Y-38446272D01*
X26787433Y-38932719D01*
X26966061Y-39111348D01*
X27199450Y-39208021D01*
X27452069Y-39208020D01*
X27685458Y-39111347D01*
X28103047Y-38693759D01*
X28103047Y-38469256D01*
X28122504Y-38488713D01*
X28122327Y-38691793D01*
X28484656Y-39568697D01*
X29154982Y-40240194D01*
X30031253Y-40604053D01*
X30980065Y-40604881D01*
X31856969Y-40242552D01*
X32528466Y-39572226D01*
X32892325Y-38695955D01*
X32893153Y-37747143D01*
X32530824Y-36870239D01*
X31860498Y-36198742D01*
X30984227Y-35834883D01*
X30035415Y-35834055D01*
X29158511Y-36196384D01*
X28562970Y-36790886D01*
X28259671Y-36487586D01*
X28035164Y-36487586D01*
X27257877Y-37264873D01*
X27272020Y-37279016D01*
X27092415Y-37458621D01*
X27078272Y-37444478D01*
X26300985Y-38221765D01*
X24727485Y-38221765D01*
X23486600Y-37491833D01*
X23486600Y-35570115D01*
X24002888Y-35570115D01*
X24002888Y-35794622D01*
X24950807Y-36742541D01*
X25160647Y-36829460D01*
X25135125Y-36891076D01*
X25135124Y-37143695D01*
X25231797Y-37377084D01*
X25410426Y-37555712D01*
X25896873Y-38042160D01*
X26121380Y-38042160D01*
X26898667Y-37264873D01*
X26884525Y-37250731D01*
X27064130Y-37071126D01*
X27078272Y-37085268D01*
X27855559Y-36307981D01*
X27855559Y-36083474D01*
X27369111Y-35597027D01*
X27190483Y-35418398D01*
X27051793Y-35360951D01*
X31214316Y-31198428D01*
X31214316Y-30973921D01*
X29906699Y-29666304D01*
X24002888Y-35570115D01*
X23486600Y-35570115D01*
X23486600Y-35278334D01*
X23598776Y-35390510D01*
X23823283Y-35390510D01*
X29727094Y-29486699D01*
X30086304Y-29486699D01*
X31393921Y-30794316D01*
X31618428Y-30794316D01*
X31852679Y-30560065D01*
X36254055Y-30560065D01*
X36616384Y-31436969D01*
X37286710Y-32108466D01*
X38162981Y-32472325D01*
X39111793Y-32473153D01*
X39988697Y-32110824D01*
X40660194Y-31440498D01*
X41024053Y-30564227D01*
X41024881Y-29615415D01*
X40662552Y-28738511D01*
X39992226Y-28067014D01*
X39115955Y-27703155D01*
X38909184Y-27702975D01*
X38889256Y-27683047D01*
X39113759Y-27683047D01*
X39531347Y-27265458D01*
X39628020Y-27032069D01*
X39628021Y-26779450D01*
X39531348Y-26546061D01*
X39352719Y-26367433D01*
X38866272Y-25880985D01*
X38641765Y-25880985D01*
X37864478Y-26658272D01*
X37878621Y-26672415D01*
X37699016Y-26852020D01*
X37684873Y-26837877D01*
X36907586Y-27615164D01*
X36907586Y-27839671D01*
X37211337Y-28143421D01*
X36618742Y-28734982D01*
X36254883Y-29611253D01*
X36254055Y-30560065D01*
X31852679Y-30560065D01*
X35780951Y-26631793D01*
X35838398Y-26770483D01*
X36017027Y-26949111D01*
X36503474Y-27435559D01*
X36727981Y-27435559D01*
X37505268Y-26658272D01*
X37491126Y-26644130D01*
X37670731Y-26464525D01*
X37684873Y-26478667D01*
X38462160Y-25701380D01*
X38462160Y-25476873D01*
X37975712Y-24990426D01*
X37797084Y-24811797D01*
X37563695Y-24715124D01*
X37311076Y-24715125D01*
X37249460Y-24740647D01*
X37162541Y-24530807D01*
X36214622Y-23582888D01*
X35990115Y-23582888D01*
X30086304Y-29486699D01*
X29727094Y-29486699D01*
X29712952Y-29472557D01*
X29892557Y-29292952D01*
X29906699Y-29307094D01*
X35810510Y-23403283D01*
X35810510Y-23178776D01*
X35618334Y-22986600D01*
X38057226Y-22986600D01*
X42099497Y-30595579D01*
M02*
