G04 #@! TF.FileFunction,Soldermask,Bot*
%FSLAX46Y46*%
G04 Gerber Fmt 4.6, Leading zero omitted, Abs format (unit mm)*
G04 Created by KiCad (PCBNEW 4.0.6) date 07/08/18 16:23:34*
%MOMM*%
%LPD*%
G01*
G04 APERTURE LIST*
%ADD10C,0.100000*%
%ADD11C,4.008000*%
%ADD12C,2.008000*%
%ADD13C,2.108000*%
G04 APERTURE END LIST*
D10*
D11*
X38639468Y-30087740D03*
X30507740Y-38219468D03*
D10*
G36*
X42295210Y-33355988D02*
X43715080Y-34775858D01*
X42295210Y-36195728D01*
X40875340Y-34775858D01*
X42295210Y-33355988D01*
X42295210Y-33355988D01*
G37*
D12*
X37458600Y-43148002D03*
X36638356Y-40432712D03*
X43115454Y-37491148D03*
X39339504Y-41267098D03*
X41227479Y-39379123D03*
X38533402Y-38537666D03*
X40407235Y-36663833D03*
D10*
G36*
X37437386Y-24990914D02*
X39352231Y-26905759D01*
X37932360Y-28325630D01*
X36017515Y-26410785D01*
X37437386Y-24990914D01*
X37437386Y-24990914D01*
G37*
G36*
X26830785Y-35597515D02*
X28745630Y-37512360D01*
X27325759Y-38932231D01*
X25410914Y-37017386D01*
X26830785Y-35597515D01*
X26830785Y-35597515D01*
G37*
D11*
X30567740Y-55290532D03*
X38699468Y-63422260D03*
D10*
G36*
X33835988Y-51634790D02*
X35255858Y-50214920D01*
X36675728Y-51634790D01*
X35255858Y-53054660D01*
X33835988Y-51634790D01*
X33835988Y-51634790D01*
G37*
D12*
X43628002Y-56471400D03*
X40912712Y-57291644D03*
X37971148Y-50814546D03*
X41747098Y-54590496D03*
X39859123Y-52702521D03*
X39017666Y-55396598D03*
X37143833Y-53522765D03*
D10*
G36*
X25470914Y-56492614D02*
X27385759Y-54577769D01*
X28805630Y-55997640D01*
X26890785Y-57912485D01*
X25470914Y-56492614D01*
X25470914Y-56492614D01*
G37*
G36*
X36077515Y-67099215D02*
X37992360Y-65184370D01*
X39412231Y-66604241D01*
X37497386Y-68519086D01*
X36077515Y-67099215D01*
X36077515Y-67099215D01*
G37*
D11*
X63992260Y-38159468D03*
X55860532Y-30027740D03*
D10*
G36*
X60724012Y-41815210D02*
X59304142Y-43235080D01*
X57884272Y-41815210D01*
X59304142Y-40395340D01*
X60724012Y-41815210D01*
X60724012Y-41815210D01*
G37*
D12*
X50931998Y-36978600D03*
X53647288Y-36158356D03*
X56588852Y-42635454D03*
X52812902Y-38859504D03*
X54700877Y-40747479D03*
X55542334Y-38053402D03*
X57416167Y-39927235D03*
D10*
G36*
X69089086Y-36957386D02*
X67174241Y-38872231D01*
X65754370Y-37452360D01*
X67669215Y-35537515D01*
X69089086Y-36957386D01*
X69089086Y-36957386D01*
G37*
G36*
X58482485Y-26350785D02*
X56567640Y-28265630D01*
X55147769Y-26845759D01*
X57062614Y-24930914D01*
X58482485Y-26350785D01*
X58482485Y-26350785D01*
G37*
D13*
X42690000Y-45040000D03*
X44457767Y-43272233D03*
X49500000Y-50750000D03*
X51267767Y-48982233D03*
D11*
X55920532Y-63492260D03*
X64052260Y-55360532D03*
D10*
G36*
X52264790Y-60224012D02*
X50844920Y-58804142D01*
X52264790Y-57384272D01*
X53684660Y-58804142D01*
X52264790Y-60224012D01*
X52264790Y-60224012D01*
G37*
D12*
X57101400Y-50431998D03*
X57921644Y-53147288D03*
X51444546Y-56088852D03*
X55220496Y-52312902D03*
X53332521Y-54200877D03*
X56026598Y-55042334D03*
X54152765Y-56916167D03*
D10*
G36*
X57122614Y-68589086D02*
X55207769Y-66674241D01*
X56627640Y-65254370D01*
X58542485Y-67169215D01*
X57122614Y-68589086D01*
X57122614Y-68589086D01*
G37*
G36*
X67729215Y-57982485D02*
X65814370Y-56067640D01*
X67234241Y-54647769D01*
X69149086Y-56562614D01*
X67729215Y-57982485D01*
X67729215Y-57982485D01*
G37*
M02*
