M48
;DRILL file {KiCad 4.0.6} date 07/08/18 16:28:58
;FORMAT={2:4/ absolute / inch / keep zeros}
FMAT,2
INCH,TZ
T1C0.020
T2C0.031
T3C0.035
T4C0.039
T5C0.138
%
G90
G05
M72
T1
X017272Y-015665
X017272Y-016236
X020634Y-019862
X020634Y-020386
T2
X016807Y-017732
X017503Y-017036
X019488Y-019980
X020184Y-019284
T3
X013880Y-020329
X014425Y-015918
X014624Y-021072
X014747Y-016987
X014949Y-020006
X015171Y-015172
X015361Y-021810
X015488Y-016247
X015693Y-020749
X015908Y-014435
X016107Y-022556
X016231Y-015504
X016436Y-021492
X016652Y-013691
X016975Y-014760
X017176Y-022233
X020052Y-014559
X020254Y-022082
X020577Y-023151
X020792Y-015299
X020997Y-021339
X021121Y-014236
X021320Y-022408
X021536Y-016042
X021740Y-020596
X021867Y-014982
X022058Y-021670
X022279Y-016786
X022481Y-019855
X022605Y-015719
X022804Y-020924
X023348Y-016463
T5
X012011Y-015047
X012035Y-021768
X015212Y-011846
X015236Y-024969
X021992Y-011822
X022016Y-024997
X025194Y-015023
X025217Y-021795
T4
X010689Y-014838G85X010494Y-014643
G05
X010712Y-021977G85X010517Y-022172
G05
X015004Y-010523G85X014809Y-010328
G05
X015027Y-026292G85X014832Y-026487
G05
X022201Y-010500G85X022396Y-010305
G05
X022225Y-026319G85X022420Y-026514
G05
X026516Y-014815G85X026711Y-014620
G05
X026540Y-022004G85X026735Y-022199
G05
T0
M30
