G04 #@! TF.FileFunction,Legend,Bot*
%FSLAX46Y46*%
G04 Gerber Fmt 4.6, Leading zero omitted, Abs format (unit mm)*
G04 Created by KiCad (PCBNEW 4.0.6) date 07/08/18 16:23:34*
%MOMM*%
%LPD*%
G01*
G04 APERTURE LIST*
%ADD10C,0.100000*%
%ADD11C,0.010000*%
G04 APERTURE END LIST*
D10*
D11*
G36*
X37850246Y-43479055D02*
X37902811Y-43478520D01*
X38056835Y-43474804D01*
X38185829Y-43463765D01*
X38294191Y-43444218D01*
X38386316Y-43414981D01*
X38466601Y-43374867D01*
X38539442Y-43322695D01*
X38565459Y-43300031D01*
X38608617Y-43247002D01*
X38647533Y-43175043D01*
X38677527Y-43095280D01*
X38693919Y-43018839D01*
X38695622Y-42990592D01*
X38684949Y-42912290D01*
X38656347Y-42826759D01*
X38614943Y-42745801D01*
X38565859Y-42681218D01*
X38557887Y-42673426D01*
X38490354Y-42618656D01*
X38416402Y-42575901D01*
X38331766Y-42544041D01*
X38232183Y-42521956D01*
X38113388Y-42508526D01*
X37971120Y-42502630D01*
X37905954Y-42502130D01*
X37823099Y-42502529D01*
X37764831Y-42504198D01*
X37725684Y-42507842D01*
X37700191Y-42514171D01*
X37682886Y-42523890D01*
X37673610Y-42532190D01*
X37664848Y-42542272D01*
X37657975Y-42555279D01*
X37652762Y-42574695D01*
X37648981Y-42604004D01*
X37646403Y-42646691D01*
X37644800Y-42706239D01*
X37643943Y-42786134D01*
X37643603Y-42889859D01*
X37643551Y-42990592D01*
X37643220Y-43124945D01*
X37643292Y-43232272D01*
X37644570Y-43283669D01*
X37838935Y-43283669D01*
X37838935Y-42697515D01*
X37962929Y-42697629D01*
X38037539Y-42699768D01*
X38115682Y-42705281D01*
X38180880Y-42712992D01*
X38182864Y-42713309D01*
X38288237Y-42738786D01*
X38369968Y-42778464D01*
X38432138Y-42834926D01*
X38471640Y-42896058D01*
X38495980Y-42963871D01*
X38494093Y-43027545D01*
X38465845Y-43095799D01*
X38410592Y-43166408D01*
X38334027Y-43218729D01*
X38234505Y-43253701D01*
X38167993Y-43266078D01*
X38092493Y-43274770D01*
X38012475Y-43281060D01*
X37944416Y-43283676D01*
X37940385Y-43283688D01*
X37838935Y-43283669D01*
X37644570Y-43283669D01*
X37645364Y-43315583D01*
X37651039Y-43377885D01*
X37661913Y-43422189D01*
X37679586Y-43451504D01*
X37705657Y-43468839D01*
X37741725Y-43477203D01*
X37789388Y-43479605D01*
X37850246Y-43479055D01*
X37850246Y-43479055D01*
G37*
X37850246Y-43479055D02*
X37902811Y-43478520D01*
X38056835Y-43474804D01*
X38185829Y-43463765D01*
X38294191Y-43444218D01*
X38386316Y-43414981D01*
X38466601Y-43374867D01*
X38539442Y-43322695D01*
X38565459Y-43300031D01*
X38608617Y-43247002D01*
X38647533Y-43175043D01*
X38677527Y-43095280D01*
X38693919Y-43018839D01*
X38695622Y-42990592D01*
X38684949Y-42912290D01*
X38656347Y-42826759D01*
X38614943Y-42745801D01*
X38565859Y-42681218D01*
X38557887Y-42673426D01*
X38490354Y-42618656D01*
X38416402Y-42575901D01*
X38331766Y-42544041D01*
X38232183Y-42521956D01*
X38113388Y-42508526D01*
X37971120Y-42502630D01*
X37905954Y-42502130D01*
X37823099Y-42502529D01*
X37764831Y-42504198D01*
X37725684Y-42507842D01*
X37700191Y-42514171D01*
X37682886Y-42523890D01*
X37673610Y-42532190D01*
X37664848Y-42542272D01*
X37657975Y-42555279D01*
X37652762Y-42574695D01*
X37648981Y-42604004D01*
X37646403Y-42646691D01*
X37644800Y-42706239D01*
X37643943Y-42786134D01*
X37643603Y-42889859D01*
X37643551Y-42990592D01*
X37643220Y-43124945D01*
X37643292Y-43232272D01*
X37644570Y-43283669D01*
X37838935Y-43283669D01*
X37838935Y-42697515D01*
X37962929Y-42697629D01*
X38037539Y-42699768D01*
X38115682Y-42705281D01*
X38180880Y-42712992D01*
X38182864Y-42713309D01*
X38288237Y-42738786D01*
X38369968Y-42778464D01*
X38432138Y-42834926D01*
X38471640Y-42896058D01*
X38495980Y-42963871D01*
X38494093Y-43027545D01*
X38465845Y-43095799D01*
X38410592Y-43166408D01*
X38334027Y-43218729D01*
X38234505Y-43253701D01*
X38167993Y-43266078D01*
X38092493Y-43274770D01*
X38012475Y-43281060D01*
X37944416Y-43283676D01*
X37940385Y-43283688D01*
X37838935Y-43283669D01*
X37644570Y-43283669D01*
X37645364Y-43315583D01*
X37651039Y-43377885D01*
X37661913Y-43422189D01*
X37679586Y-43451504D01*
X37705657Y-43468839D01*
X37741725Y-43477203D01*
X37789388Y-43479605D01*
X37850246Y-43479055D01*
G36*
X39725570Y-43478948D02*
X39817978Y-43478452D01*
X39887727Y-43477299D01*
X39938517Y-43475220D01*
X39974049Y-43471949D01*
X39998022Y-43467217D01*
X40014136Y-43460757D01*
X40026091Y-43452301D01*
X40030421Y-43448409D01*
X40056749Y-43407060D01*
X40061489Y-43359548D01*
X40044170Y-43317369D01*
X40036161Y-43308844D01*
X40023208Y-43300579D01*
X40002352Y-43294203D01*
X39969724Y-43289405D01*
X39921458Y-43285876D01*
X39853686Y-43283306D01*
X39762540Y-43281383D01*
X39679209Y-43280213D01*
X39349408Y-43276154D01*
X39340394Y-43103314D01*
X39564258Y-43103314D01*
X39661446Y-43102475D01*
X39732597Y-43098968D01*
X39781709Y-43091305D01*
X39812783Y-43077997D01*
X39829816Y-43057559D01*
X39836808Y-43028501D01*
X39837870Y-43001533D01*
X39834570Y-42968443D01*
X39822117Y-42944060D01*
X39796680Y-42927111D01*
X39754429Y-42916321D01*
X39691534Y-42910416D01*
X39604165Y-42908123D01*
X39556479Y-42907929D01*
X39341894Y-42907929D01*
X39341894Y-42697515D01*
X39672545Y-42697515D01*
X39780930Y-42697364D01*
X39863303Y-42696686D01*
X39923711Y-42695144D01*
X39966201Y-42692401D01*
X39994819Y-42688119D01*
X40013612Y-42681961D01*
X40026626Y-42673591D01*
X40033255Y-42667456D01*
X40055993Y-42631651D01*
X40063314Y-42599823D01*
X40052861Y-42560946D01*
X40033255Y-42532190D01*
X40022795Y-42523137D01*
X40009292Y-42516107D01*
X39989114Y-42510846D01*
X39958629Y-42507099D01*
X39914205Y-42504610D01*
X39852209Y-42503125D01*
X39769009Y-42502389D01*
X39660973Y-42502146D01*
X39604911Y-42502130D01*
X39484856Y-42502237D01*
X39391226Y-42502725D01*
X39320391Y-42503851D01*
X39268719Y-42505869D01*
X39232577Y-42509034D01*
X39208332Y-42513601D01*
X39192353Y-42519824D01*
X39181007Y-42527960D01*
X39176568Y-42532190D01*
X39167783Y-42542304D01*
X39160896Y-42555352D01*
X39155679Y-42574830D01*
X39151901Y-42604236D01*
X39149330Y-42647066D01*
X39147736Y-42706816D01*
X39146889Y-42786983D01*
X39146558Y-42891063D01*
X39146509Y-42987972D01*
X39146554Y-43112077D01*
X39146866Y-43209634D01*
X39147712Y-43284154D01*
X39149358Y-43339149D01*
X39152071Y-43378130D01*
X39156117Y-43404607D01*
X39161763Y-43422094D01*
X39169274Y-43434100D01*
X39178918Y-43444137D01*
X39181294Y-43446374D01*
X39192825Y-43456281D01*
X39206222Y-43463952D01*
X39225204Y-43469674D01*
X39253485Y-43473732D01*
X39294782Y-43476412D01*
X39352812Y-43477998D01*
X39431291Y-43478776D01*
X39533934Y-43479032D01*
X39606804Y-43479054D01*
X39725570Y-43478948D01*
X39725570Y-43478948D01*
G37*
X39725570Y-43478948D02*
X39817978Y-43478452D01*
X39887727Y-43477299D01*
X39938517Y-43475220D01*
X39974049Y-43471949D01*
X39998022Y-43467217D01*
X40014136Y-43460757D01*
X40026091Y-43452301D01*
X40030421Y-43448409D01*
X40056749Y-43407060D01*
X40061489Y-43359548D01*
X40044170Y-43317369D01*
X40036161Y-43308844D01*
X40023208Y-43300579D01*
X40002352Y-43294203D01*
X39969724Y-43289405D01*
X39921458Y-43285876D01*
X39853686Y-43283306D01*
X39762540Y-43281383D01*
X39679209Y-43280213D01*
X39349408Y-43276154D01*
X39340394Y-43103314D01*
X39564258Y-43103314D01*
X39661446Y-43102475D01*
X39732597Y-43098968D01*
X39781709Y-43091305D01*
X39812783Y-43077997D01*
X39829816Y-43057559D01*
X39836808Y-43028501D01*
X39837870Y-43001533D01*
X39834570Y-42968443D01*
X39822117Y-42944060D01*
X39796680Y-42927111D01*
X39754429Y-42916321D01*
X39691534Y-42910416D01*
X39604165Y-42908123D01*
X39556479Y-42907929D01*
X39341894Y-42907929D01*
X39341894Y-42697515D01*
X39672545Y-42697515D01*
X39780930Y-42697364D01*
X39863303Y-42696686D01*
X39923711Y-42695144D01*
X39966201Y-42692401D01*
X39994819Y-42688119D01*
X40013612Y-42681961D01*
X40026626Y-42673591D01*
X40033255Y-42667456D01*
X40055993Y-42631651D01*
X40063314Y-42599823D01*
X40052861Y-42560946D01*
X40033255Y-42532190D01*
X40022795Y-42523137D01*
X40009292Y-42516107D01*
X39989114Y-42510846D01*
X39958629Y-42507099D01*
X39914205Y-42504610D01*
X39852209Y-42503125D01*
X39769009Y-42502389D01*
X39660973Y-42502146D01*
X39604911Y-42502130D01*
X39484856Y-42502237D01*
X39391226Y-42502725D01*
X39320391Y-42503851D01*
X39268719Y-42505869D01*
X39232577Y-42509034D01*
X39208332Y-42513601D01*
X39192353Y-42519824D01*
X39181007Y-42527960D01*
X39176568Y-42532190D01*
X39167783Y-42542304D01*
X39160896Y-42555352D01*
X39155679Y-42574830D01*
X39151901Y-42604236D01*
X39149330Y-42647066D01*
X39147736Y-42706816D01*
X39146889Y-42786983D01*
X39146558Y-42891063D01*
X39146509Y-42987972D01*
X39146554Y-43112077D01*
X39146866Y-43209634D01*
X39147712Y-43284154D01*
X39149358Y-43339149D01*
X39152071Y-43378130D01*
X39156117Y-43404607D01*
X39161763Y-43422094D01*
X39169274Y-43434100D01*
X39178918Y-43444137D01*
X39181294Y-43446374D01*
X39192825Y-43456281D01*
X39206222Y-43463952D01*
X39225204Y-43469674D01*
X39253485Y-43473732D01*
X39294782Y-43476412D01*
X39352812Y-43477998D01*
X39431291Y-43478776D01*
X39533934Y-43479032D01*
X39606804Y-43479054D01*
X39725570Y-43478948D01*
G36*
X41085012Y-43477343D02*
X41184617Y-43470380D01*
X41277256Y-43459505D01*
X41357542Y-43445126D01*
X41420092Y-43427654D01*
X41459519Y-43407498D01*
X41465571Y-43401565D01*
X41486616Y-43355525D01*
X41480234Y-43308260D01*
X41447593Y-43267822D01*
X41446036Y-43266663D01*
X41426837Y-43254203D01*
X41406795Y-43247651D01*
X41378840Y-43246856D01*
X41335901Y-43251664D01*
X41270909Y-43261925D01*
X41265681Y-43262789D01*
X41168839Y-43274686D01*
X41064356Y-43280555D01*
X40959565Y-43280612D01*
X40861798Y-43275073D01*
X40778388Y-43264155D01*
X40716667Y-43248075D01*
X40712612Y-43246459D01*
X40667836Y-43221371D01*
X40652104Y-43195982D01*
X40664420Y-43171013D01*
X40703785Y-43147184D01*
X40769202Y-43125218D01*
X40859674Y-43105834D01*
X40920000Y-43096502D01*
X41045400Y-43078551D01*
X41145135Y-43062141D01*
X41223454Y-43045852D01*
X41284607Y-43028262D01*
X41332841Y-43007951D01*
X41372405Y-42983497D01*
X41407548Y-42953480D01*
X41435789Y-42924004D01*
X41469292Y-42882933D01*
X41485781Y-42847618D01*
X41490937Y-42804107D01*
X41491124Y-42788172D01*
X41487252Y-42735295D01*
X41471773Y-42695957D01*
X41444985Y-42661040D01*
X41390541Y-42607666D01*
X41329830Y-42566962D01*
X41258342Y-42537600D01*
X41171564Y-42518253D01*
X41064986Y-42507594D01*
X40934097Y-42504295D01*
X40912485Y-42504351D01*
X40825202Y-42506160D01*
X40738641Y-42510271D01*
X40662238Y-42516094D01*
X40605430Y-42523039D01*
X40600836Y-42523836D01*
X40544355Y-42537216D01*
X40496448Y-42554118D01*
X40469327Y-42569569D01*
X40444089Y-42610334D01*
X40442331Y-42657802D01*
X40464088Y-42700105D01*
X40468956Y-42704888D01*
X40489078Y-42719101D01*
X40514242Y-42725224D01*
X40553187Y-42724182D01*
X40600465Y-42718766D01*
X40653295Y-42713927D01*
X40727352Y-42709845D01*
X40813809Y-42706882D01*
X40903837Y-42705403D01*
X40927515Y-42705306D01*
X41017878Y-42705670D01*
X41084011Y-42707424D01*
X41131733Y-42711177D01*
X41166862Y-42717537D01*
X41195218Y-42727113D01*
X41212259Y-42735089D01*
X41249704Y-42757235D01*
X41273579Y-42777292D01*
X41277068Y-42782977D01*
X41269707Y-42806455D01*
X41234713Y-42829183D01*
X41174512Y-42850130D01*
X41091529Y-42868264D01*
X41067080Y-42872303D01*
X40939378Y-42892361D01*
X40837460Y-42909126D01*
X40757394Y-42923817D01*
X40695246Y-42937652D01*
X40647082Y-42951849D01*
X40608968Y-42967627D01*
X40576970Y-42986204D01*
X40547156Y-43008798D01*
X40515590Y-43036627D01*
X40504968Y-43046384D01*
X40467727Y-43082798D01*
X40448013Y-43111648D01*
X40440301Y-43144662D01*
X40439053Y-43186265D01*
X40452785Y-43267849D01*
X40493822Y-43337166D01*
X40561930Y-43393992D01*
X40656873Y-43438103D01*
X40724616Y-43457888D01*
X40798241Y-43470667D01*
X40886439Y-43477896D01*
X40983824Y-43479985D01*
X41085012Y-43477343D01*
X41085012Y-43477343D01*
G37*
X41085012Y-43477343D02*
X41184617Y-43470380D01*
X41277256Y-43459505D01*
X41357542Y-43445126D01*
X41420092Y-43427654D01*
X41459519Y-43407498D01*
X41465571Y-43401565D01*
X41486616Y-43355525D01*
X41480234Y-43308260D01*
X41447593Y-43267822D01*
X41446036Y-43266663D01*
X41426837Y-43254203D01*
X41406795Y-43247651D01*
X41378840Y-43246856D01*
X41335901Y-43251664D01*
X41270909Y-43261925D01*
X41265681Y-43262789D01*
X41168839Y-43274686D01*
X41064356Y-43280555D01*
X40959565Y-43280612D01*
X40861798Y-43275073D01*
X40778388Y-43264155D01*
X40716667Y-43248075D01*
X40712612Y-43246459D01*
X40667836Y-43221371D01*
X40652104Y-43195982D01*
X40664420Y-43171013D01*
X40703785Y-43147184D01*
X40769202Y-43125218D01*
X40859674Y-43105834D01*
X40920000Y-43096502D01*
X41045400Y-43078551D01*
X41145135Y-43062141D01*
X41223454Y-43045852D01*
X41284607Y-43028262D01*
X41332841Y-43007951D01*
X41372405Y-42983497D01*
X41407548Y-42953480D01*
X41435789Y-42924004D01*
X41469292Y-42882933D01*
X41485781Y-42847618D01*
X41490937Y-42804107D01*
X41491124Y-42788172D01*
X41487252Y-42735295D01*
X41471773Y-42695957D01*
X41444985Y-42661040D01*
X41390541Y-42607666D01*
X41329830Y-42566962D01*
X41258342Y-42537600D01*
X41171564Y-42518253D01*
X41064986Y-42507594D01*
X40934097Y-42504295D01*
X40912485Y-42504351D01*
X40825202Y-42506160D01*
X40738641Y-42510271D01*
X40662238Y-42516094D01*
X40605430Y-42523039D01*
X40600836Y-42523836D01*
X40544355Y-42537216D01*
X40496448Y-42554118D01*
X40469327Y-42569569D01*
X40444089Y-42610334D01*
X40442331Y-42657802D01*
X40464088Y-42700105D01*
X40468956Y-42704888D01*
X40489078Y-42719101D01*
X40514242Y-42725224D01*
X40553187Y-42724182D01*
X40600465Y-42718766D01*
X40653295Y-42713927D01*
X40727352Y-42709845D01*
X40813809Y-42706882D01*
X40903837Y-42705403D01*
X40927515Y-42705306D01*
X41017878Y-42705670D01*
X41084011Y-42707424D01*
X41131733Y-42711177D01*
X41166862Y-42717537D01*
X41195218Y-42727113D01*
X41212259Y-42735089D01*
X41249704Y-42757235D01*
X41273579Y-42777292D01*
X41277068Y-42782977D01*
X41269707Y-42806455D01*
X41234713Y-42829183D01*
X41174512Y-42850130D01*
X41091529Y-42868264D01*
X41067080Y-42872303D01*
X40939378Y-42892361D01*
X40837460Y-42909126D01*
X40757394Y-42923817D01*
X40695246Y-42937652D01*
X40647082Y-42951849D01*
X40608968Y-42967627D01*
X40576970Y-42986204D01*
X40547156Y-43008798D01*
X40515590Y-43036627D01*
X40504968Y-43046384D01*
X40467727Y-43082798D01*
X40448013Y-43111648D01*
X40440301Y-43144662D01*
X40439053Y-43186265D01*
X40452785Y-43267849D01*
X40493822Y-43337166D01*
X40561930Y-43393992D01*
X40656873Y-43438103D01*
X40724616Y-43457888D01*
X40798241Y-43470667D01*
X40886439Y-43477896D01*
X40983824Y-43479985D01*
X41085012Y-43477343D01*
G36*
X42107337Y-43448994D02*
X42116099Y-43438912D01*
X42122972Y-43425905D01*
X42128185Y-43406489D01*
X42131966Y-43377180D01*
X42134544Y-43334493D01*
X42136147Y-43274945D01*
X42137005Y-43195050D01*
X42137344Y-43091324D01*
X42137397Y-42990592D01*
X42137304Y-42865648D01*
X42136873Y-42767279D01*
X42135877Y-42691999D01*
X42134085Y-42636326D01*
X42131271Y-42596774D01*
X42127204Y-42569859D01*
X42121658Y-42552097D01*
X42114403Y-42540003D01*
X42107337Y-42532190D01*
X42063398Y-42505988D01*
X42016580Y-42508339D01*
X41974691Y-42536916D01*
X41965066Y-42548073D01*
X41957545Y-42561017D01*
X41951866Y-42579328D01*
X41947773Y-42606582D01*
X41945005Y-42646360D01*
X41943304Y-42702238D01*
X41942411Y-42777796D01*
X41942067Y-42876612D01*
X41942012Y-42988486D01*
X41942012Y-43405272D01*
X41978903Y-43442163D01*
X42024375Y-43473200D01*
X42068484Y-43474319D01*
X42107337Y-43448994D01*
X42107337Y-43448994D01*
G37*
X42107337Y-43448994D02*
X42116099Y-43438912D01*
X42122972Y-43425905D01*
X42128185Y-43406489D01*
X42131966Y-43377180D01*
X42134544Y-43334493D01*
X42136147Y-43274945D01*
X42137005Y-43195050D01*
X42137344Y-43091324D01*
X42137397Y-42990592D01*
X42137304Y-42865648D01*
X42136873Y-42767279D01*
X42135877Y-42691999D01*
X42134085Y-42636326D01*
X42131271Y-42596774D01*
X42127204Y-42569859D01*
X42121658Y-42552097D01*
X42114403Y-42540003D01*
X42107337Y-42532190D01*
X42063398Y-42505988D01*
X42016580Y-42508339D01*
X41974691Y-42536916D01*
X41965066Y-42548073D01*
X41957545Y-42561017D01*
X41951866Y-42579328D01*
X41947773Y-42606582D01*
X41945005Y-42646360D01*
X41943304Y-42702238D01*
X41942411Y-42777796D01*
X41942067Y-42876612D01*
X41942012Y-42988486D01*
X41942012Y-43405272D01*
X41978903Y-43442163D01*
X42024375Y-43473200D01*
X42068484Y-43474319D01*
X42107337Y-43448994D01*
G36*
X43403738Y-43471688D02*
X43494959Y-43456382D01*
X43565018Y-43432589D01*
X43610596Y-43401260D01*
X43623016Y-43383386D01*
X43635646Y-43341815D01*
X43627147Y-43304208D01*
X43600315Y-43268545D01*
X43558624Y-43251861D01*
X43498130Y-43253216D01*
X43451341Y-43262255D01*
X43347372Y-43279477D01*
X43241120Y-43281113D01*
X43122191Y-43267135D01*
X43089340Y-43261212D01*
X42978755Y-43230033D01*
X42892241Y-43183654D01*
X42830747Y-43122865D01*
X42795222Y-43048456D01*
X42787875Y-43009986D01*
X42792684Y-42931937D01*
X42823734Y-42862883D01*
X42878194Y-42804171D01*
X42953236Y-42757147D01*
X43046030Y-42723157D01*
X43153748Y-42703546D01*
X43273559Y-42699659D01*
X43402635Y-42712844D01*
X43409923Y-42714088D01*
X43461262Y-42723650D01*
X43489728Y-42732886D01*
X43502066Y-42746591D01*
X43505022Y-42769558D01*
X43505089Y-42781721D01*
X43505089Y-42832781D01*
X43413923Y-42832781D01*
X43333418Y-42838296D01*
X43278479Y-42855870D01*
X43246514Y-42887047D01*
X43234928Y-42933370D01*
X43234787Y-42939416D01*
X43241565Y-42979011D01*
X43264809Y-43007283D01*
X43308070Y-43025993D01*
X43374899Y-43036900D01*
X43439630Y-43040910D01*
X43533713Y-43043211D01*
X43601956Y-43039700D01*
X43648499Y-43026745D01*
X43677482Y-43000714D01*
X43693045Y-42957973D01*
X43699329Y-42894890D01*
X43700474Y-42812036D01*
X43698598Y-42719554D01*
X43692954Y-42656646D01*
X43683518Y-42623061D01*
X43681687Y-42620431D01*
X43629875Y-42578466D01*
X43553910Y-42545232D01*
X43458608Y-42521441D01*
X43348784Y-42507801D01*
X43229254Y-42505022D01*
X43104834Y-42513815D01*
X43031657Y-42524615D01*
X42916880Y-42557102D01*
X42810204Y-42610214D01*
X42720889Y-42679145D01*
X42707314Y-42692922D01*
X42663208Y-42750842D01*
X42623411Y-42822624D01*
X42592573Y-42897881D01*
X42575343Y-42966223D01*
X42573266Y-42992471D01*
X42582107Y-43047223D01*
X42605605Y-43115345D01*
X42639251Y-43187050D01*
X42678536Y-43252551D01*
X42713245Y-43296302D01*
X42794397Y-43361381D01*
X42899302Y-43413179D01*
X43024200Y-43450526D01*
X43165333Y-43472247D01*
X43294675Y-43477555D01*
X43403738Y-43471688D01*
X43403738Y-43471688D01*
G37*
X43403738Y-43471688D02*
X43494959Y-43456382D01*
X43565018Y-43432589D01*
X43610596Y-43401260D01*
X43623016Y-43383386D01*
X43635646Y-43341815D01*
X43627147Y-43304208D01*
X43600315Y-43268545D01*
X43558624Y-43251861D01*
X43498130Y-43253216D01*
X43451341Y-43262255D01*
X43347372Y-43279477D01*
X43241120Y-43281113D01*
X43122191Y-43267135D01*
X43089340Y-43261212D01*
X42978755Y-43230033D01*
X42892241Y-43183654D01*
X42830747Y-43122865D01*
X42795222Y-43048456D01*
X42787875Y-43009986D01*
X42792684Y-42931937D01*
X42823734Y-42862883D01*
X42878194Y-42804171D01*
X42953236Y-42757147D01*
X43046030Y-42723157D01*
X43153748Y-42703546D01*
X43273559Y-42699659D01*
X43402635Y-42712844D01*
X43409923Y-42714088D01*
X43461262Y-42723650D01*
X43489728Y-42732886D01*
X43502066Y-42746591D01*
X43505022Y-42769558D01*
X43505089Y-42781721D01*
X43505089Y-42832781D01*
X43413923Y-42832781D01*
X43333418Y-42838296D01*
X43278479Y-42855870D01*
X43246514Y-42887047D01*
X43234928Y-42933370D01*
X43234787Y-42939416D01*
X43241565Y-42979011D01*
X43264809Y-43007283D01*
X43308070Y-43025993D01*
X43374899Y-43036900D01*
X43439630Y-43040910D01*
X43533713Y-43043211D01*
X43601956Y-43039700D01*
X43648499Y-43026745D01*
X43677482Y-43000714D01*
X43693045Y-42957973D01*
X43699329Y-42894890D01*
X43700474Y-42812036D01*
X43698598Y-42719554D01*
X43692954Y-42656646D01*
X43683518Y-42623061D01*
X43681687Y-42620431D01*
X43629875Y-42578466D01*
X43553910Y-42545232D01*
X43458608Y-42521441D01*
X43348784Y-42507801D01*
X43229254Y-42505022D01*
X43104834Y-42513815D01*
X43031657Y-42524615D01*
X42916880Y-42557102D01*
X42810204Y-42610214D01*
X42720889Y-42679145D01*
X42707314Y-42692922D01*
X42663208Y-42750842D01*
X42623411Y-42822624D01*
X42592573Y-42897881D01*
X42575343Y-42966223D01*
X42573266Y-42992471D01*
X42582107Y-43047223D01*
X42605605Y-43115345D01*
X42639251Y-43187050D01*
X42678536Y-43252551D01*
X42713245Y-43296302D01*
X42794397Y-43361381D01*
X42899302Y-43413179D01*
X43024200Y-43450526D01*
X43165333Y-43472247D01*
X43294675Y-43477555D01*
X43403738Y-43471688D01*
G36*
X44269080Y-43473220D02*
X44300455Y-43454815D01*
X44341478Y-43424715D01*
X44394276Y-43381504D01*
X44460975Y-43323762D01*
X44543701Y-43250072D01*
X44644580Y-43159016D01*
X44760059Y-43054326D01*
X45000533Y-42836257D01*
X45008048Y-43128956D01*
X45010761Y-43229710D01*
X45013378Y-43304742D01*
X45016480Y-43358380D01*
X45020644Y-43394954D01*
X45026449Y-43418793D01*
X45034476Y-43434226D01*
X45045303Y-43445582D01*
X45051044Y-43450354D01*
X45097017Y-43475587D01*
X45140763Y-43471898D01*
X45175465Y-43450341D01*
X45210947Y-43421629D01*
X45215360Y-43002314D01*
X45216581Y-42878993D01*
X45217203Y-42782116D01*
X45217010Y-42708070D01*
X45215786Y-42653243D01*
X45213316Y-42614021D01*
X45209386Y-42586791D01*
X45203780Y-42567941D01*
X45196282Y-42553859D01*
X45187967Y-42542565D01*
X45169978Y-42521618D01*
X45152079Y-42507733D01*
X45131788Y-42502404D01*
X45106622Y-42507124D01*
X45074100Y-42523387D01*
X45031737Y-42552687D01*
X44977052Y-42596518D01*
X44907563Y-42656373D01*
X44820785Y-42733746D01*
X44722485Y-42822650D01*
X44369290Y-43143029D01*
X44361775Y-42851287D01*
X44359057Y-42750717D01*
X44356433Y-42675860D01*
X44353321Y-42622380D01*
X44349138Y-42585938D01*
X44343303Y-42562196D01*
X44335234Y-42546818D01*
X44324349Y-42535464D01*
X44318779Y-42530838D01*
X44269544Y-42505422D01*
X44223023Y-42509255D01*
X44182511Y-42541731D01*
X44173244Y-42554797D01*
X44166021Y-42570055D01*
X44160588Y-42591168D01*
X44156692Y-42621795D01*
X44154079Y-42665598D01*
X44152493Y-42726237D01*
X44151682Y-42807373D01*
X44151392Y-42912667D01*
X44151361Y-42990592D01*
X44151459Y-43112476D01*
X44151921Y-43207961D01*
X44153003Y-43280709D01*
X44154957Y-43334381D01*
X44158038Y-43372637D01*
X44162500Y-43399137D01*
X44168597Y-43417544D01*
X44176583Y-43431516D01*
X44182511Y-43439453D01*
X44197538Y-43458252D01*
X44211582Y-43472447D01*
X44226770Y-43480618D01*
X44245227Y-43481348D01*
X44269080Y-43473220D01*
X44269080Y-43473220D01*
G37*
X44269080Y-43473220D02*
X44300455Y-43454815D01*
X44341478Y-43424715D01*
X44394276Y-43381504D01*
X44460975Y-43323762D01*
X44543701Y-43250072D01*
X44644580Y-43159016D01*
X44760059Y-43054326D01*
X45000533Y-42836257D01*
X45008048Y-43128956D01*
X45010761Y-43229710D01*
X45013378Y-43304742D01*
X45016480Y-43358380D01*
X45020644Y-43394954D01*
X45026449Y-43418793D01*
X45034476Y-43434226D01*
X45045303Y-43445582D01*
X45051044Y-43450354D01*
X45097017Y-43475587D01*
X45140763Y-43471898D01*
X45175465Y-43450341D01*
X45210947Y-43421629D01*
X45215360Y-43002314D01*
X45216581Y-42878993D01*
X45217203Y-42782116D01*
X45217010Y-42708070D01*
X45215786Y-42653243D01*
X45213316Y-42614021D01*
X45209386Y-42586791D01*
X45203780Y-42567941D01*
X45196282Y-42553859D01*
X45187967Y-42542565D01*
X45169978Y-42521618D01*
X45152079Y-42507733D01*
X45131788Y-42502404D01*
X45106622Y-42507124D01*
X45074100Y-42523387D01*
X45031737Y-42552687D01*
X44977052Y-42596518D01*
X44907563Y-42656373D01*
X44820785Y-42733746D01*
X44722485Y-42822650D01*
X44369290Y-43143029D01*
X44361775Y-42851287D01*
X44359057Y-42750717D01*
X44356433Y-42675860D01*
X44353321Y-42622380D01*
X44349138Y-42585938D01*
X44343303Y-42562196D01*
X44335234Y-42546818D01*
X44324349Y-42535464D01*
X44318779Y-42530838D01*
X44269544Y-42505422D01*
X44223023Y-42509255D01*
X44182511Y-42541731D01*
X44173244Y-42554797D01*
X44166021Y-42570055D01*
X44160588Y-42591168D01*
X44156692Y-42621795D01*
X44154079Y-42665598D01*
X44152493Y-42726237D01*
X44151682Y-42807373D01*
X44151392Y-42912667D01*
X44151361Y-42990592D01*
X44151459Y-43112476D01*
X44151921Y-43207961D01*
X44153003Y-43280709D01*
X44154957Y-43334381D01*
X44158038Y-43372637D01*
X44162500Y-43399137D01*
X44168597Y-43417544D01*
X44176583Y-43431516D01*
X44182511Y-43439453D01*
X44197538Y-43458252D01*
X44211582Y-43472447D01*
X44226770Y-43480618D01*
X44245227Y-43481348D01*
X44269080Y-43473220D01*
G36*
X46306670Y-43478797D02*
X46408331Y-43477580D01*
X46486236Y-43474734D01*
X46543535Y-43469590D01*
X46583381Y-43461480D01*
X46608922Y-43449733D01*
X46623311Y-43433682D01*
X46629699Y-43412656D01*
X46631235Y-43385988D01*
X46631243Y-43382838D01*
X46629909Y-43352674D01*
X46623605Y-43329361D01*
X46608876Y-43311958D01*
X46582269Y-43299524D01*
X46540328Y-43291119D01*
X46479600Y-43285799D01*
X46396630Y-43282625D01*
X46287965Y-43280655D01*
X46254659Y-43280219D01*
X45932367Y-43276154D01*
X45927860Y-43189734D01*
X45923352Y-43103314D01*
X46147217Y-43103314D01*
X46234675Y-43102991D01*
X46297123Y-43101627D01*
X46339608Y-43098625D01*
X46367177Y-43093391D01*
X46384876Y-43085329D01*
X46397751Y-43073844D01*
X46397834Y-43073753D01*
X46421184Y-43028993D01*
X46420340Y-42980617D01*
X46395833Y-42939378D01*
X46390983Y-42935139D01*
X46373769Y-42924215D01*
X46350180Y-42916615D01*
X46314961Y-42911767D01*
X46262854Y-42909098D01*
X46188604Y-42908036D01*
X46141116Y-42907929D01*
X45924852Y-42907929D01*
X45924852Y-42697515D01*
X46253174Y-42697515D01*
X46361572Y-42697325D01*
X46443889Y-42696550D01*
X46504103Y-42694880D01*
X46546189Y-42692006D01*
X46574125Y-42687617D01*
X46591888Y-42681405D01*
X46603454Y-42673060D01*
X46606369Y-42670030D01*
X46627890Y-42628030D01*
X46629464Y-42580250D01*
X46611809Y-42538822D01*
X46597839Y-42525527D01*
X46583308Y-42518208D01*
X46560792Y-42512545D01*
X46526730Y-42508341D01*
X46477561Y-42505396D01*
X46409722Y-42503513D01*
X46319652Y-42502494D01*
X46203791Y-42502139D01*
X46177597Y-42502130D01*
X46059793Y-42502208D01*
X45968350Y-42502633D01*
X45899568Y-42503698D01*
X45849750Y-42505695D01*
X45815194Y-42508914D01*
X45792204Y-42513648D01*
X45777080Y-42520187D01*
X45766123Y-42528823D01*
X45760112Y-42535024D01*
X45751064Y-42546007D01*
X45743996Y-42559612D01*
X45738663Y-42579408D01*
X45734822Y-42608962D01*
X45732229Y-42651843D01*
X45730641Y-42711619D01*
X45729815Y-42791857D01*
X45729506Y-42896125D01*
X45729468Y-42983884D01*
X45729562Y-43106856D01*
X45730011Y-43203395D01*
X45731062Y-43277125D01*
X45732964Y-43331674D01*
X45735963Y-43370665D01*
X45740309Y-43397725D01*
X45746248Y-43416480D01*
X45754029Y-43430554D01*
X45760618Y-43439453D01*
X45791768Y-43479054D01*
X46178102Y-43479054D01*
X46306670Y-43478797D01*
X46306670Y-43478797D01*
G37*
X46306670Y-43478797D02*
X46408331Y-43477580D01*
X46486236Y-43474734D01*
X46543535Y-43469590D01*
X46583381Y-43461480D01*
X46608922Y-43449733D01*
X46623311Y-43433682D01*
X46629699Y-43412656D01*
X46631235Y-43385988D01*
X46631243Y-43382838D01*
X46629909Y-43352674D01*
X46623605Y-43329361D01*
X46608876Y-43311958D01*
X46582269Y-43299524D01*
X46540328Y-43291119D01*
X46479600Y-43285799D01*
X46396630Y-43282625D01*
X46287965Y-43280655D01*
X46254659Y-43280219D01*
X45932367Y-43276154D01*
X45927860Y-43189734D01*
X45923352Y-43103314D01*
X46147217Y-43103314D01*
X46234675Y-43102991D01*
X46297123Y-43101627D01*
X46339608Y-43098625D01*
X46367177Y-43093391D01*
X46384876Y-43085329D01*
X46397751Y-43073844D01*
X46397834Y-43073753D01*
X46421184Y-43028993D01*
X46420340Y-42980617D01*
X46395833Y-42939378D01*
X46390983Y-42935139D01*
X46373769Y-42924215D01*
X46350180Y-42916615D01*
X46314961Y-42911767D01*
X46262854Y-42909098D01*
X46188604Y-42908036D01*
X46141116Y-42907929D01*
X45924852Y-42907929D01*
X45924852Y-42697515D01*
X46253174Y-42697515D01*
X46361572Y-42697325D01*
X46443889Y-42696550D01*
X46504103Y-42694880D01*
X46546189Y-42692006D01*
X46574125Y-42687617D01*
X46591888Y-42681405D01*
X46603454Y-42673060D01*
X46606369Y-42670030D01*
X46627890Y-42628030D01*
X46629464Y-42580250D01*
X46611809Y-42538822D01*
X46597839Y-42525527D01*
X46583308Y-42518208D01*
X46560792Y-42512545D01*
X46526730Y-42508341D01*
X46477561Y-42505396D01*
X46409722Y-42503513D01*
X46319652Y-42502494D01*
X46203791Y-42502139D01*
X46177597Y-42502130D01*
X46059793Y-42502208D01*
X45968350Y-42502633D01*
X45899568Y-42503698D01*
X45849750Y-42505695D01*
X45815194Y-42508914D01*
X45792204Y-42513648D01*
X45777080Y-42520187D01*
X45766123Y-42528823D01*
X45760112Y-42535024D01*
X45751064Y-42546007D01*
X45743996Y-42559612D01*
X45738663Y-42579408D01*
X45734822Y-42608962D01*
X45732229Y-42651843D01*
X45730641Y-42711619D01*
X45729815Y-42791857D01*
X45729506Y-42896125D01*
X45729468Y-42983884D01*
X45729562Y-43106856D01*
X45730011Y-43203395D01*
X45731062Y-43277125D01*
X45732964Y-43331674D01*
X45735963Y-43370665D01*
X45740309Y-43397725D01*
X45746248Y-43416480D01*
X45754029Y-43430554D01*
X45760618Y-43439453D01*
X45791768Y-43479054D01*
X46178102Y-43479054D01*
X46306670Y-43478797D01*
G36*
X47355737Y-43478777D02*
X47527455Y-43472971D01*
X47673509Y-43455363D01*
X47796307Y-43424901D01*
X47898257Y-43380529D01*
X47981768Y-43321193D01*
X48049247Y-43245840D01*
X48103103Y-43153414D01*
X48104162Y-43151160D01*
X48136303Y-43068440D01*
X48147755Y-42995180D01*
X48138474Y-42921452D01*
X48108415Y-42837329D01*
X48102715Y-42824527D01*
X48063839Y-42749602D01*
X48020149Y-42691707D01*
X47963760Y-42642492D01*
X47886792Y-42593607D01*
X47882320Y-42591055D01*
X47815317Y-42558869D01*
X47739585Y-42534832D01*
X47650258Y-42518113D01*
X47542469Y-42507885D01*
X47411352Y-42503318D01*
X47365026Y-42502921D01*
X47144430Y-42502130D01*
X47113280Y-42541731D01*
X47104040Y-42554753D01*
X47096832Y-42569960D01*
X47091404Y-42590998D01*
X47087505Y-42621514D01*
X47084883Y-42665153D01*
X47084028Y-42697515D01*
X47292545Y-42697515D01*
X47417536Y-42697515D01*
X47490677Y-42699654D01*
X47565761Y-42705283D01*
X47627384Y-42713221D01*
X47631103Y-42713889D01*
X47740553Y-42743252D01*
X47825448Y-42787367D01*
X47888472Y-42848281D01*
X47932314Y-42928040D01*
X47939937Y-42949180D01*
X47947410Y-42982102D01*
X47944175Y-43014628D01*
X47928433Y-43057900D01*
X47918944Y-43079157D01*
X47887871Y-43135644D01*
X47850433Y-43175273D01*
X47809241Y-43202870D01*
X47726730Y-43238782D01*
X47621133Y-43264796D01*
X47498118Y-43279776D01*
X47409024Y-43283072D01*
X47292545Y-43283669D01*
X47292545Y-42697515D01*
X47084028Y-42697515D01*
X47083286Y-42725564D01*
X47082464Y-42806392D01*
X47082164Y-42911283D01*
X47082130Y-42993302D01*
X47082130Y-43405272D01*
X47119021Y-43442163D01*
X47135394Y-43457116D01*
X47153097Y-43467356D01*
X47177819Y-43473763D01*
X47215248Y-43477217D01*
X47271073Y-43478597D01*
X47350982Y-43478783D01*
X47355737Y-43478777D01*
X47355737Y-43478777D01*
G37*
X47355737Y-43478777D02*
X47527455Y-43472971D01*
X47673509Y-43455363D01*
X47796307Y-43424901D01*
X47898257Y-43380529D01*
X47981768Y-43321193D01*
X48049247Y-43245840D01*
X48103103Y-43153414D01*
X48104162Y-43151160D01*
X48136303Y-43068440D01*
X48147755Y-42995180D01*
X48138474Y-42921452D01*
X48108415Y-42837329D01*
X48102715Y-42824527D01*
X48063839Y-42749602D01*
X48020149Y-42691707D01*
X47963760Y-42642492D01*
X47886792Y-42593607D01*
X47882320Y-42591055D01*
X47815317Y-42558869D01*
X47739585Y-42534832D01*
X47650258Y-42518113D01*
X47542469Y-42507885D01*
X47411352Y-42503318D01*
X47365026Y-42502921D01*
X47144430Y-42502130D01*
X47113280Y-42541731D01*
X47104040Y-42554753D01*
X47096832Y-42569960D01*
X47091404Y-42590998D01*
X47087505Y-42621514D01*
X47084883Y-42665153D01*
X47084028Y-42697515D01*
X47292545Y-42697515D01*
X47417536Y-42697515D01*
X47490677Y-42699654D01*
X47565761Y-42705283D01*
X47627384Y-42713221D01*
X47631103Y-42713889D01*
X47740553Y-42743252D01*
X47825448Y-42787367D01*
X47888472Y-42848281D01*
X47932314Y-42928040D01*
X47939937Y-42949180D01*
X47947410Y-42982102D01*
X47944175Y-43014628D01*
X47928433Y-43057900D01*
X47918944Y-43079157D01*
X47887871Y-43135644D01*
X47850433Y-43175273D01*
X47809241Y-43202870D01*
X47726730Y-43238782D01*
X47621133Y-43264796D01*
X47498118Y-43279776D01*
X47409024Y-43283072D01*
X47292545Y-43283669D01*
X47292545Y-42697515D01*
X47084028Y-42697515D01*
X47083286Y-42725564D01*
X47082464Y-42806392D01*
X47082164Y-42911283D01*
X47082130Y-42993302D01*
X47082130Y-43405272D01*
X47119021Y-43442163D01*
X47135394Y-43457116D01*
X47153097Y-43467356D01*
X47177819Y-43473763D01*
X47215248Y-43477217D01*
X47271073Y-43478597D01*
X47350982Y-43478783D01*
X47355737Y-43478777D01*
G36*
X50985501Y-43476434D02*
X51011582Y-43467114D01*
X51012588Y-43466658D01*
X51048006Y-43439630D01*
X51067520Y-43411828D01*
X51071338Y-43398792D01*
X51071149Y-43381472D01*
X51065776Y-43356797D01*
X51054042Y-43321700D01*
X51034767Y-43273111D01*
X51006776Y-43207962D01*
X50968890Y-43123183D01*
X50919932Y-43015705D01*
X50892985Y-42956961D01*
X50844324Y-42852091D01*
X50798644Y-42755650D01*
X50757688Y-42671166D01*
X50723200Y-42602164D01*
X50696923Y-42552170D01*
X50680600Y-42524710D01*
X50677370Y-42520917D01*
X50636043Y-42504184D01*
X50589363Y-42506425D01*
X50551924Y-42526777D01*
X50550398Y-42528432D01*
X50535505Y-42550978D01*
X50510523Y-42594893D01*
X50478533Y-42654524D01*
X50442614Y-42724218D01*
X50429706Y-42749901D01*
X50332268Y-42945067D01*
X50226060Y-42733057D01*
X50188151Y-42659803D01*
X50152981Y-42596274D01*
X50123422Y-42547333D01*
X50102348Y-42517842D01*
X50095206Y-42511588D01*
X50039692Y-42503119D01*
X49993883Y-42520917D01*
X49980408Y-42539939D01*
X49957090Y-42582215D01*
X49925831Y-42643584D01*
X49888534Y-42719888D01*
X49847100Y-42806965D01*
X49803432Y-42900657D01*
X49759432Y-42996803D01*
X49717002Y-43091243D01*
X49678044Y-43179819D01*
X49644461Y-43258368D01*
X49618155Y-43322733D01*
X49601028Y-43368753D01*
X49594983Y-43392267D01*
X49595045Y-43393119D01*
X49609754Y-43422708D01*
X49639156Y-43452844D01*
X49640887Y-43454156D01*
X49677024Y-43474582D01*
X49710448Y-43474384D01*
X49722976Y-43470533D01*
X49738241Y-43462211D01*
X49754452Y-43445839D01*
X49773553Y-43418022D01*
X49797489Y-43375364D01*
X49828205Y-43314469D01*
X49867645Y-43231939D01*
X49903212Y-43155757D01*
X49944131Y-43067450D01*
X49980798Y-42988038D01*
X50011308Y-42921668D01*
X50033756Y-42872489D01*
X50046237Y-42844651D01*
X50048057Y-42840296D01*
X50056244Y-42847415D01*
X50075059Y-42877223D01*
X50102000Y-42925368D01*
X50134562Y-42987501D01*
X50147520Y-43013136D01*
X50191414Y-43099699D01*
X50225265Y-43162739D01*
X50251851Y-43205922D01*
X50273949Y-43232912D01*
X50294338Y-43247376D01*
X50315794Y-43252977D01*
X50329777Y-43253610D01*
X50354442Y-43251424D01*
X50376056Y-43242385D01*
X50397532Y-43222767D01*
X50421784Y-43188847D01*
X50451724Y-43136902D01*
X50490267Y-43063206D01*
X50511532Y-43021284D01*
X50546026Y-42954470D01*
X50576110Y-42899063D01*
X50599131Y-42859737D01*
X50612434Y-42841168D01*
X50614243Y-42840395D01*
X50622834Y-42855009D01*
X50642068Y-42892957D01*
X50670019Y-42950268D01*
X50704761Y-43022968D01*
X50744367Y-43107088D01*
X50763850Y-43148870D01*
X50814534Y-43256701D01*
X50855347Y-43339674D01*
X50888408Y-43400498D01*
X50915835Y-43441879D01*
X50939746Y-43466524D01*
X50962262Y-43477140D01*
X50985501Y-43476434D01*
X50985501Y-43476434D01*
G37*
X50985501Y-43476434D02*
X51011582Y-43467114D01*
X51012588Y-43466658D01*
X51048006Y-43439630D01*
X51067520Y-43411828D01*
X51071338Y-43398792D01*
X51071149Y-43381472D01*
X51065776Y-43356797D01*
X51054042Y-43321700D01*
X51034767Y-43273111D01*
X51006776Y-43207962D01*
X50968890Y-43123183D01*
X50919932Y-43015705D01*
X50892985Y-42956961D01*
X50844324Y-42852091D01*
X50798644Y-42755650D01*
X50757688Y-42671166D01*
X50723200Y-42602164D01*
X50696923Y-42552170D01*
X50680600Y-42524710D01*
X50677370Y-42520917D01*
X50636043Y-42504184D01*
X50589363Y-42506425D01*
X50551924Y-42526777D01*
X50550398Y-42528432D01*
X50535505Y-42550978D01*
X50510523Y-42594893D01*
X50478533Y-42654524D01*
X50442614Y-42724218D01*
X50429706Y-42749901D01*
X50332268Y-42945067D01*
X50226060Y-42733057D01*
X50188151Y-42659803D01*
X50152981Y-42596274D01*
X50123422Y-42547333D01*
X50102348Y-42517842D01*
X50095206Y-42511588D01*
X50039692Y-42503119D01*
X49993883Y-42520917D01*
X49980408Y-42539939D01*
X49957090Y-42582215D01*
X49925831Y-42643584D01*
X49888534Y-42719888D01*
X49847100Y-42806965D01*
X49803432Y-42900657D01*
X49759432Y-42996803D01*
X49717002Y-43091243D01*
X49678044Y-43179819D01*
X49644461Y-43258368D01*
X49618155Y-43322733D01*
X49601028Y-43368753D01*
X49594983Y-43392267D01*
X49595045Y-43393119D01*
X49609754Y-43422708D01*
X49639156Y-43452844D01*
X49640887Y-43454156D01*
X49677024Y-43474582D01*
X49710448Y-43474384D01*
X49722976Y-43470533D01*
X49738241Y-43462211D01*
X49754452Y-43445839D01*
X49773553Y-43418022D01*
X49797489Y-43375364D01*
X49828205Y-43314469D01*
X49867645Y-43231939D01*
X49903212Y-43155757D01*
X49944131Y-43067450D01*
X49980798Y-42988038D01*
X50011308Y-42921668D01*
X50033756Y-42872489D01*
X50046237Y-42844651D01*
X50048057Y-42840296D01*
X50056244Y-42847415D01*
X50075059Y-42877223D01*
X50102000Y-42925368D01*
X50134562Y-42987501D01*
X50147520Y-43013136D01*
X50191414Y-43099699D01*
X50225265Y-43162739D01*
X50251851Y-43205922D01*
X50273949Y-43232912D01*
X50294338Y-43247376D01*
X50315794Y-43252977D01*
X50329777Y-43253610D01*
X50354442Y-43251424D01*
X50376056Y-43242385D01*
X50397532Y-43222767D01*
X50421784Y-43188847D01*
X50451724Y-43136902D01*
X50490267Y-43063206D01*
X50511532Y-43021284D01*
X50546026Y-42954470D01*
X50576110Y-42899063D01*
X50599131Y-42859737D01*
X50612434Y-42841168D01*
X50614243Y-42840395D01*
X50622834Y-42855009D01*
X50642068Y-42892957D01*
X50670019Y-42950268D01*
X50704761Y-43022968D01*
X50744367Y-43107088D01*
X50763850Y-43148870D01*
X50814534Y-43256701D01*
X50855347Y-43339674D01*
X50888408Y-43400498D01*
X50915835Y-43441879D01*
X50939746Y-43466524D01*
X50962262Y-43477140D01*
X50985501Y-43476434D01*
G36*
X51576558Y-43469987D02*
X51608128Y-43450322D01*
X51643610Y-43421591D01*
X51643610Y-42993498D01*
X51643497Y-42868274D01*
X51643013Y-42769617D01*
X51641940Y-42694034D01*
X51640062Y-42638031D01*
X51637160Y-42598117D01*
X51633017Y-42570798D01*
X51627416Y-42552583D01*
X51620139Y-42539978D01*
X51614978Y-42533768D01*
X51573122Y-42506484D01*
X51525459Y-42507597D01*
X51483707Y-42530862D01*
X51448225Y-42559593D01*
X51448225Y-43421591D01*
X51483707Y-43450322D01*
X51517952Y-43471222D01*
X51545917Y-43479054D01*
X51576558Y-43469987D01*
X51576558Y-43469987D01*
G37*
X51576558Y-43469987D02*
X51608128Y-43450322D01*
X51643610Y-43421591D01*
X51643610Y-42993498D01*
X51643497Y-42868274D01*
X51643013Y-42769617D01*
X51641940Y-42694034D01*
X51640062Y-42638031D01*
X51637160Y-42598117D01*
X51633017Y-42570798D01*
X51627416Y-42552583D01*
X51620139Y-42539978D01*
X51614978Y-42533768D01*
X51573122Y-42506484D01*
X51525459Y-42507597D01*
X51483707Y-42530862D01*
X51448225Y-42559593D01*
X51448225Y-43421591D01*
X51483707Y-43450322D01*
X51517952Y-43471222D01*
X51545917Y-43479054D01*
X51576558Y-43469987D01*
G36*
X52607631Y-43478925D02*
X52712419Y-43478421D01*
X52793753Y-43477368D01*
X52854934Y-43475588D01*
X52899265Y-43472907D01*
X52930048Y-43469150D01*
X52950585Y-43464139D01*
X52964179Y-43457701D01*
X52970757Y-43452752D01*
X53004898Y-43409435D01*
X53009028Y-43364461D01*
X52987930Y-43323604D01*
X52974133Y-43307278D01*
X52959286Y-43296146D01*
X52937769Y-43289214D01*
X52903962Y-43285487D01*
X52852246Y-43283970D01*
X52777001Y-43283670D01*
X52762223Y-43283669D01*
X52567929Y-43283669D01*
X52567929Y-42922959D01*
X52567801Y-42809263D01*
X52567220Y-42721779D01*
X52565890Y-42656662D01*
X52563514Y-42610066D01*
X52559798Y-42578145D01*
X52554446Y-42557052D01*
X52547161Y-42542941D01*
X52537870Y-42532190D01*
X52494025Y-42505768D01*
X52448254Y-42507850D01*
X52406744Y-42537995D01*
X52403695Y-42541731D01*
X52393766Y-42555854D01*
X52386202Y-42572378D01*
X52380683Y-42595318D01*
X52376887Y-42628691D01*
X52374496Y-42676509D01*
X52373188Y-42742790D01*
X52372645Y-42831546D01*
X52372545Y-42932501D01*
X52372545Y-43283669D01*
X52187004Y-43283669D01*
X52107381Y-43284208D01*
X52052258Y-43286307D01*
X52016086Y-43290693D01*
X51993316Y-43298088D01*
X51978401Y-43309219D01*
X51976590Y-43311154D01*
X51954812Y-43355407D01*
X51956738Y-43405435D01*
X51981775Y-43448994D01*
X51991458Y-43457444D01*
X52003942Y-43464143D01*
X52022557Y-43469295D01*
X52050631Y-43473103D01*
X52091495Y-43475767D01*
X52148476Y-43477492D01*
X52224906Y-43478480D01*
X52324111Y-43478932D01*
X52449423Y-43479052D01*
X52476087Y-43479054D01*
X52607631Y-43478925D01*
X52607631Y-43478925D01*
G37*
X52607631Y-43478925D02*
X52712419Y-43478421D01*
X52793753Y-43477368D01*
X52854934Y-43475588D01*
X52899265Y-43472907D01*
X52930048Y-43469150D01*
X52950585Y-43464139D01*
X52964179Y-43457701D01*
X52970757Y-43452752D01*
X53004898Y-43409435D01*
X53009028Y-43364461D01*
X52987930Y-43323604D01*
X52974133Y-43307278D01*
X52959286Y-43296146D01*
X52937769Y-43289214D01*
X52903962Y-43285487D01*
X52852246Y-43283970D01*
X52777001Y-43283670D01*
X52762223Y-43283669D01*
X52567929Y-43283669D01*
X52567929Y-42922959D01*
X52567801Y-42809263D01*
X52567220Y-42721779D01*
X52565890Y-42656662D01*
X52563514Y-42610066D01*
X52559798Y-42578145D01*
X52554446Y-42557052D01*
X52547161Y-42542941D01*
X52537870Y-42532190D01*
X52494025Y-42505768D01*
X52448254Y-42507850D01*
X52406744Y-42537995D01*
X52403695Y-42541731D01*
X52393766Y-42555854D01*
X52386202Y-42572378D01*
X52380683Y-42595318D01*
X52376887Y-42628691D01*
X52374496Y-42676509D01*
X52373188Y-42742790D01*
X52372645Y-42831546D01*
X52372545Y-42932501D01*
X52372545Y-43283669D01*
X52187004Y-43283669D01*
X52107381Y-43284208D01*
X52052258Y-43286307D01*
X52016086Y-43290693D01*
X51993316Y-43298088D01*
X51978401Y-43309219D01*
X51976590Y-43311154D01*
X51954812Y-43355407D01*
X51956738Y-43405435D01*
X51981775Y-43448994D01*
X51991458Y-43457444D01*
X52003942Y-43464143D01*
X52022557Y-43469295D01*
X52050631Y-43473103D01*
X52091495Y-43475767D01*
X52148476Y-43477492D01*
X52224906Y-43478480D01*
X52324111Y-43478932D01*
X52449423Y-43479052D01*
X52476087Y-43479054D01*
X52607631Y-43478925D01*
G36*
X54292813Y-43471776D02*
X54334589Y-43442163D01*
X54371479Y-43405272D01*
X54371479Y-42993302D01*
X54371383Y-42870978D01*
X54370926Y-42775066D01*
X54369857Y-42701920D01*
X54367925Y-42647894D01*
X54364877Y-42609341D01*
X54360463Y-42582616D01*
X54354430Y-42564070D01*
X54346528Y-42550059D01*
X54340329Y-42541731D01*
X54299415Y-42509015D01*
X54252436Y-42505464D01*
X54209498Y-42525527D01*
X54195310Y-42537372D01*
X54185826Y-42553106D01*
X54180105Y-42578442D01*
X54177207Y-42619094D01*
X54176192Y-42680776D01*
X54176095Y-42728426D01*
X54176095Y-42907929D01*
X53514793Y-42907929D01*
X53514793Y-42744631D01*
X53514109Y-42669959D01*
X53511373Y-42618640D01*
X53505558Y-42583987D01*
X53495638Y-42559309D01*
X53483643Y-42541731D01*
X53442500Y-42509107D01*
X53395971Y-42505244D01*
X53351427Y-42528432D01*
X53339266Y-42540588D01*
X53330677Y-42556703D01*
X53325012Y-42581804D01*
X53321623Y-42620920D01*
X53319862Y-42679078D01*
X53319082Y-42761306D01*
X53318990Y-42780178D01*
X53318346Y-42935107D01*
X53318014Y-43062790D01*
X53318122Y-43166037D01*
X53318799Y-43247661D01*
X53320172Y-43310472D01*
X53322370Y-43357283D01*
X53325520Y-43390905D01*
X53329752Y-43414149D01*
X53335192Y-43429828D01*
X53341969Y-43440753D01*
X53349468Y-43448994D01*
X53391887Y-43475357D01*
X53436126Y-43471776D01*
X53477902Y-43442163D01*
X53494807Y-43423057D01*
X53505583Y-43401953D01*
X53511595Y-43371896D01*
X53514210Y-43325931D01*
X53514793Y-43257104D01*
X53514793Y-43103314D01*
X54176095Y-43103314D01*
X54176095Y-43261125D01*
X54176770Y-43333828D01*
X54179480Y-43382919D01*
X54185255Y-43414828D01*
X54195123Y-43435986D01*
X54206154Y-43448994D01*
X54248573Y-43475357D01*
X54292813Y-43471776D01*
X54292813Y-43471776D01*
G37*
X54292813Y-43471776D02*
X54334589Y-43442163D01*
X54371479Y-43405272D01*
X54371479Y-42993302D01*
X54371383Y-42870978D01*
X54370926Y-42775066D01*
X54369857Y-42701920D01*
X54367925Y-42647894D01*
X54364877Y-42609341D01*
X54360463Y-42582616D01*
X54354430Y-42564070D01*
X54346528Y-42550059D01*
X54340329Y-42541731D01*
X54299415Y-42509015D01*
X54252436Y-42505464D01*
X54209498Y-42525527D01*
X54195310Y-42537372D01*
X54185826Y-42553106D01*
X54180105Y-42578442D01*
X54177207Y-42619094D01*
X54176192Y-42680776D01*
X54176095Y-42728426D01*
X54176095Y-42907929D01*
X53514793Y-42907929D01*
X53514793Y-42744631D01*
X53514109Y-42669959D01*
X53511373Y-42618640D01*
X53505558Y-42583987D01*
X53495638Y-42559309D01*
X53483643Y-42541731D01*
X53442500Y-42509107D01*
X53395971Y-42505244D01*
X53351427Y-42528432D01*
X53339266Y-42540588D01*
X53330677Y-42556703D01*
X53325012Y-42581804D01*
X53321623Y-42620920D01*
X53319862Y-42679078D01*
X53319082Y-42761306D01*
X53318990Y-42780178D01*
X53318346Y-42935107D01*
X53318014Y-43062790D01*
X53318122Y-43166037D01*
X53318799Y-43247661D01*
X53320172Y-43310472D01*
X53322370Y-43357283D01*
X53325520Y-43390905D01*
X53329752Y-43414149D01*
X53335192Y-43429828D01*
X53341969Y-43440753D01*
X53349468Y-43448994D01*
X53391887Y-43475357D01*
X53436126Y-43471776D01*
X53477902Y-43442163D01*
X53494807Y-43423057D01*
X53505583Y-43401953D01*
X53511595Y-43371896D01*
X53514210Y-43325931D01*
X53514793Y-43257104D01*
X53514793Y-43103314D01*
X54176095Y-43103314D01*
X54176095Y-43261125D01*
X54176770Y-43333828D01*
X54179480Y-43382919D01*
X54185255Y-43414828D01*
X54195123Y-43435986D01*
X54206154Y-43448994D01*
X54248573Y-43475357D01*
X54292813Y-43471776D01*
G36*
X42077278Y-49842976D02*
X42091744Y-49691281D01*
X42133837Y-49547997D01*
X42201607Y-49416193D01*
X42293101Y-49298942D01*
X42406365Y-49199313D01*
X42535490Y-49122271D01*
X42676972Y-49069521D01*
X42819446Y-49044799D01*
X42960104Y-49046316D01*
X43096136Y-49072283D01*
X43224733Y-49120910D01*
X43343086Y-49190407D01*
X43448386Y-49278986D01*
X43537823Y-49384857D01*
X43608588Y-49506230D01*
X43657871Y-49641317D01*
X43682865Y-49788326D01*
X43685444Y-49854756D01*
X43685444Y-49971835D01*
X43754580Y-49971835D01*
X43802919Y-49968047D01*
X43838729Y-49952338D01*
X43874817Y-49920734D01*
X43925917Y-49869633D01*
X43925917Y-46951862D01*
X43925905Y-46602862D01*
X43925862Y-46282668D01*
X43925777Y-45990026D01*
X43925639Y-45723682D01*
X43925438Y-45482383D01*
X43925162Y-45264875D01*
X43924800Y-45069905D01*
X43924342Y-44896220D01*
X43923777Y-44742565D01*
X43923094Y-44607687D01*
X43922283Y-44490332D01*
X43921331Y-44389247D01*
X43920229Y-44303179D01*
X43918965Y-44230873D01*
X43917530Y-44171077D01*
X43915911Y-44122536D01*
X43914098Y-44083997D01*
X43912080Y-44054207D01*
X43909846Y-44031911D01*
X43907386Y-44015857D01*
X43904688Y-44004790D01*
X43901742Y-43997458D01*
X43900301Y-43994995D01*
X43894759Y-43985660D01*
X43890053Y-43977077D01*
X43884955Y-43969216D01*
X43878235Y-43962045D01*
X43868664Y-43955533D01*
X43855014Y-43949647D01*
X43836055Y-43944358D01*
X43810558Y-43939632D01*
X43777295Y-43935440D01*
X43735036Y-43931749D01*
X43682552Y-43928528D01*
X43618614Y-43925746D01*
X43541993Y-43923370D01*
X43451460Y-43921371D01*
X43345786Y-43919716D01*
X43223742Y-43918373D01*
X43084099Y-43917313D01*
X42925628Y-43916502D01*
X42747100Y-43915910D01*
X42547285Y-43915505D01*
X42324955Y-43915256D01*
X42078881Y-43915131D01*
X41807834Y-43915099D01*
X41510584Y-43915129D01*
X41185903Y-43915189D01*
X40832562Y-43915248D01*
X40781459Y-43915254D01*
X40426015Y-43915311D01*
X40099406Y-43915405D01*
X39800408Y-43915545D01*
X39527796Y-43915741D01*
X39280347Y-43916003D01*
X39056836Y-43916340D01*
X38856040Y-43916761D01*
X38676734Y-43917277D01*
X38517693Y-43917896D01*
X38377694Y-43918629D01*
X38255513Y-43919485D01*
X38149925Y-43920474D01*
X38059707Y-43921606D01*
X37983634Y-43922889D01*
X37920481Y-43924334D01*
X37869025Y-43925951D01*
X37828042Y-43927748D01*
X37796308Y-43929735D01*
X37772598Y-43931923D01*
X37755688Y-43934321D01*
X37744354Y-43936937D01*
X37738552Y-43939159D01*
X37727286Y-43943912D01*
X37716942Y-43947422D01*
X37707483Y-43950932D01*
X37698868Y-43955687D01*
X37691058Y-43962931D01*
X37684015Y-43973909D01*
X37677698Y-43989865D01*
X37672069Y-44012045D01*
X37667088Y-44041691D01*
X37662716Y-44080049D01*
X37658914Y-44128363D01*
X37655642Y-44187878D01*
X37652861Y-44259837D01*
X37650533Y-44345487D01*
X37648617Y-44446069D01*
X37647075Y-44562831D01*
X37645866Y-44697015D01*
X37644953Y-44849866D01*
X37644295Y-45022629D01*
X37643854Y-45216548D01*
X37643589Y-45432867D01*
X37643464Y-45672832D01*
X37643436Y-45937686D01*
X37643467Y-46228674D01*
X37643519Y-46547040D01*
X37643551Y-46894030D01*
X37643551Y-46950148D01*
X37643533Y-47300159D01*
X37643499Y-47621364D01*
X37643485Y-47915017D01*
X37643524Y-48182372D01*
X37643649Y-48424683D01*
X37643897Y-48643203D01*
X37644300Y-48839187D01*
X37644893Y-49013887D01*
X37645665Y-49160237D01*
X38048851Y-49160237D01*
X38101826Y-49083225D01*
X38116698Y-49062232D01*
X38130105Y-49043644D01*
X38142124Y-49025880D01*
X38152830Y-49007362D01*
X38162297Y-48986509D01*
X38170603Y-48961743D01*
X38177822Y-48931483D01*
X38184031Y-48894150D01*
X38189304Y-48848165D01*
X38193718Y-48791948D01*
X38197348Y-48723920D01*
X38200270Y-48642500D01*
X38202559Y-48546110D01*
X38204291Y-48433170D01*
X38205542Y-48302101D01*
X38206386Y-48151322D01*
X38206901Y-47979254D01*
X38207161Y-47784319D01*
X38207243Y-47564935D01*
X38207221Y-47319524D01*
X38207172Y-47046506D01*
X38207160Y-46883255D01*
X38207192Y-46594417D01*
X38207237Y-46334057D01*
X38207221Y-46100594D01*
X38207069Y-45892446D01*
X38206706Y-45708031D01*
X38206057Y-45545769D01*
X38205047Y-45404078D01*
X38203601Y-45281376D01*
X38201645Y-45176083D01*
X38199104Y-45086617D01*
X38195903Y-45011397D01*
X38191967Y-44948841D01*
X38187220Y-44897368D01*
X38181590Y-44855397D01*
X38174999Y-44821347D01*
X38167374Y-44793635D01*
X38158640Y-44770682D01*
X38148721Y-44750904D01*
X38137544Y-44732722D01*
X38125033Y-44714554D01*
X38111112Y-44694818D01*
X38103003Y-44682981D01*
X38051382Y-44606272D01*
X38759086Y-44606272D01*
X38923174Y-44606319D01*
X39059633Y-44606519D01*
X39170891Y-44606967D01*
X39259379Y-44607756D01*
X39327524Y-44608980D01*
X39377757Y-44610731D01*
X39412507Y-44613103D01*
X39434202Y-44616190D01*
X39445273Y-44620084D01*
X39448149Y-44624880D01*
X39445259Y-44630670D01*
X39443667Y-44632574D01*
X39410183Y-44681930D01*
X39375704Y-44752227D01*
X39344271Y-44834773D01*
X39333262Y-44869939D01*
X39327116Y-44893825D01*
X39321922Y-44921865D01*
X39317570Y-44956835D01*
X39313952Y-45001511D01*
X39310957Y-45058671D01*
X39308477Y-45131090D01*
X39306402Y-45221545D01*
X39304623Y-45332812D01*
X39303030Y-45467669D01*
X39301514Y-45628891D01*
X39301012Y-45688403D01*
X39299658Y-45855024D01*
X39298648Y-45993974D01*
X39298059Y-46107639D01*
X39297969Y-46198404D01*
X39298456Y-46268656D01*
X39299597Y-46320781D01*
X39301470Y-46357166D01*
X39304153Y-46380196D01*
X39307724Y-46392258D01*
X39312261Y-46395739D01*
X39317841Y-46393024D01*
X39323797Y-46387278D01*
X39337583Y-46370057D01*
X39366950Y-46331349D01*
X39409821Y-46273990D01*
X39464118Y-46200819D01*
X39527763Y-46114674D01*
X39598677Y-46018391D01*
X39674784Y-45914808D01*
X39754005Y-45806763D01*
X39834262Y-45697093D01*
X39913478Y-45588636D01*
X39989574Y-45484230D01*
X40060473Y-45386711D01*
X40124097Y-45298917D01*
X40178367Y-45223686D01*
X40221207Y-45163856D01*
X40250538Y-45122263D01*
X40256620Y-45113433D01*
X40287136Y-45064302D01*
X40322828Y-45000410D01*
X40356643Y-44934458D01*
X40360931Y-44925563D01*
X40389792Y-44861398D01*
X40406548Y-44811390D01*
X40414177Y-44763693D01*
X40415666Y-44707722D01*
X40414822Y-44606272D01*
X41951796Y-44606272D01*
X41830425Y-44731062D01*
X41768121Y-44797490D01*
X41701170Y-44872684D01*
X41639868Y-44944937D01*
X41612675Y-44978690D01*
X41572151Y-45031339D01*
X41518824Y-45102183D01*
X41454253Y-45189053D01*
X41379999Y-45289778D01*
X41297619Y-45402191D01*
X41208674Y-45524121D01*
X41114722Y-45653398D01*
X41017322Y-45787854D01*
X40918035Y-45925319D01*
X40818419Y-46063623D01*
X40720033Y-46200597D01*
X40624436Y-46334071D01*
X40533188Y-46461876D01*
X40447848Y-46581843D01*
X40369975Y-46691801D01*
X40301129Y-46789582D01*
X40242868Y-46873016D01*
X40196751Y-46939934D01*
X40164339Y-46988166D01*
X40147190Y-47015542D01*
X40144850Y-47021004D01*
X40155446Y-47036083D01*
X40183132Y-47072270D01*
X40226091Y-47127299D01*
X40282510Y-47198907D01*
X40350574Y-47284829D01*
X40428467Y-47382802D01*
X40514375Y-47490562D01*
X40606483Y-47605845D01*
X40702977Y-47726386D01*
X40802041Y-47849921D01*
X40881562Y-47948918D01*
X42227574Y-47948918D01*
X42235442Y-47931667D01*
X42254520Y-47902045D01*
X42255914Y-47900072D01*
X42280927Y-47859927D01*
X42307084Y-47810891D01*
X42312275Y-47800059D01*
X42316983Y-47788837D01*
X42321143Y-47775366D01*
X42324797Y-47757790D01*
X42327985Y-47734255D01*
X42330745Y-47702906D01*
X42333119Y-47661888D01*
X42335147Y-47609348D01*
X42336868Y-47543429D01*
X42338324Y-47462277D01*
X42339553Y-47364038D01*
X42340596Y-47246857D01*
X42341494Y-47108879D01*
X42342286Y-46948249D01*
X42343012Y-46763112D01*
X42343713Y-46551614D01*
X42344423Y-46313491D01*
X42345140Y-46067033D01*
X42345718Y-45848771D01*
X42346069Y-45656845D01*
X42346102Y-45489393D01*
X42345728Y-45344551D01*
X42344857Y-45220460D01*
X42343399Y-45115256D01*
X42341264Y-45027078D01*
X42338363Y-44954064D01*
X42334606Y-44894352D01*
X42329903Y-44846080D01*
X42324165Y-44807386D01*
X42317301Y-44776409D01*
X42309222Y-44751286D01*
X42299838Y-44730155D01*
X42289060Y-44711155D01*
X42276797Y-44692424D01*
X42265480Y-44675825D01*
X42242666Y-44640818D01*
X42229157Y-44617407D01*
X42227574Y-44613120D01*
X42242095Y-44611686D01*
X42283625Y-44610354D01*
X42349111Y-44609155D01*
X42435505Y-44608123D01*
X42539754Y-44607288D01*
X42658808Y-44606683D01*
X42789616Y-44606340D01*
X42881361Y-44606272D01*
X43021145Y-44606566D01*
X43150076Y-44607407D01*
X43265242Y-44608737D01*
X43363730Y-44610497D01*
X43442624Y-44612628D01*
X43499012Y-44615072D01*
X43529980Y-44617769D01*
X43535148Y-44619462D01*
X43524900Y-44639303D01*
X43514251Y-44649994D01*
X43496714Y-44672796D01*
X43473763Y-44713071D01*
X43457890Y-44745769D01*
X43422426Y-44824201D01*
X43418332Y-46391036D01*
X43414238Y-47957870D01*
X42820906Y-47957870D01*
X42690677Y-47957651D01*
X42570330Y-47957027D01*
X42463068Y-47956047D01*
X42372093Y-47954757D01*
X42300607Y-47953208D01*
X42251814Y-47951446D01*
X42228915Y-47949521D01*
X42227574Y-47948918D01*
X40881562Y-47948918D01*
X40901860Y-47974187D01*
X41000620Y-48096919D01*
X41096507Y-48215853D01*
X41187704Y-48328726D01*
X41272398Y-48433272D01*
X41348773Y-48527229D01*
X41415016Y-48608332D01*
X41469310Y-48674316D01*
X41492162Y-48701835D01*
X41607048Y-48835851D01*
X41709029Y-48946697D01*
X41800645Y-49036991D01*
X41884434Y-49109349D01*
X41896923Y-49119158D01*
X41949527Y-49159904D01*
X41196136Y-49160070D01*
X40442746Y-49160237D01*
X40449787Y-49096361D01*
X40445390Y-49020016D01*
X40416724Y-48929118D01*
X40363504Y-48822943D01*
X40303183Y-48726708D01*
X40281591Y-48696559D01*
X40244242Y-48646559D01*
X40193363Y-48579558D01*
X40131180Y-48498409D01*
X40059919Y-48405962D01*
X39981808Y-48305067D01*
X39899072Y-48198577D01*
X39813937Y-48089342D01*
X39728631Y-47980213D01*
X39645379Y-47874041D01*
X39566408Y-47773677D01*
X39493945Y-47681973D01*
X39430215Y-47601779D01*
X39377445Y-47535946D01*
X39337862Y-47487326D01*
X39313691Y-47458770D01*
X39309619Y-47454379D01*
X39305812Y-47465038D01*
X39302865Y-47505370D01*
X39300783Y-47575000D01*
X39299571Y-47673553D01*
X39299234Y-47800656D01*
X39299777Y-47955932D01*
X39300987Y-48115681D01*
X39302747Y-48291569D01*
X39304777Y-48440333D01*
X39307407Y-48564908D01*
X39310969Y-48668229D01*
X39315794Y-48753231D01*
X39322213Y-48822848D01*
X39330556Y-48880016D01*
X39341156Y-48927669D01*
X39354343Y-48968743D01*
X39370448Y-49006173D01*
X39389803Y-49042893D01*
X39409350Y-49076229D01*
X39459937Y-49160237D01*
X38048851Y-49160237D01*
X37645665Y-49160237D01*
X37645709Y-49168558D01*
X37646782Y-49304453D01*
X37648147Y-49422826D01*
X37649838Y-49524931D01*
X37651888Y-49612021D01*
X37654332Y-49685350D01*
X37657204Y-49746171D01*
X37660538Y-49795740D01*
X37664367Y-49835308D01*
X37668726Y-49866130D01*
X37673649Y-49889460D01*
X37679170Y-49906552D01*
X37685322Y-49918658D01*
X37692141Y-49927033D01*
X37699660Y-49932930D01*
X37707913Y-49937604D01*
X37716933Y-49942307D01*
X37724916Y-49947058D01*
X37731883Y-49950488D01*
X37742768Y-49953588D01*
X37759028Y-49956375D01*
X37782121Y-49958866D01*
X37813503Y-49961077D01*
X37854632Y-49963024D01*
X37906966Y-49964724D01*
X37971961Y-49966193D01*
X38051075Y-49967448D01*
X38145764Y-49968506D01*
X38257488Y-49969382D01*
X38387701Y-49970093D01*
X38537863Y-49970655D01*
X38709430Y-49971086D01*
X38903859Y-49971401D01*
X39122608Y-49971617D01*
X39367134Y-49971750D01*
X39638895Y-49971817D01*
X39920004Y-49971835D01*
X42077278Y-49971835D01*
X42077278Y-49842976D01*
X42077278Y-49842976D01*
G37*
X42077278Y-49842976D02*
X42091744Y-49691281D01*
X42133837Y-49547997D01*
X42201607Y-49416193D01*
X42293101Y-49298942D01*
X42406365Y-49199313D01*
X42535490Y-49122271D01*
X42676972Y-49069521D01*
X42819446Y-49044799D01*
X42960104Y-49046316D01*
X43096136Y-49072283D01*
X43224733Y-49120910D01*
X43343086Y-49190407D01*
X43448386Y-49278986D01*
X43537823Y-49384857D01*
X43608588Y-49506230D01*
X43657871Y-49641317D01*
X43682865Y-49788326D01*
X43685444Y-49854756D01*
X43685444Y-49971835D01*
X43754580Y-49971835D01*
X43802919Y-49968047D01*
X43838729Y-49952338D01*
X43874817Y-49920734D01*
X43925917Y-49869633D01*
X43925917Y-46951862D01*
X43925905Y-46602862D01*
X43925862Y-46282668D01*
X43925777Y-45990026D01*
X43925639Y-45723682D01*
X43925438Y-45482383D01*
X43925162Y-45264875D01*
X43924800Y-45069905D01*
X43924342Y-44896220D01*
X43923777Y-44742565D01*
X43923094Y-44607687D01*
X43922283Y-44490332D01*
X43921331Y-44389247D01*
X43920229Y-44303179D01*
X43918965Y-44230873D01*
X43917530Y-44171077D01*
X43915911Y-44122536D01*
X43914098Y-44083997D01*
X43912080Y-44054207D01*
X43909846Y-44031911D01*
X43907386Y-44015857D01*
X43904688Y-44004790D01*
X43901742Y-43997458D01*
X43900301Y-43994995D01*
X43894759Y-43985660D01*
X43890053Y-43977077D01*
X43884955Y-43969216D01*
X43878235Y-43962045D01*
X43868664Y-43955533D01*
X43855014Y-43949647D01*
X43836055Y-43944358D01*
X43810558Y-43939632D01*
X43777295Y-43935440D01*
X43735036Y-43931749D01*
X43682552Y-43928528D01*
X43618614Y-43925746D01*
X43541993Y-43923370D01*
X43451460Y-43921371D01*
X43345786Y-43919716D01*
X43223742Y-43918373D01*
X43084099Y-43917313D01*
X42925628Y-43916502D01*
X42747100Y-43915910D01*
X42547285Y-43915505D01*
X42324955Y-43915256D01*
X42078881Y-43915131D01*
X41807834Y-43915099D01*
X41510584Y-43915129D01*
X41185903Y-43915189D01*
X40832562Y-43915248D01*
X40781459Y-43915254D01*
X40426015Y-43915311D01*
X40099406Y-43915405D01*
X39800408Y-43915545D01*
X39527796Y-43915741D01*
X39280347Y-43916003D01*
X39056836Y-43916340D01*
X38856040Y-43916761D01*
X38676734Y-43917277D01*
X38517693Y-43917896D01*
X38377694Y-43918629D01*
X38255513Y-43919485D01*
X38149925Y-43920474D01*
X38059707Y-43921606D01*
X37983634Y-43922889D01*
X37920481Y-43924334D01*
X37869025Y-43925951D01*
X37828042Y-43927748D01*
X37796308Y-43929735D01*
X37772598Y-43931923D01*
X37755688Y-43934321D01*
X37744354Y-43936937D01*
X37738552Y-43939159D01*
X37727286Y-43943912D01*
X37716942Y-43947422D01*
X37707483Y-43950932D01*
X37698868Y-43955687D01*
X37691058Y-43962931D01*
X37684015Y-43973909D01*
X37677698Y-43989865D01*
X37672069Y-44012045D01*
X37667088Y-44041691D01*
X37662716Y-44080049D01*
X37658914Y-44128363D01*
X37655642Y-44187878D01*
X37652861Y-44259837D01*
X37650533Y-44345487D01*
X37648617Y-44446069D01*
X37647075Y-44562831D01*
X37645866Y-44697015D01*
X37644953Y-44849866D01*
X37644295Y-45022629D01*
X37643854Y-45216548D01*
X37643589Y-45432867D01*
X37643464Y-45672832D01*
X37643436Y-45937686D01*
X37643467Y-46228674D01*
X37643519Y-46547040D01*
X37643551Y-46894030D01*
X37643551Y-46950148D01*
X37643533Y-47300159D01*
X37643499Y-47621364D01*
X37643485Y-47915017D01*
X37643524Y-48182372D01*
X37643649Y-48424683D01*
X37643897Y-48643203D01*
X37644300Y-48839187D01*
X37644893Y-49013887D01*
X37645665Y-49160237D01*
X38048851Y-49160237D01*
X38101826Y-49083225D01*
X38116698Y-49062232D01*
X38130105Y-49043644D01*
X38142124Y-49025880D01*
X38152830Y-49007362D01*
X38162297Y-48986509D01*
X38170603Y-48961743D01*
X38177822Y-48931483D01*
X38184031Y-48894150D01*
X38189304Y-48848165D01*
X38193718Y-48791948D01*
X38197348Y-48723920D01*
X38200270Y-48642500D01*
X38202559Y-48546110D01*
X38204291Y-48433170D01*
X38205542Y-48302101D01*
X38206386Y-48151322D01*
X38206901Y-47979254D01*
X38207161Y-47784319D01*
X38207243Y-47564935D01*
X38207221Y-47319524D01*
X38207172Y-47046506D01*
X38207160Y-46883255D01*
X38207192Y-46594417D01*
X38207237Y-46334057D01*
X38207221Y-46100594D01*
X38207069Y-45892446D01*
X38206706Y-45708031D01*
X38206057Y-45545769D01*
X38205047Y-45404078D01*
X38203601Y-45281376D01*
X38201645Y-45176083D01*
X38199104Y-45086617D01*
X38195903Y-45011397D01*
X38191967Y-44948841D01*
X38187220Y-44897368D01*
X38181590Y-44855397D01*
X38174999Y-44821347D01*
X38167374Y-44793635D01*
X38158640Y-44770682D01*
X38148721Y-44750904D01*
X38137544Y-44732722D01*
X38125033Y-44714554D01*
X38111112Y-44694818D01*
X38103003Y-44682981D01*
X38051382Y-44606272D01*
X38759086Y-44606272D01*
X38923174Y-44606319D01*
X39059633Y-44606519D01*
X39170891Y-44606967D01*
X39259379Y-44607756D01*
X39327524Y-44608980D01*
X39377757Y-44610731D01*
X39412507Y-44613103D01*
X39434202Y-44616190D01*
X39445273Y-44620084D01*
X39448149Y-44624880D01*
X39445259Y-44630670D01*
X39443667Y-44632574D01*
X39410183Y-44681930D01*
X39375704Y-44752227D01*
X39344271Y-44834773D01*
X39333262Y-44869939D01*
X39327116Y-44893825D01*
X39321922Y-44921865D01*
X39317570Y-44956835D01*
X39313952Y-45001511D01*
X39310957Y-45058671D01*
X39308477Y-45131090D01*
X39306402Y-45221545D01*
X39304623Y-45332812D01*
X39303030Y-45467669D01*
X39301514Y-45628891D01*
X39301012Y-45688403D01*
X39299658Y-45855024D01*
X39298648Y-45993974D01*
X39298059Y-46107639D01*
X39297969Y-46198404D01*
X39298456Y-46268656D01*
X39299597Y-46320781D01*
X39301470Y-46357166D01*
X39304153Y-46380196D01*
X39307724Y-46392258D01*
X39312261Y-46395739D01*
X39317841Y-46393024D01*
X39323797Y-46387278D01*
X39337583Y-46370057D01*
X39366950Y-46331349D01*
X39409821Y-46273990D01*
X39464118Y-46200819D01*
X39527763Y-46114674D01*
X39598677Y-46018391D01*
X39674784Y-45914808D01*
X39754005Y-45806763D01*
X39834262Y-45697093D01*
X39913478Y-45588636D01*
X39989574Y-45484230D01*
X40060473Y-45386711D01*
X40124097Y-45298917D01*
X40178367Y-45223686D01*
X40221207Y-45163856D01*
X40250538Y-45122263D01*
X40256620Y-45113433D01*
X40287136Y-45064302D01*
X40322828Y-45000410D01*
X40356643Y-44934458D01*
X40360931Y-44925563D01*
X40389792Y-44861398D01*
X40406548Y-44811390D01*
X40414177Y-44763693D01*
X40415666Y-44707722D01*
X40414822Y-44606272D01*
X41951796Y-44606272D01*
X41830425Y-44731062D01*
X41768121Y-44797490D01*
X41701170Y-44872684D01*
X41639868Y-44944937D01*
X41612675Y-44978690D01*
X41572151Y-45031339D01*
X41518824Y-45102183D01*
X41454253Y-45189053D01*
X41379999Y-45289778D01*
X41297619Y-45402191D01*
X41208674Y-45524121D01*
X41114722Y-45653398D01*
X41017322Y-45787854D01*
X40918035Y-45925319D01*
X40818419Y-46063623D01*
X40720033Y-46200597D01*
X40624436Y-46334071D01*
X40533188Y-46461876D01*
X40447848Y-46581843D01*
X40369975Y-46691801D01*
X40301129Y-46789582D01*
X40242868Y-46873016D01*
X40196751Y-46939934D01*
X40164339Y-46988166D01*
X40147190Y-47015542D01*
X40144850Y-47021004D01*
X40155446Y-47036083D01*
X40183132Y-47072270D01*
X40226091Y-47127299D01*
X40282510Y-47198907D01*
X40350574Y-47284829D01*
X40428467Y-47382802D01*
X40514375Y-47490562D01*
X40606483Y-47605845D01*
X40702977Y-47726386D01*
X40802041Y-47849921D01*
X40881562Y-47948918D01*
X42227574Y-47948918D01*
X42235442Y-47931667D01*
X42254520Y-47902045D01*
X42255914Y-47900072D01*
X42280927Y-47859927D01*
X42307084Y-47810891D01*
X42312275Y-47800059D01*
X42316983Y-47788837D01*
X42321143Y-47775366D01*
X42324797Y-47757790D01*
X42327985Y-47734255D01*
X42330745Y-47702906D01*
X42333119Y-47661888D01*
X42335147Y-47609348D01*
X42336868Y-47543429D01*
X42338324Y-47462277D01*
X42339553Y-47364038D01*
X42340596Y-47246857D01*
X42341494Y-47108879D01*
X42342286Y-46948249D01*
X42343012Y-46763112D01*
X42343713Y-46551614D01*
X42344423Y-46313491D01*
X42345140Y-46067033D01*
X42345718Y-45848771D01*
X42346069Y-45656845D01*
X42346102Y-45489393D01*
X42345728Y-45344551D01*
X42344857Y-45220460D01*
X42343399Y-45115256D01*
X42341264Y-45027078D01*
X42338363Y-44954064D01*
X42334606Y-44894352D01*
X42329903Y-44846080D01*
X42324165Y-44807386D01*
X42317301Y-44776409D01*
X42309222Y-44751286D01*
X42299838Y-44730155D01*
X42289060Y-44711155D01*
X42276797Y-44692424D01*
X42265480Y-44675825D01*
X42242666Y-44640818D01*
X42229157Y-44617407D01*
X42227574Y-44613120D01*
X42242095Y-44611686D01*
X42283625Y-44610354D01*
X42349111Y-44609155D01*
X42435505Y-44608123D01*
X42539754Y-44607288D01*
X42658808Y-44606683D01*
X42789616Y-44606340D01*
X42881361Y-44606272D01*
X43021145Y-44606566D01*
X43150076Y-44607407D01*
X43265242Y-44608737D01*
X43363730Y-44610497D01*
X43442624Y-44612628D01*
X43499012Y-44615072D01*
X43529980Y-44617769D01*
X43535148Y-44619462D01*
X43524900Y-44639303D01*
X43514251Y-44649994D01*
X43496714Y-44672796D01*
X43473763Y-44713071D01*
X43457890Y-44745769D01*
X43422426Y-44824201D01*
X43418332Y-46391036D01*
X43414238Y-47957870D01*
X42820906Y-47957870D01*
X42690677Y-47957651D01*
X42570330Y-47957027D01*
X42463068Y-47956047D01*
X42372093Y-47954757D01*
X42300607Y-47953208D01*
X42251814Y-47951446D01*
X42228915Y-47949521D01*
X42227574Y-47948918D01*
X40881562Y-47948918D01*
X40901860Y-47974187D01*
X41000620Y-48096919D01*
X41096507Y-48215853D01*
X41187704Y-48328726D01*
X41272398Y-48433272D01*
X41348773Y-48527229D01*
X41415016Y-48608332D01*
X41469310Y-48674316D01*
X41492162Y-48701835D01*
X41607048Y-48835851D01*
X41709029Y-48946697D01*
X41800645Y-49036991D01*
X41884434Y-49109349D01*
X41896923Y-49119158D01*
X41949527Y-49159904D01*
X41196136Y-49160070D01*
X40442746Y-49160237D01*
X40449787Y-49096361D01*
X40445390Y-49020016D01*
X40416724Y-48929118D01*
X40363504Y-48822943D01*
X40303183Y-48726708D01*
X40281591Y-48696559D01*
X40244242Y-48646559D01*
X40193363Y-48579558D01*
X40131180Y-48498409D01*
X40059919Y-48405962D01*
X39981808Y-48305067D01*
X39899072Y-48198577D01*
X39813937Y-48089342D01*
X39728631Y-47980213D01*
X39645379Y-47874041D01*
X39566408Y-47773677D01*
X39493945Y-47681973D01*
X39430215Y-47601779D01*
X39377445Y-47535946D01*
X39337862Y-47487326D01*
X39313691Y-47458770D01*
X39309619Y-47454379D01*
X39305812Y-47465038D01*
X39302865Y-47505370D01*
X39300783Y-47575000D01*
X39299571Y-47673553D01*
X39299234Y-47800656D01*
X39299777Y-47955932D01*
X39300987Y-48115681D01*
X39302747Y-48291569D01*
X39304777Y-48440333D01*
X39307407Y-48564908D01*
X39310969Y-48668229D01*
X39315794Y-48753231D01*
X39322213Y-48822848D01*
X39330556Y-48880016D01*
X39341156Y-48927669D01*
X39354343Y-48968743D01*
X39370448Y-49006173D01*
X39389803Y-49042893D01*
X39409350Y-49076229D01*
X39459937Y-49160237D01*
X38048851Y-49160237D01*
X37645665Y-49160237D01*
X37645709Y-49168558D01*
X37646782Y-49304453D01*
X37648147Y-49422826D01*
X37649838Y-49524931D01*
X37651888Y-49612021D01*
X37654332Y-49685350D01*
X37657204Y-49746171D01*
X37660538Y-49795740D01*
X37664367Y-49835308D01*
X37668726Y-49866130D01*
X37673649Y-49889460D01*
X37679170Y-49906552D01*
X37685322Y-49918658D01*
X37692141Y-49927033D01*
X37699660Y-49932930D01*
X37707913Y-49937604D01*
X37716933Y-49942307D01*
X37724916Y-49947058D01*
X37731883Y-49950488D01*
X37742768Y-49953588D01*
X37759028Y-49956375D01*
X37782121Y-49958866D01*
X37813503Y-49961077D01*
X37854632Y-49963024D01*
X37906966Y-49964724D01*
X37971961Y-49966193D01*
X38051075Y-49967448D01*
X38145764Y-49968506D01*
X38257488Y-49969382D01*
X38387701Y-49970093D01*
X38537863Y-49970655D01*
X38709430Y-49971086D01*
X38903859Y-49971401D01*
X39122608Y-49971617D01*
X39367134Y-49971750D01*
X39638895Y-49971817D01*
X39920004Y-49971835D01*
X42077278Y-49971835D01*
X42077278Y-49842976D01*
G36*
X46437258Y-49230527D02*
X46650464Y-49202337D01*
X46868727Y-49148897D01*
X47094796Y-49069675D01*
X47331418Y-48964144D01*
X47346420Y-48956762D01*
X47423232Y-48919450D01*
X47491860Y-48887395D01*
X47547297Y-48862834D01*
X47584536Y-48848008D01*
X47597278Y-48844616D01*
X47622863Y-48837949D01*
X47629003Y-48832349D01*
X47622208Y-48818459D01*
X47600853Y-48783460D01*
X47567396Y-48731020D01*
X47524294Y-48664806D01*
X47474008Y-48588486D01*
X47418995Y-48505727D01*
X47361714Y-48420199D01*
X47304623Y-48335567D01*
X47250183Y-48255500D01*
X47200850Y-48183666D01*
X47159083Y-48123732D01*
X47127342Y-48079365D01*
X47108085Y-48054235D01*
X47105442Y-48051320D01*
X47091971Y-48057509D01*
X47062227Y-48080377D01*
X47021527Y-48115686D01*
X47000566Y-48134960D01*
X46872104Y-48235186D01*
X46730034Y-48308998D01*
X46576256Y-48355730D01*
X46412672Y-48374716D01*
X46320275Y-48373157D01*
X46158995Y-48350310D01*
X46013587Y-48302538D01*
X45883616Y-48229492D01*
X45768647Y-48130824D01*
X45668246Y-48006185D01*
X45581978Y-47855224D01*
X45532161Y-47739941D01*
X45473778Y-47559276D01*
X45430748Y-47362922D01*
X45402960Y-47155943D01*
X45390305Y-46943402D01*
X45392670Y-46730362D01*
X45409945Y-46521887D01*
X45442019Y-46323039D01*
X45488782Y-46138882D01*
X45550123Y-45974480D01*
X45571800Y-45928876D01*
X45662660Y-45776986D01*
X45769781Y-45648519D01*
X45891588Y-45544522D01*
X46026510Y-45466042D01*
X46172971Y-45414126D01*
X46329400Y-45389821D01*
X46384608Y-45388033D01*
X46546446Y-45402572D01*
X46706791Y-45446263D01*
X46863610Y-45518202D01*
X47014867Y-45617488D01*
X47136564Y-45721768D01*
X47198512Y-45781055D01*
X47439845Y-45385291D01*
X47499886Y-45286554D01*
X47554789Y-45195738D01*
X47602606Y-45116105D01*
X47641391Y-45050920D01*
X47669194Y-45003446D01*
X47684070Y-44976945D01*
X47686003Y-44972825D01*
X47675047Y-44959991D01*
X47640993Y-44936984D01*
X47588145Y-44905985D01*
X47520811Y-44869171D01*
X47443294Y-44828722D01*
X47359902Y-44786818D01*
X47274940Y-44745637D01*
X47192714Y-44707358D01*
X47117529Y-44674162D01*
X47053691Y-44648225D01*
X47022467Y-44637003D01*
X46844377Y-44586658D01*
X46660791Y-44553370D01*
X46464142Y-44536057D01*
X46295341Y-44532957D01*
X46204867Y-44534415D01*
X46117529Y-44537208D01*
X46041068Y-44540991D01*
X45983230Y-44545422D01*
X45964451Y-44547663D01*
X45779372Y-44586053D01*
X45590949Y-44646123D01*
X45407910Y-44724298D01*
X45238987Y-44817000D01*
X45135799Y-44887136D01*
X44966174Y-45031191D01*
X44808670Y-45199698D01*
X44666205Y-45388492D01*
X44541697Y-45593409D01*
X44438062Y-45810285D01*
X44379676Y-45966450D01*
X44312778Y-46210924D01*
X44268179Y-46469936D01*
X44245865Y-46737881D01*
X44245821Y-47009155D01*
X44268034Y-47278153D01*
X44312491Y-47539271D01*
X44379176Y-47786905D01*
X44384257Y-47802334D01*
X44467978Y-48018085D01*
X44570156Y-48215017D01*
X44694258Y-48398701D01*
X44843750Y-48574712D01*
X44902150Y-48634973D01*
X45083404Y-48799984D01*
X45269737Y-48936505D01*
X45464009Y-49046021D01*
X45669079Y-49130019D01*
X45887810Y-49189985D01*
X46015030Y-49213270D01*
X46226363Y-49233995D01*
X46437258Y-49230527D01*
X46437258Y-49230527D01*
G37*
X46437258Y-49230527D02*
X46650464Y-49202337D01*
X46868727Y-49148897D01*
X47094796Y-49069675D01*
X47331418Y-48964144D01*
X47346420Y-48956762D01*
X47423232Y-48919450D01*
X47491860Y-48887395D01*
X47547297Y-48862834D01*
X47584536Y-48848008D01*
X47597278Y-48844616D01*
X47622863Y-48837949D01*
X47629003Y-48832349D01*
X47622208Y-48818459D01*
X47600853Y-48783460D01*
X47567396Y-48731020D01*
X47524294Y-48664806D01*
X47474008Y-48588486D01*
X47418995Y-48505727D01*
X47361714Y-48420199D01*
X47304623Y-48335567D01*
X47250183Y-48255500D01*
X47200850Y-48183666D01*
X47159083Y-48123732D01*
X47127342Y-48079365D01*
X47108085Y-48054235D01*
X47105442Y-48051320D01*
X47091971Y-48057509D01*
X47062227Y-48080377D01*
X47021527Y-48115686D01*
X47000566Y-48134960D01*
X46872104Y-48235186D01*
X46730034Y-48308998D01*
X46576256Y-48355730D01*
X46412672Y-48374716D01*
X46320275Y-48373157D01*
X46158995Y-48350310D01*
X46013587Y-48302538D01*
X45883616Y-48229492D01*
X45768647Y-48130824D01*
X45668246Y-48006185D01*
X45581978Y-47855224D01*
X45532161Y-47739941D01*
X45473778Y-47559276D01*
X45430748Y-47362922D01*
X45402960Y-47155943D01*
X45390305Y-46943402D01*
X45392670Y-46730362D01*
X45409945Y-46521887D01*
X45442019Y-46323039D01*
X45488782Y-46138882D01*
X45550123Y-45974480D01*
X45571800Y-45928876D01*
X45662660Y-45776986D01*
X45769781Y-45648519D01*
X45891588Y-45544522D01*
X46026510Y-45466042D01*
X46172971Y-45414126D01*
X46329400Y-45389821D01*
X46384608Y-45388033D01*
X46546446Y-45402572D01*
X46706791Y-45446263D01*
X46863610Y-45518202D01*
X47014867Y-45617488D01*
X47136564Y-45721768D01*
X47198512Y-45781055D01*
X47439845Y-45385291D01*
X47499886Y-45286554D01*
X47554789Y-45195738D01*
X47602606Y-45116105D01*
X47641391Y-45050920D01*
X47669194Y-45003446D01*
X47684070Y-44976945D01*
X47686003Y-44972825D01*
X47675047Y-44959991D01*
X47640993Y-44936984D01*
X47588145Y-44905985D01*
X47520811Y-44869171D01*
X47443294Y-44828722D01*
X47359902Y-44786818D01*
X47274940Y-44745637D01*
X47192714Y-44707358D01*
X47117529Y-44674162D01*
X47053691Y-44648225D01*
X47022467Y-44637003D01*
X46844377Y-44586658D01*
X46660791Y-44553370D01*
X46464142Y-44536057D01*
X46295341Y-44532957D01*
X46204867Y-44534415D01*
X46117529Y-44537208D01*
X46041068Y-44540991D01*
X45983230Y-44545422D01*
X45964451Y-44547663D01*
X45779372Y-44586053D01*
X45590949Y-44646123D01*
X45407910Y-44724298D01*
X45238987Y-44817000D01*
X45135799Y-44887136D01*
X44966174Y-45031191D01*
X44808670Y-45199698D01*
X44666205Y-45388492D01*
X44541697Y-45593409D01*
X44438062Y-45810285D01*
X44379676Y-45966450D01*
X44312778Y-46210924D01*
X44268179Y-46469936D01*
X44245865Y-46737881D01*
X44245821Y-47009155D01*
X44268034Y-47278153D01*
X44312491Y-47539271D01*
X44379176Y-47786905D01*
X44384257Y-47802334D01*
X44467978Y-48018085D01*
X44570156Y-48215017D01*
X44694258Y-48398701D01*
X44843750Y-48574712D01*
X44902150Y-48634973D01*
X45083404Y-48799984D01*
X45269737Y-48936505D01*
X45464009Y-49046021D01*
X45669079Y-49130019D01*
X45887810Y-49189985D01*
X46015030Y-49213270D01*
X46226363Y-49233995D01*
X46437258Y-49230527D01*
G36*
X49559492Y-48009029D02*
X49761750Y-47982382D01*
X49941836Y-47937602D01*
X50100911Y-47874331D01*
X50240138Y-47792213D01*
X50343465Y-47707591D01*
X50435116Y-47608892D01*
X50506666Y-47502687D01*
X50563786Y-47379908D01*
X50584388Y-47322567D01*
X50601508Y-47270669D01*
X50616422Y-47222545D01*
X50629302Y-47175754D01*
X50640320Y-47127856D01*
X50649650Y-47076413D01*
X50657463Y-47018984D01*
X50663932Y-46953130D01*
X50669230Y-46876411D01*
X50673530Y-46786388D01*
X50677003Y-46680620D01*
X50679823Y-46556669D01*
X50682162Y-46412094D01*
X50684193Y-46244456D01*
X50686088Y-46051315D01*
X50687755Y-45861243D01*
X50689521Y-45653297D01*
X50691126Y-45473203D01*
X50692737Y-45318756D01*
X50694520Y-45187751D01*
X50696643Y-45077983D01*
X50699272Y-44987247D01*
X50702576Y-44913338D01*
X50706719Y-44854050D01*
X50711870Y-44807178D01*
X50718196Y-44770517D01*
X50725863Y-44741863D01*
X50735038Y-44719010D01*
X50745888Y-44699752D01*
X50758581Y-44681885D01*
X50773283Y-44663204D01*
X50779009Y-44655971D01*
X50800070Y-44625564D01*
X50809438Y-44604858D01*
X50809468Y-44604246D01*
X50794986Y-44601318D01*
X50753733Y-44598622D01*
X50688997Y-44596231D01*
X50604064Y-44594222D01*
X50502223Y-44592671D01*
X50386760Y-44591654D01*
X50260964Y-44591247D01*
X50246443Y-44591243D01*
X49683419Y-44591243D01*
X49679076Y-44719142D01*
X49674734Y-44847042D01*
X49592071Y-44779159D01*
X49462490Y-44689274D01*
X49316172Y-44616459D01*
X49201056Y-44576213D01*
X49109098Y-44556658D01*
X48998126Y-44543353D01*
X48878615Y-44536715D01*
X48761037Y-44537157D01*
X48655867Y-44545095D01*
X48607633Y-44552702D01*
X48421218Y-44603110D01*
X48252900Y-44676126D01*
X48103896Y-44770663D01*
X47975424Y-44885635D01*
X47868699Y-45019954D01*
X47784940Y-45172533D01*
X47725860Y-45340406D01*
X47709438Y-45415739D01*
X47699307Y-45498549D01*
X47694476Y-45598185D01*
X47693817Y-45643314D01*
X47693904Y-45647554D01*
X48705656Y-45647554D01*
X48718029Y-45547633D01*
X48755556Y-45462657D01*
X48820085Y-45388583D01*
X48826818Y-45382708D01*
X48891115Y-45336341D01*
X48959958Y-45306276D01*
X49040814Y-45290405D01*
X49141149Y-45286620D01*
X49165257Y-45287160D01*
X49236909Y-45290691D01*
X49290203Y-45297902D01*
X49336823Y-45311434D01*
X49388452Y-45333928D01*
X49402620Y-45340822D01*
X49483368Y-45388522D01*
X49545701Y-45445281D01*
X49562659Y-45465569D01*
X49622130Y-45540806D01*
X49622130Y-45801587D01*
X49621417Y-45906294D01*
X49619167Y-45983448D01*
X49615215Y-46035522D01*
X49609396Y-46064991D01*
X49603958Y-46073600D01*
X49582755Y-46077812D01*
X49537778Y-46081303D01*
X49475305Y-46083744D01*
X49401619Y-46084806D01*
X49389786Y-46084826D01*
X49228990Y-46077831D01*
X49092299Y-46056307D01*
X48977065Y-46019431D01*
X48880641Y-45966380D01*
X48807509Y-45903873D01*
X48748201Y-45826805D01*
X48715285Y-45742865D01*
X48705656Y-45647554D01*
X47693904Y-45647554D01*
X47696391Y-45768136D01*
X47707501Y-45873179D01*
X47729129Y-45968002D01*
X47763261Y-46062163D01*
X47795209Y-46131889D01*
X47873252Y-46258764D01*
X47977227Y-46375958D01*
X48103970Y-46481338D01*
X48250318Y-46572772D01*
X48413106Y-46648126D01*
X48589171Y-46705268D01*
X48675266Y-46725158D01*
X48856574Y-46754587D01*
X49054208Y-46774003D01*
X49255850Y-46782498D01*
X49424346Y-46780325D01*
X49639875Y-46771300D01*
X49629997Y-46849822D01*
X49604311Y-46981830D01*
X49562861Y-47089298D01*
X49504501Y-47173048D01*
X49428083Y-47233905D01*
X49332461Y-47272692D01*
X49216490Y-47290234D01*
X49079021Y-47287353D01*
X49028462Y-47282026D01*
X48840486Y-47248518D01*
X48658338Y-47193887D01*
X48532485Y-47143294D01*
X48472361Y-47117499D01*
X48421194Y-47096769D01*
X48386111Y-47083929D01*
X48375875Y-47081203D01*
X48362902Y-47093290D01*
X48340643Y-47131858D01*
X48308890Y-47197345D01*
X48267432Y-47290184D01*
X48216061Y-47410813D01*
X48207277Y-47431835D01*
X48167261Y-47528115D01*
X48131341Y-47615115D01*
X48101069Y-47689031D01*
X48077996Y-47746059D01*
X48063674Y-47782393D01*
X48059538Y-47794161D01*
X48072850Y-47800491D01*
X48107833Y-47807517D01*
X48145474Y-47812415D01*
X48185623Y-47818748D01*
X48249246Y-47831323D01*
X48330697Y-47848908D01*
X48424336Y-47870270D01*
X48524520Y-47894175D01*
X48562545Y-47903525D01*
X48702419Y-47937592D01*
X48819131Y-47964302D01*
X48918435Y-47984509D01*
X49006085Y-47999066D01*
X49087836Y-48008827D01*
X49169441Y-48014644D01*
X49256656Y-48017370D01*
X49333898Y-48017900D01*
X49559492Y-48009029D01*
X49559492Y-48009029D01*
G37*
X49559492Y-48009029D02*
X49761750Y-47982382D01*
X49941836Y-47937602D01*
X50100911Y-47874331D01*
X50240138Y-47792213D01*
X50343465Y-47707591D01*
X50435116Y-47608892D01*
X50506666Y-47502687D01*
X50563786Y-47379908D01*
X50584388Y-47322567D01*
X50601508Y-47270669D01*
X50616422Y-47222545D01*
X50629302Y-47175754D01*
X50640320Y-47127856D01*
X50649650Y-47076413D01*
X50657463Y-47018984D01*
X50663932Y-46953130D01*
X50669230Y-46876411D01*
X50673530Y-46786388D01*
X50677003Y-46680620D01*
X50679823Y-46556669D01*
X50682162Y-46412094D01*
X50684193Y-46244456D01*
X50686088Y-46051315D01*
X50687755Y-45861243D01*
X50689521Y-45653297D01*
X50691126Y-45473203D01*
X50692737Y-45318756D01*
X50694520Y-45187751D01*
X50696643Y-45077983D01*
X50699272Y-44987247D01*
X50702576Y-44913338D01*
X50706719Y-44854050D01*
X50711870Y-44807178D01*
X50718196Y-44770517D01*
X50725863Y-44741863D01*
X50735038Y-44719010D01*
X50745888Y-44699752D01*
X50758581Y-44681885D01*
X50773283Y-44663204D01*
X50779009Y-44655971D01*
X50800070Y-44625564D01*
X50809438Y-44604858D01*
X50809468Y-44604246D01*
X50794986Y-44601318D01*
X50753733Y-44598622D01*
X50688997Y-44596231D01*
X50604064Y-44594222D01*
X50502223Y-44592671D01*
X50386760Y-44591654D01*
X50260964Y-44591247D01*
X50246443Y-44591243D01*
X49683419Y-44591243D01*
X49679076Y-44719142D01*
X49674734Y-44847042D01*
X49592071Y-44779159D01*
X49462490Y-44689274D01*
X49316172Y-44616459D01*
X49201056Y-44576213D01*
X49109098Y-44556658D01*
X48998126Y-44543353D01*
X48878615Y-44536715D01*
X48761037Y-44537157D01*
X48655867Y-44545095D01*
X48607633Y-44552702D01*
X48421218Y-44603110D01*
X48252900Y-44676126D01*
X48103896Y-44770663D01*
X47975424Y-44885635D01*
X47868699Y-45019954D01*
X47784940Y-45172533D01*
X47725860Y-45340406D01*
X47709438Y-45415739D01*
X47699307Y-45498549D01*
X47694476Y-45598185D01*
X47693817Y-45643314D01*
X47693904Y-45647554D01*
X48705656Y-45647554D01*
X48718029Y-45547633D01*
X48755556Y-45462657D01*
X48820085Y-45388583D01*
X48826818Y-45382708D01*
X48891115Y-45336341D01*
X48959958Y-45306276D01*
X49040814Y-45290405D01*
X49141149Y-45286620D01*
X49165257Y-45287160D01*
X49236909Y-45290691D01*
X49290203Y-45297902D01*
X49336823Y-45311434D01*
X49388452Y-45333928D01*
X49402620Y-45340822D01*
X49483368Y-45388522D01*
X49545701Y-45445281D01*
X49562659Y-45465569D01*
X49622130Y-45540806D01*
X49622130Y-45801587D01*
X49621417Y-45906294D01*
X49619167Y-45983448D01*
X49615215Y-46035522D01*
X49609396Y-46064991D01*
X49603958Y-46073600D01*
X49582755Y-46077812D01*
X49537778Y-46081303D01*
X49475305Y-46083744D01*
X49401619Y-46084806D01*
X49389786Y-46084826D01*
X49228990Y-46077831D01*
X49092299Y-46056307D01*
X48977065Y-46019431D01*
X48880641Y-45966380D01*
X48807509Y-45903873D01*
X48748201Y-45826805D01*
X48715285Y-45742865D01*
X48705656Y-45647554D01*
X47693904Y-45647554D01*
X47696391Y-45768136D01*
X47707501Y-45873179D01*
X47729129Y-45968002D01*
X47763261Y-46062163D01*
X47795209Y-46131889D01*
X47873252Y-46258764D01*
X47977227Y-46375958D01*
X48103970Y-46481338D01*
X48250318Y-46572772D01*
X48413106Y-46648126D01*
X48589171Y-46705268D01*
X48675266Y-46725158D01*
X48856574Y-46754587D01*
X49054208Y-46774003D01*
X49255850Y-46782498D01*
X49424346Y-46780325D01*
X49639875Y-46771300D01*
X49629997Y-46849822D01*
X49604311Y-46981830D01*
X49562861Y-47089298D01*
X49504501Y-47173048D01*
X49428083Y-47233905D01*
X49332461Y-47272692D01*
X49216490Y-47290234D01*
X49079021Y-47287353D01*
X49028462Y-47282026D01*
X48840486Y-47248518D01*
X48658338Y-47193887D01*
X48532485Y-47143294D01*
X48472361Y-47117499D01*
X48421194Y-47096769D01*
X48386111Y-47083929D01*
X48375875Y-47081203D01*
X48362902Y-47093290D01*
X48340643Y-47131858D01*
X48308890Y-47197345D01*
X48267432Y-47290184D01*
X48216061Y-47410813D01*
X48207277Y-47431835D01*
X48167261Y-47528115D01*
X48131341Y-47615115D01*
X48101069Y-47689031D01*
X48077996Y-47746059D01*
X48063674Y-47782393D01*
X48059538Y-47794161D01*
X48072850Y-47800491D01*
X48107833Y-47807517D01*
X48145474Y-47812415D01*
X48185623Y-47818748D01*
X48249246Y-47831323D01*
X48330697Y-47848908D01*
X48424336Y-47870270D01*
X48524520Y-47894175D01*
X48562545Y-47903525D01*
X48702419Y-47937592D01*
X48819131Y-47964302D01*
X48918435Y-47984509D01*
X49006085Y-47999066D01*
X49087836Y-48008827D01*
X49169441Y-48014644D01*
X49256656Y-48017370D01*
X49333898Y-48017900D01*
X49559492Y-48009029D01*
G36*
X54236474Y-47202633D02*
X54236500Y-46890539D01*
X54236535Y-46607038D01*
X54236631Y-46350664D01*
X54236841Y-46119952D01*
X54237216Y-45913435D01*
X54237809Y-45729649D01*
X54238670Y-45567126D01*
X54239853Y-45424402D01*
X54241408Y-45300010D01*
X54243389Y-45192485D01*
X54245846Y-45100360D01*
X54248833Y-45022170D01*
X54252400Y-44956449D01*
X54256599Y-44901731D01*
X54261484Y-44856551D01*
X54267104Y-44819442D01*
X54273513Y-44788938D01*
X54280763Y-44763574D01*
X54288905Y-44741885D01*
X54297990Y-44722403D01*
X54308073Y-44703663D01*
X54319203Y-44684200D01*
X54326117Y-44672076D01*
X54371736Y-44591243D01*
X53229231Y-44591243D01*
X53229231Y-44718994D01*
X53228257Y-44776727D01*
X53225658Y-44820881D01*
X53221918Y-44844554D01*
X53220265Y-44846746D01*
X53205058Y-44837581D01*
X53174817Y-44813825D01*
X53144595Y-44788031D01*
X53071924Y-44733799D01*
X52979423Y-44679208D01*
X52876839Y-44629275D01*
X52773919Y-44589013D01*
X52732843Y-44576167D01*
X52641649Y-44556775D01*
X52531343Y-44543513D01*
X52412329Y-44536798D01*
X52295005Y-44537047D01*
X52189773Y-44544676D01*
X52139586Y-44552408D01*
X51955730Y-44603082D01*
X51786245Y-44679933D01*
X51632046Y-44782263D01*
X51494044Y-44909372D01*
X51373151Y-45060560D01*
X51284214Y-45208073D01*
X51211165Y-45363517D01*
X51155248Y-45522414D01*
X51115311Y-45690157D01*
X51090207Y-45872139D01*
X51078786Y-46073755D01*
X51077819Y-46176864D01*
X51080607Y-46252455D01*
X52184460Y-46252455D01*
X52184737Y-46128548D01*
X52188615Y-46011801D01*
X52196154Y-45909180D01*
X52207411Y-45827651D01*
X52210851Y-45811221D01*
X52253189Y-45668388D01*
X52308652Y-45552527D01*
X52377703Y-45463346D01*
X52460804Y-45400556D01*
X52558418Y-45363863D01*
X52671010Y-45352979D01*
X52799041Y-45367610D01*
X52883551Y-45388542D01*
X52948978Y-45412759D01*
X53021043Y-45447172D01*
X53075178Y-45478728D01*
X53169113Y-45540460D01*
X53169113Y-47071780D01*
X53079369Y-47129784D01*
X52974823Y-47184267D01*
X52862742Y-47219749D01*
X52749411Y-47235624D01*
X52641117Y-47231288D01*
X52544145Y-47206135D01*
X52501603Y-47185407D01*
X52424485Y-47128162D01*
X52359305Y-47052578D01*
X52304513Y-46955892D01*
X52258561Y-46835342D01*
X52219897Y-46688167D01*
X52218191Y-46680355D01*
X52204650Y-46597473D01*
X52194476Y-46493884D01*
X52187726Y-46376556D01*
X52184460Y-46252455D01*
X51080607Y-46252455D01*
X51088272Y-46460199D01*
X51117488Y-46720927D01*
X51165396Y-46958877D01*
X51231928Y-47173876D01*
X51317015Y-47365750D01*
X51420587Y-47534326D01*
X51542575Y-47679432D01*
X51682911Y-47800895D01*
X51743041Y-47842102D01*
X51877441Y-47916855D01*
X52014957Y-47969591D01*
X52161524Y-48001757D01*
X52323073Y-48014797D01*
X52446231Y-48013405D01*
X52618848Y-47998805D01*
X52768751Y-47969761D01*
X52900278Y-47924937D01*
X53017765Y-47863000D01*
X53082823Y-47817451D01*
X53121920Y-47788275D01*
X53150798Y-47768344D01*
X53161728Y-47762485D01*
X53163878Y-47776903D01*
X53165596Y-47817713D01*
X53166900Y-47881253D01*
X53167805Y-47963860D01*
X53168328Y-48061870D01*
X53168487Y-48171621D01*
X53168298Y-48289449D01*
X53167778Y-48411693D01*
X53166944Y-48534687D01*
X53165812Y-48654770D01*
X53164399Y-48768279D01*
X53162723Y-48871550D01*
X53160800Y-48960920D01*
X53158646Y-49032727D01*
X53156280Y-49083307D01*
X53155625Y-49092604D01*
X53145537Y-49186353D01*
X53130145Y-49259776D01*
X53106528Y-49322511D01*
X53071767Y-49384198D01*
X53063423Y-49396953D01*
X53030895Y-49445799D01*
X54236213Y-49445799D01*
X54236474Y-47202633D01*
X54236474Y-47202633D01*
G37*
X54236474Y-47202633D02*
X54236500Y-46890539D01*
X54236535Y-46607038D01*
X54236631Y-46350664D01*
X54236841Y-46119952D01*
X54237216Y-45913435D01*
X54237809Y-45729649D01*
X54238670Y-45567126D01*
X54239853Y-45424402D01*
X54241408Y-45300010D01*
X54243389Y-45192485D01*
X54245846Y-45100360D01*
X54248833Y-45022170D01*
X54252400Y-44956449D01*
X54256599Y-44901731D01*
X54261484Y-44856551D01*
X54267104Y-44819442D01*
X54273513Y-44788938D01*
X54280763Y-44763574D01*
X54288905Y-44741885D01*
X54297990Y-44722403D01*
X54308073Y-44703663D01*
X54319203Y-44684200D01*
X54326117Y-44672076D01*
X54371736Y-44591243D01*
X53229231Y-44591243D01*
X53229231Y-44718994D01*
X53228257Y-44776727D01*
X53225658Y-44820881D01*
X53221918Y-44844554D01*
X53220265Y-44846746D01*
X53205058Y-44837581D01*
X53174817Y-44813825D01*
X53144595Y-44788031D01*
X53071924Y-44733799D01*
X52979423Y-44679208D01*
X52876839Y-44629275D01*
X52773919Y-44589013D01*
X52732843Y-44576167D01*
X52641649Y-44556775D01*
X52531343Y-44543513D01*
X52412329Y-44536798D01*
X52295005Y-44537047D01*
X52189773Y-44544676D01*
X52139586Y-44552408D01*
X51955730Y-44603082D01*
X51786245Y-44679933D01*
X51632046Y-44782263D01*
X51494044Y-44909372D01*
X51373151Y-45060560D01*
X51284214Y-45208073D01*
X51211165Y-45363517D01*
X51155248Y-45522414D01*
X51115311Y-45690157D01*
X51090207Y-45872139D01*
X51078786Y-46073755D01*
X51077819Y-46176864D01*
X51080607Y-46252455D01*
X52184460Y-46252455D01*
X52184737Y-46128548D01*
X52188615Y-46011801D01*
X52196154Y-45909180D01*
X52207411Y-45827651D01*
X52210851Y-45811221D01*
X52253189Y-45668388D01*
X52308652Y-45552527D01*
X52377703Y-45463346D01*
X52460804Y-45400556D01*
X52558418Y-45363863D01*
X52671010Y-45352979D01*
X52799041Y-45367610D01*
X52883551Y-45388542D01*
X52948978Y-45412759D01*
X53021043Y-45447172D01*
X53075178Y-45478728D01*
X53169113Y-45540460D01*
X53169113Y-47071780D01*
X53079369Y-47129784D01*
X52974823Y-47184267D01*
X52862742Y-47219749D01*
X52749411Y-47235624D01*
X52641117Y-47231288D01*
X52544145Y-47206135D01*
X52501603Y-47185407D01*
X52424485Y-47128162D01*
X52359305Y-47052578D01*
X52304513Y-46955892D01*
X52258561Y-46835342D01*
X52219897Y-46688167D01*
X52218191Y-46680355D01*
X52204650Y-46597473D01*
X52194476Y-46493884D01*
X52187726Y-46376556D01*
X52184460Y-46252455D01*
X51080607Y-46252455D01*
X51088272Y-46460199D01*
X51117488Y-46720927D01*
X51165396Y-46958877D01*
X51231928Y-47173876D01*
X51317015Y-47365750D01*
X51420587Y-47534326D01*
X51542575Y-47679432D01*
X51682911Y-47800895D01*
X51743041Y-47842102D01*
X51877441Y-47916855D01*
X52014957Y-47969591D01*
X52161524Y-48001757D01*
X52323073Y-48014797D01*
X52446231Y-48013405D01*
X52618848Y-47998805D01*
X52768751Y-47969761D01*
X52900278Y-47924937D01*
X53017765Y-47863000D01*
X53082823Y-47817451D01*
X53121920Y-47788275D01*
X53150798Y-47768344D01*
X53161728Y-47762485D01*
X53163878Y-47776903D01*
X53165596Y-47817713D01*
X53166900Y-47881253D01*
X53167805Y-47963860D01*
X53168328Y-48061870D01*
X53168487Y-48171621D01*
X53168298Y-48289449D01*
X53167778Y-48411693D01*
X53166944Y-48534687D01*
X53165812Y-48654770D01*
X53164399Y-48768279D01*
X53162723Y-48871550D01*
X53160800Y-48960920D01*
X53158646Y-49032727D01*
X53156280Y-49083307D01*
X53155625Y-49092604D01*
X53145537Y-49186353D01*
X53130145Y-49259776D01*
X53106528Y-49322511D01*
X53071767Y-49384198D01*
X53063423Y-49396953D01*
X53030895Y-49445799D01*
X54236213Y-49445799D01*
X54236474Y-47202633D01*
G36*
X42973760Y-50458707D02*
X43101937Y-50426438D01*
X43217211Y-50369413D01*
X43316811Y-50289828D01*
X43397965Y-50189875D01*
X43457902Y-50071749D01*
X43492866Y-49943525D01*
X43500656Y-49814031D01*
X43480880Y-49689071D01*
X43436012Y-49572101D01*
X43368528Y-49466578D01*
X43280902Y-49375958D01*
X43175607Y-49303697D01*
X43055118Y-49253252D01*
X42986865Y-49236712D01*
X42927622Y-49226698D01*
X42881954Y-49222741D01*
X42838072Y-49225170D01*
X42784186Y-49234316D01*
X42740123Y-49243602D01*
X42615752Y-49285553D01*
X42504353Y-49353617D01*
X42408435Y-49445731D01*
X42330504Y-49559830D01*
X42311933Y-49596095D01*
X42290049Y-49644513D01*
X42276325Y-49685172D01*
X42268915Y-49727951D01*
X42265973Y-49782728D01*
X42265603Y-49844083D01*
X42271043Y-49956394D01*
X42288904Y-50048629D01*
X42322441Y-50129342D01*
X42374910Y-50207086D01*
X42426231Y-50266018D01*
X42521946Y-50353645D01*
X42621922Y-50414132D01*
X42732093Y-50450347D01*
X42835451Y-50464027D01*
X42973760Y-50458707D01*
X42973760Y-50458707D01*
G37*
X42973760Y-50458707D02*
X43101937Y-50426438D01*
X43217211Y-50369413D01*
X43316811Y-50289828D01*
X43397965Y-50189875D01*
X43457902Y-50071749D01*
X43492866Y-49943525D01*
X43500656Y-49814031D01*
X43480880Y-49689071D01*
X43436012Y-49572101D01*
X43368528Y-49466578D01*
X43280902Y-49375958D01*
X43175607Y-49303697D01*
X43055118Y-49253252D01*
X42986865Y-49236712D01*
X42927622Y-49226698D01*
X42881954Y-49222741D01*
X42838072Y-49225170D01*
X42784186Y-49234316D01*
X42740123Y-49243602D01*
X42615752Y-49285553D01*
X42504353Y-49353617D01*
X42408435Y-49445731D01*
X42330504Y-49559830D01*
X42311933Y-49596095D01*
X42290049Y-49644513D01*
X42276325Y-49685172D01*
X42268915Y-49727951D01*
X42265973Y-49782728D01*
X42265603Y-49844083D01*
X42271043Y-49956394D01*
X42288904Y-50048629D01*
X42322441Y-50129342D01*
X42374910Y-50207086D01*
X42426231Y-50266018D01*
X42521946Y-50353645D01*
X42621922Y-50414132D01*
X42732093Y-50450347D01*
X42835451Y-50464027D01*
X42973760Y-50458707D01*
M02*
