G04 #@! TF.FileFunction,Copper,L2,Bot,Signal*
%FSLAX46Y46*%
G04 Gerber Fmt 4.6, Leading zero omitted, Abs format (unit mm)*
G04 Created by KiCad (PCBNEW 4.0.6) date 07/08/18 16:23:34*
%MOMM*%
%LPD*%
G01*
G04 APERTURE LIST*
%ADD10C,0.100000*%
%ADD11C,1.500000*%
%ADD12C,1.600000*%
%ADD13C,0.812800*%
%ADD14C,0.406400*%
%ADD15C,0.254000*%
G04 APERTURE END LIST*
D10*
G36*
X42295210Y-33715198D02*
X43355870Y-34775858D01*
X42295210Y-35836518D01*
X41234550Y-34775858D01*
X42295210Y-33715198D01*
X42295210Y-33715198D01*
G37*
D11*
X37458600Y-43148002D03*
X36638356Y-40432712D03*
X43115454Y-37491148D03*
X39339504Y-41267098D03*
X41227479Y-39379123D03*
X38533402Y-38537666D03*
X40407235Y-36663833D03*
D10*
G36*
X37437386Y-25350124D02*
X38993021Y-26905759D01*
X37932360Y-27966420D01*
X36376725Y-26410785D01*
X37437386Y-25350124D01*
X37437386Y-25350124D01*
G37*
G36*
X26830785Y-35956725D02*
X28386420Y-37512360D01*
X27325759Y-38573021D01*
X25770124Y-37017386D01*
X26830785Y-35956725D01*
X26830785Y-35956725D01*
G37*
G36*
X34195198Y-51634790D02*
X35255858Y-50574130D01*
X36316518Y-51634790D01*
X35255858Y-52695450D01*
X34195198Y-51634790D01*
X34195198Y-51634790D01*
G37*
D11*
X43628002Y-56471400D03*
X40912712Y-57291644D03*
X37971148Y-50814546D03*
X41747098Y-54590496D03*
X39859123Y-52702521D03*
X39017666Y-55396598D03*
X37143833Y-53522765D03*
D10*
G36*
X25830124Y-56492614D02*
X27385759Y-54936979D01*
X28446420Y-55997640D01*
X26890785Y-57553275D01*
X25830124Y-56492614D01*
X25830124Y-56492614D01*
G37*
G36*
X36436725Y-67099215D02*
X37992360Y-65543580D01*
X39053021Y-66604241D01*
X37497386Y-68159876D01*
X36436725Y-67099215D01*
X36436725Y-67099215D01*
G37*
G36*
X60364802Y-41815210D02*
X59304142Y-42875870D01*
X58243482Y-41815210D01*
X59304142Y-40754550D01*
X60364802Y-41815210D01*
X60364802Y-41815210D01*
G37*
D11*
X50931998Y-36978600D03*
X53647288Y-36158356D03*
X56588852Y-42635454D03*
X52812902Y-38859504D03*
X54700877Y-40747479D03*
X55542334Y-38053402D03*
X57416167Y-39927235D03*
D10*
G36*
X68729876Y-36957386D02*
X67174241Y-38513021D01*
X66113580Y-37452360D01*
X67669215Y-35896725D01*
X68729876Y-36957386D01*
X68729876Y-36957386D01*
G37*
G36*
X58123275Y-26350785D02*
X56567640Y-27906420D01*
X55506979Y-26845759D01*
X57062614Y-25290124D01*
X58123275Y-26350785D01*
X58123275Y-26350785D01*
G37*
D12*
X42690000Y-45040000D03*
X44457767Y-43272233D03*
X49500000Y-50750000D03*
X51267767Y-48982233D03*
D10*
G36*
X52264790Y-59864802D02*
X51204130Y-58804142D01*
X52264790Y-57743482D01*
X53325450Y-58804142D01*
X52264790Y-59864802D01*
X52264790Y-59864802D01*
G37*
D11*
X57101400Y-50431998D03*
X57921644Y-53147288D03*
X51444546Y-56088852D03*
X55220496Y-52312902D03*
X53332521Y-54200877D03*
X56026598Y-55042334D03*
X54152765Y-56916167D03*
D10*
G36*
X57122614Y-68229876D02*
X55566979Y-66674241D01*
X56627640Y-65613580D01*
X58183275Y-67169215D01*
X57122614Y-68229876D01*
X57122614Y-68229876D01*
G37*
G36*
X67729215Y-57623275D02*
X66173580Y-56067640D01*
X67234241Y-55006979D01*
X68789876Y-56562614D01*
X67729215Y-57623275D01*
X67729215Y-57623275D01*
G37*
D13*
X43870000Y-39790000D03*
X43870000Y-41240000D03*
X52410000Y-51780000D03*
X52410000Y-50450000D03*
D14*
X43870000Y-39790000D02*
X43870000Y-39760000D01*
X43870000Y-39760000D02*
X43870000Y-39880000D01*
X43870000Y-39880000D02*
X43870000Y-39760000D01*
X54810000Y-33920000D02*
X50270000Y-33920000D01*
X60440000Y-39550000D02*
X54810000Y-33920000D01*
X60440000Y-39840000D02*
X60440000Y-39550000D01*
X59304142Y-40975858D02*
X60440000Y-39840000D01*
X43503402Y-39760000D02*
X40407235Y-36663833D01*
X44430000Y-39760000D02*
X43870000Y-39760000D01*
X43870000Y-39760000D02*
X43503402Y-39760000D01*
X50270000Y-33920000D02*
X44430000Y-39760000D01*
X59304142Y-41815210D02*
X59304142Y-40975858D01*
X43870000Y-41240000D02*
X43870000Y-41267098D01*
X43870000Y-41267098D02*
X43922902Y-41267098D01*
X54480000Y-34620000D02*
X50570000Y-34620000D01*
X50570000Y-34620000D02*
X43922902Y-41267098D01*
X56588852Y-42611148D02*
X59520000Y-39680000D01*
X59520000Y-39660000D02*
X54480000Y-34620000D01*
X59520000Y-39680000D02*
X59520000Y-39660000D01*
X43922902Y-41267098D02*
X39339504Y-41267098D01*
X41692902Y-41267098D02*
X39339504Y-41267098D01*
X41630000Y-41270000D02*
X41632902Y-41267098D01*
X41632902Y-41267098D02*
X41692902Y-41267098D01*
X56588852Y-42635454D02*
X56588852Y-42611148D01*
X52410000Y-51780000D02*
X52410000Y-53120000D01*
X51550000Y-54133402D02*
X54302765Y-56886167D01*
X51550000Y-53980000D02*
X51550000Y-54133402D01*
X52410000Y-53120000D02*
X51550000Y-53980000D01*
X44095000Y-59015000D02*
X44785000Y-59015000D01*
X52020000Y-51780000D02*
X52410000Y-51780000D01*
X44785000Y-59015000D02*
X52020000Y-51780000D01*
X52410000Y-51780000D02*
X52410000Y-51750000D01*
X37143833Y-53522765D02*
X37143833Y-57136167D01*
X42360000Y-60750000D02*
X44095000Y-59015000D01*
X44095000Y-59015000D02*
X44100000Y-59010000D01*
X40757666Y-60750000D02*
X42360000Y-60750000D01*
X37143833Y-57136167D02*
X40757666Y-60750000D01*
X42690000Y-45040000D02*
X37410000Y-45040000D01*
X35960000Y-41111068D02*
X36638356Y-40432712D01*
X35960000Y-43590000D02*
X35960000Y-41111068D01*
X37410000Y-45040000D02*
X35960000Y-43590000D01*
X54700877Y-40747479D02*
X53802521Y-40747479D01*
X53802521Y-40747479D02*
X50510000Y-44040000D01*
X50510000Y-44040000D02*
X45930000Y-44040000D01*
X45930000Y-44040000D02*
X44930000Y-45040000D01*
X44930000Y-45040000D02*
X42690000Y-45040000D01*
X37458600Y-43148002D02*
X44333536Y-43148002D01*
X44333536Y-43148002D02*
X44457767Y-43272233D01*
X55542334Y-38053402D02*
X55496598Y-38053402D01*
X55496598Y-38053402D02*
X50277767Y-43272233D01*
X50277767Y-43272233D02*
X44457767Y-43272233D01*
X52410000Y-50450000D02*
X53537594Y-50450000D01*
X53537594Y-50450000D02*
X55370496Y-52282902D01*
X43785000Y-58395000D02*
X44465000Y-58395000D01*
X44465000Y-58395000D02*
X52410000Y-50450000D01*
X41747098Y-54592902D02*
X38960000Y-57380000D01*
X42080000Y-60100000D02*
X43785000Y-58395000D01*
X43785000Y-58395000D02*
X43850000Y-58330000D01*
X41070000Y-60100000D02*
X42080000Y-60100000D01*
X38960000Y-57990000D02*
X41070000Y-60100000D01*
X38960000Y-57380000D02*
X38960000Y-57990000D01*
X41747098Y-54590496D02*
X41747098Y-54592902D01*
X48250000Y-50440000D02*
X49190000Y-50440000D01*
X49190000Y-50440000D02*
X49500000Y-50750000D01*
X48390000Y-50440000D02*
X48250000Y-50440000D01*
X48250000Y-50440000D02*
X47764356Y-50440000D01*
X47764356Y-50440000D02*
X40912712Y-57291644D01*
X40912712Y-57291644D02*
X40912712Y-57217288D01*
X40912712Y-57291644D02*
X40912712Y-57277288D01*
X40912712Y-57291644D02*
X40912712Y-57287288D01*
X51267767Y-48982233D02*
X55651635Y-48982233D01*
X55651635Y-48982233D02*
X57101400Y-50431998D01*
X43628002Y-56471400D02*
X45526492Y-56471400D01*
X51267767Y-50730125D02*
X51267767Y-48982233D01*
X45526492Y-56471400D02*
X51267767Y-50730125D01*
X43628002Y-56471400D02*
X43838600Y-56471400D01*
D15*
G36*
X42099497Y-30595579D02*
X42168512Y-30680111D01*
X42229145Y-30770855D01*
X42258746Y-30790634D01*
X42281261Y-30818211D01*
X42377375Y-30869899D01*
X42468115Y-30930530D01*
X42503032Y-30937475D01*
X42534386Y-30954337D01*
X42642965Y-30965309D01*
X42750000Y-30986600D01*
X51750000Y-30986600D01*
X51857032Y-30965310D01*
X51965613Y-30954337D01*
X51996967Y-30937476D01*
X52031885Y-30930530D01*
X52122626Y-30869898D01*
X52218739Y-30818211D01*
X52241254Y-30790634D01*
X52270855Y-30770855D01*
X52331486Y-30680114D01*
X52400503Y-30595580D01*
X52451245Y-30500065D01*
X53475119Y-30500065D01*
X53837448Y-31376969D01*
X54507774Y-32048466D01*
X55384045Y-32412325D01*
X56332857Y-32413153D01*
X57209761Y-32050824D01*
X57881258Y-31380498D01*
X58245117Y-30504227D01*
X58245945Y-29555415D01*
X57883616Y-28678511D01*
X57289114Y-28082970D01*
X57592414Y-27779671D01*
X57592414Y-27555164D01*
X56815127Y-26777877D01*
X56800985Y-26792020D01*
X56621380Y-26612415D01*
X56635522Y-26598272D01*
X56994732Y-26598272D01*
X57772019Y-27375559D01*
X57996526Y-27375559D01*
X58482973Y-26889111D01*
X58661602Y-26710483D01*
X58758275Y-26477094D01*
X58758274Y-26224475D01*
X58661601Y-25991086D01*
X58244013Y-25573497D01*
X58019507Y-25573497D01*
X56994732Y-26598272D01*
X56635522Y-26598272D01*
X55858235Y-25820985D01*
X55633728Y-25820985D01*
X55147281Y-26307433D01*
X54968652Y-26486061D01*
X54871979Y-26719450D01*
X54871980Y-26972069D01*
X54968653Y-27205458D01*
X55386241Y-27623047D01*
X55610744Y-27623047D01*
X55591287Y-27642504D01*
X55388207Y-27642327D01*
X54511303Y-28004656D01*
X53839806Y-28674982D01*
X53475947Y-29551253D01*
X53475119Y-30500065D01*
X52451245Y-30500065D01*
X55151691Y-25416873D01*
X56037840Y-25416873D01*
X56037840Y-25641380D01*
X56815127Y-26418667D01*
X57839902Y-25393892D01*
X57839902Y-25169386D01*
X57422313Y-24751798D01*
X57188924Y-24655125D01*
X56936305Y-24655124D01*
X56702916Y-24751797D01*
X56524288Y-24930426D01*
X56037840Y-25416873D01*
X55151691Y-25416873D01*
X56442774Y-22986600D01*
X59944890Y-22986600D01*
X71263400Y-34305110D01*
X71263400Y-37788885D01*
X62928177Y-41837422D01*
X62830769Y-41911242D01*
X62729145Y-41979145D01*
X62716811Y-41997604D01*
X62699116Y-42011014D01*
X62637371Y-42116494D01*
X62569470Y-42218115D01*
X62565139Y-42239890D01*
X62553923Y-42259050D01*
X62537243Y-42380132D01*
X62513400Y-42500000D01*
X62513400Y-46303471D01*
X62373046Y-51496569D01*
X62381714Y-51546231D01*
X62409019Y-51588609D01*
X62444513Y-51614238D01*
X62698230Y-51737472D01*
X62699116Y-51738986D01*
X62716811Y-51752396D01*
X62729145Y-51770855D01*
X62830769Y-51838758D01*
X62928177Y-51912578D01*
X71263400Y-55961115D01*
X71263400Y-59444890D01*
X59944890Y-70763400D01*
X56443493Y-70763400D01*
X54916257Y-67878620D01*
X56097840Y-67878620D01*
X56097840Y-68103127D01*
X56584288Y-68589574D01*
X56762916Y-68768203D01*
X56996305Y-68864876D01*
X57248924Y-68864875D01*
X57482313Y-68768202D01*
X57899902Y-68350614D01*
X57899902Y-68126108D01*
X56875127Y-67101333D01*
X56097840Y-67878620D01*
X54916257Y-67878620D01*
X52844121Y-63964585D01*
X53535119Y-63964585D01*
X53897448Y-64841489D01*
X54567774Y-65512986D01*
X55444045Y-65876845D01*
X55650816Y-65877025D01*
X55670744Y-65896953D01*
X55446241Y-65896953D01*
X55028653Y-66314542D01*
X54931980Y-66547931D01*
X54931979Y-66800550D01*
X55028652Y-67033939D01*
X55207281Y-67212567D01*
X55693728Y-67699015D01*
X55918235Y-67699015D01*
X56695522Y-66921728D01*
X57054732Y-66921728D01*
X58079507Y-67946503D01*
X58304013Y-67946503D01*
X58721601Y-67528914D01*
X58818274Y-67295525D01*
X58818275Y-67042906D01*
X58721602Y-66809517D01*
X58542973Y-66630889D01*
X58056526Y-66144441D01*
X57832019Y-66144441D01*
X57054732Y-66921728D01*
X56695522Y-66921728D01*
X56681380Y-66907586D01*
X56860985Y-66727981D01*
X56875127Y-66742123D01*
X57652414Y-65964836D01*
X57652414Y-65740329D01*
X57348663Y-65436579D01*
X57941258Y-64845018D01*
X58305117Y-63968747D01*
X58305945Y-63019935D01*
X57943616Y-62143031D01*
X57273290Y-61471534D01*
X56397019Y-61107675D01*
X55448207Y-61106847D01*
X54571303Y-61469176D01*
X53899806Y-62139502D01*
X53535947Y-63015773D01*
X53535119Y-63964585D01*
X52844121Y-63964585D01*
X52150998Y-62655354D01*
X52081775Y-62570318D01*
X52020855Y-62479145D01*
X51991695Y-62459661D01*
X51969554Y-62432462D01*
X51873056Y-62380389D01*
X51781885Y-62319470D01*
X51747488Y-62312628D01*
X51716624Y-62295973D01*
X51607541Y-62284791D01*
X51500000Y-62263400D01*
X42750000Y-62263400D01*
X42625767Y-62288111D01*
X42500499Y-62306942D01*
X42485400Y-62316032D01*
X42468115Y-62319470D01*
X42362792Y-62389845D01*
X42254269Y-62455178D01*
X42243798Y-62469354D01*
X42229145Y-62479145D01*
X42158772Y-62584466D01*
X42083510Y-62686358D01*
X38282550Y-70763400D01*
X34805110Y-70763400D01*
X32097818Y-68056108D01*
X36720098Y-68056108D01*
X36720098Y-68280614D01*
X37137687Y-68698202D01*
X37371076Y-68794875D01*
X37623695Y-68794876D01*
X37857084Y-68698203D01*
X38035712Y-68519574D01*
X38522160Y-68033127D01*
X38522160Y-67808620D01*
X37744873Y-67031333D01*
X36720098Y-68056108D01*
X32097818Y-68056108D01*
X31014616Y-66972906D01*
X35801725Y-66972906D01*
X35801726Y-67225525D01*
X35898399Y-67458914D01*
X36315987Y-67876503D01*
X36540493Y-67876503D01*
X37565268Y-66851728D01*
X36787981Y-66074441D01*
X36563474Y-66074441D01*
X36077027Y-66560889D01*
X35898398Y-66739517D01*
X35801725Y-66972906D01*
X31014616Y-66972906D01*
X27936295Y-63894585D01*
X36314055Y-63894585D01*
X36676384Y-64771489D01*
X37270886Y-65367030D01*
X36967586Y-65670329D01*
X36967586Y-65894836D01*
X37744873Y-66672123D01*
X37759016Y-66657981D01*
X37938621Y-66837586D01*
X37924478Y-66851728D01*
X38701765Y-67629015D01*
X38926272Y-67629015D01*
X39412719Y-67142567D01*
X39591348Y-66963939D01*
X39688021Y-66730550D01*
X39688020Y-66477931D01*
X39591347Y-66244542D01*
X39173759Y-65826953D01*
X38949256Y-65826953D01*
X38968713Y-65807496D01*
X39171793Y-65807673D01*
X40048697Y-65445344D01*
X40720194Y-64775018D01*
X41084053Y-63898747D01*
X41084881Y-62949935D01*
X40722552Y-62073031D01*
X40052226Y-61401534D01*
X39175955Y-61037675D01*
X38227143Y-61036847D01*
X37350239Y-61399176D01*
X36678742Y-62069502D01*
X36314883Y-62945773D01*
X36314055Y-63894585D01*
X27936295Y-63894585D01*
X23486600Y-59444890D01*
X23486600Y-57449507D01*
X26113497Y-57449507D01*
X26113497Y-57674013D01*
X26531086Y-58091601D01*
X26764475Y-58188274D01*
X27017094Y-58188275D01*
X27250483Y-58091602D01*
X27429111Y-57912973D01*
X27915559Y-57426526D01*
X27915559Y-57202019D01*
X27138272Y-56424732D01*
X26113497Y-57449507D01*
X23486600Y-57449507D01*
X23486600Y-56366305D01*
X25195124Y-56366305D01*
X25195125Y-56618924D01*
X25291798Y-56852313D01*
X25709386Y-57269902D01*
X25933892Y-57269902D01*
X26958667Y-56245127D01*
X26181380Y-55467840D01*
X25956873Y-55467840D01*
X25470426Y-55954288D01*
X25291797Y-56132916D01*
X25195124Y-56366305D01*
X23486600Y-56366305D01*
X23486600Y-55932182D01*
X25040675Y-55063728D01*
X26360985Y-55063728D01*
X26360985Y-55288235D01*
X27138272Y-56065522D01*
X27152415Y-56051380D01*
X27332020Y-56230985D01*
X27317877Y-56245127D01*
X28095164Y-57022414D01*
X28319671Y-57022414D01*
X28623421Y-56718663D01*
X29214982Y-57311258D01*
X30091253Y-57675117D01*
X31040065Y-57675945D01*
X31916969Y-57313616D01*
X32588466Y-56643290D01*
X32952325Y-55767019D01*
X32953153Y-54818207D01*
X32590824Y-53941303D01*
X31920498Y-53269806D01*
X31044227Y-52905947D01*
X30095415Y-52905119D01*
X29218511Y-53267448D01*
X28547014Y-53937774D01*
X28183155Y-54814045D01*
X28182975Y-55020816D01*
X28163047Y-55040744D01*
X28163047Y-54816241D01*
X27745458Y-54398653D01*
X27512069Y-54301980D01*
X27259450Y-54301979D01*
X27026061Y-54398652D01*
X26847433Y-54577281D01*
X26360985Y-55063728D01*
X25040675Y-55063728D01*
X31192675Y-51625846D01*
X33547820Y-51625846D01*
X33595344Y-51878417D01*
X33737389Y-52092599D01*
X34798049Y-53153259D01*
X34995752Y-53288344D01*
X35246914Y-53342828D01*
X35499485Y-53295304D01*
X35713667Y-53153259D01*
X35857217Y-53009709D01*
X35759074Y-53246063D01*
X35758593Y-53797050D01*
X35969002Y-54306280D01*
X36305633Y-54643498D01*
X36305633Y-57136167D01*
X36369437Y-57456933D01*
X36551136Y-57728864D01*
X40164969Y-61342697D01*
X40436901Y-61524396D01*
X40757666Y-61588200D01*
X42360000Y-61588200D01*
X42680766Y-61524396D01*
X42952697Y-61342697D01*
X44442194Y-59853200D01*
X44785000Y-59853200D01*
X45105766Y-59789396D01*
X45377697Y-59607697D01*
X50735059Y-54250335D01*
X50775604Y-54454168D01*
X50957303Y-54726099D01*
X51003656Y-54772452D01*
X50661031Y-54914021D01*
X50271085Y-55303288D01*
X50059787Y-55812150D01*
X50059306Y-56363137D01*
X50269715Y-56872367D01*
X50658982Y-57262313D01*
X51167844Y-57473611D01*
X51618649Y-57474005D01*
X50746321Y-58346333D01*
X50611236Y-58544036D01*
X50556752Y-58795198D01*
X50604276Y-59047769D01*
X50746321Y-59261951D01*
X51806981Y-60322611D01*
X52004684Y-60457696D01*
X52255846Y-60512180D01*
X52508417Y-60464656D01*
X52722599Y-60322611D01*
X53783259Y-59261951D01*
X53918344Y-59064248D01*
X53972828Y-58813086D01*
X53925304Y-58560515D01*
X53783259Y-58346333D01*
X53639709Y-58202783D01*
X53876063Y-58300926D01*
X54427050Y-58301407D01*
X54936280Y-58090998D01*
X55326226Y-57701731D01*
X55537524Y-57192869D01*
X55538005Y-56641882D01*
X55386992Y-56276402D01*
X55749896Y-56427093D01*
X56300883Y-56427574D01*
X56810113Y-56217165D01*
X57195091Y-55832857D01*
X61666847Y-55832857D01*
X62029176Y-56709761D01*
X62699502Y-57381258D01*
X63575773Y-57745117D01*
X64524585Y-57745945D01*
X65401489Y-57383616D01*
X65513281Y-57272019D01*
X66704441Y-57272019D01*
X66704441Y-57496526D01*
X67190889Y-57982973D01*
X67369517Y-58161602D01*
X67602906Y-58258275D01*
X67855525Y-58258274D01*
X68088914Y-58161601D01*
X68506503Y-57744013D01*
X68506503Y-57519507D01*
X67481728Y-56494732D01*
X66704441Y-57272019D01*
X65513281Y-57272019D01*
X65997030Y-56789114D01*
X66300329Y-57092414D01*
X66524836Y-57092414D01*
X67302123Y-56315127D01*
X67661333Y-56315127D01*
X68686108Y-57339902D01*
X68910614Y-57339902D01*
X69328202Y-56922313D01*
X69424875Y-56688924D01*
X69424876Y-56436305D01*
X69328203Y-56202916D01*
X69149574Y-56024288D01*
X68663127Y-55537840D01*
X68438620Y-55537840D01*
X67661333Y-56315127D01*
X67302123Y-56315127D01*
X67287981Y-56300985D01*
X67467586Y-56121380D01*
X67481728Y-56135522D01*
X68259015Y-55358235D01*
X68259015Y-55133728D01*
X67772567Y-54647281D01*
X67593939Y-54468652D01*
X67360550Y-54371979D01*
X67107931Y-54371980D01*
X66874542Y-54468653D01*
X66456953Y-54886241D01*
X66456953Y-55110744D01*
X66437496Y-55091287D01*
X66437673Y-54888207D01*
X66075344Y-54011303D01*
X65405018Y-53339806D01*
X64528747Y-52975947D01*
X63579935Y-52975119D01*
X62703031Y-53337448D01*
X62031534Y-54007774D01*
X61667675Y-54884045D01*
X61666847Y-55832857D01*
X57195091Y-55832857D01*
X57200059Y-55827898D01*
X57411357Y-55319036D01*
X57411838Y-54768049D01*
X57245852Y-54366330D01*
X57644942Y-54532047D01*
X58195929Y-54532528D01*
X58705159Y-54322119D01*
X59095105Y-53932852D01*
X59306403Y-53423990D01*
X59306884Y-52873003D01*
X59096475Y-52363773D01*
X58707208Y-51973827D01*
X58198346Y-51762529D01*
X57647359Y-51762048D01*
X57138129Y-51972457D01*
X56748183Y-52361724D01*
X56536885Y-52870586D01*
X56536404Y-53421573D01*
X56702390Y-53823292D01*
X56303300Y-53657575D01*
X55752313Y-53657094D01*
X55243083Y-53867503D01*
X54853137Y-54256770D01*
X54641839Y-54765632D01*
X54641358Y-55316619D01*
X54792371Y-55682099D01*
X54429467Y-55531408D01*
X54133141Y-55531149D01*
X54018147Y-55416155D01*
X54116036Y-55375708D01*
X54505982Y-54986441D01*
X54717280Y-54477579D01*
X54717761Y-53926592D01*
X54556766Y-53536953D01*
X54943794Y-53697661D01*
X55494781Y-53698142D01*
X56004011Y-53487733D01*
X56393957Y-53098466D01*
X56605255Y-52589604D01*
X56605736Y-52038617D01*
X56449732Y-51661057D01*
X56824698Y-51816757D01*
X57375685Y-51817238D01*
X57884915Y-51606829D01*
X58274861Y-51217562D01*
X58486159Y-50708700D01*
X58486640Y-50157713D01*
X58276231Y-49648483D01*
X57886964Y-49258537D01*
X57378102Y-49047239D01*
X56901619Y-49046823D01*
X56244332Y-48389536D01*
X55972401Y-48207837D01*
X55651635Y-48144033D01*
X52458656Y-48144033D01*
X52081690Y-47766409D01*
X51554458Y-47547483D01*
X50983580Y-47546985D01*
X50455967Y-47764990D01*
X50051943Y-48168310D01*
X49833017Y-48695542D01*
X49832519Y-49266420D01*
X49866365Y-49348334D01*
X49786691Y-49315250D01*
X49215813Y-49314752D01*
X48688200Y-49532757D01*
X48619036Y-49601800D01*
X47764356Y-49601800D01*
X47443591Y-49665604D01*
X47171659Y-49847303D01*
X43006735Y-54012227D01*
X42921929Y-53806981D01*
X42532662Y-53417035D01*
X42023800Y-53205737D01*
X41472813Y-53205256D01*
X41083174Y-53366251D01*
X41243882Y-52979223D01*
X41244363Y-52428236D01*
X41033954Y-51919006D01*
X40644687Y-51529060D01*
X40135825Y-51317762D01*
X39584838Y-51317281D01*
X39195199Y-51478276D01*
X39355907Y-51091248D01*
X39356388Y-50540261D01*
X39145979Y-50031031D01*
X38756712Y-49641085D01*
X38247850Y-49429787D01*
X37696863Y-49429306D01*
X37187633Y-49639715D01*
X36797687Y-50028982D01*
X36586389Y-50537844D01*
X36585995Y-50988649D01*
X35713667Y-50116321D01*
X35515964Y-49981236D01*
X35264802Y-49926752D01*
X35012231Y-49974276D01*
X34798049Y-50116321D01*
X33737389Y-51176981D01*
X33602304Y-51374684D01*
X33547820Y-51625846D01*
X31192675Y-51625846D01*
X31609329Y-51393010D01*
X31686517Y-51327208D01*
X31770855Y-51270855D01*
X31772906Y-51267786D01*
X32060591Y-51111614D01*
X32099241Y-51079248D01*
X32122254Y-51034394D01*
X32126945Y-50996266D01*
X31986600Y-46224536D01*
X31986600Y-42750000D01*
X31966812Y-42650519D01*
X31958761Y-42549407D01*
X31939005Y-42510721D01*
X31930530Y-42468115D01*
X31874179Y-42383780D01*
X31828047Y-42293445D01*
X31794988Y-42265263D01*
X31770855Y-42229145D01*
X31686517Y-42172792D01*
X31609329Y-42106990D01*
X29827153Y-41111068D01*
X35121800Y-41111068D01*
X35121800Y-43590000D01*
X35185604Y-43910766D01*
X35367303Y-44182697D01*
X36817303Y-45632697D01*
X37089235Y-45814396D01*
X37410000Y-45878200D01*
X41499111Y-45878200D01*
X41876077Y-46255824D01*
X42403309Y-46474750D01*
X42974187Y-46475248D01*
X43501800Y-46257243D01*
X43881505Y-45878200D01*
X44930000Y-45878200D01*
X45250766Y-45814396D01*
X45522697Y-45632697D01*
X46277194Y-44878200D01*
X50510000Y-44878200D01*
X50830766Y-44814396D01*
X51102697Y-44632697D01*
X53864927Y-41870467D01*
X53915313Y-41920940D01*
X54424175Y-42132238D01*
X54975162Y-42132719D01*
X55364801Y-41971724D01*
X55204093Y-42358752D01*
X55203612Y-42909739D01*
X55414021Y-43418969D01*
X55803288Y-43808915D01*
X56312150Y-44020213D01*
X56863137Y-44020694D01*
X57372367Y-43810285D01*
X57762313Y-43421018D01*
X57973611Y-42912156D01*
X57974005Y-42461351D01*
X58846333Y-43333679D01*
X59044036Y-43468764D01*
X59295198Y-43523248D01*
X59547769Y-43475724D01*
X59761951Y-43333679D01*
X60822611Y-42273019D01*
X60957696Y-42075316D01*
X61012180Y-41824154D01*
X60964656Y-41571583D01*
X60822611Y-41357401D01*
X60465302Y-41000092D01*
X61032697Y-40432697D01*
X61214396Y-40160765D01*
X61278200Y-39840000D01*
X61278200Y-39550000D01*
X61214396Y-39229235D01*
X61214396Y-39229234D01*
X61032697Y-38957303D01*
X60707187Y-38631793D01*
X61606847Y-38631793D01*
X61969176Y-39508697D01*
X62639502Y-40180194D01*
X63515773Y-40544053D01*
X64464585Y-40544881D01*
X65341489Y-40182552D01*
X66012986Y-39512226D01*
X66376845Y-38635955D01*
X66377025Y-38429184D01*
X66396953Y-38409256D01*
X66396953Y-38633759D01*
X66814542Y-39051347D01*
X67047931Y-39148020D01*
X67300550Y-39148021D01*
X67533939Y-39051348D01*
X67712567Y-38872719D01*
X68199015Y-38386272D01*
X68199015Y-38161765D01*
X67421728Y-37384478D01*
X67407586Y-37398621D01*
X67227981Y-37219016D01*
X67242123Y-37204873D01*
X67601333Y-37204873D01*
X68378620Y-37982160D01*
X68603127Y-37982160D01*
X69089574Y-37495712D01*
X69268203Y-37317084D01*
X69364876Y-37083695D01*
X69364875Y-36831076D01*
X69268202Y-36597687D01*
X68850614Y-36180098D01*
X68626108Y-36180098D01*
X67601333Y-37204873D01*
X67242123Y-37204873D01*
X66464836Y-36427586D01*
X66240329Y-36427586D01*
X65936579Y-36731337D01*
X65345018Y-36138742D01*
X65067422Y-36023474D01*
X66644441Y-36023474D01*
X66644441Y-36247981D01*
X67421728Y-37025268D01*
X68446503Y-36000493D01*
X68446503Y-35775987D01*
X68028914Y-35358399D01*
X67795525Y-35261726D01*
X67542906Y-35261725D01*
X67309517Y-35358398D01*
X67130889Y-35537027D01*
X66644441Y-36023474D01*
X65067422Y-36023474D01*
X64468747Y-35774883D01*
X63519935Y-35774055D01*
X62643031Y-36136384D01*
X61971534Y-36806710D01*
X61607675Y-37682981D01*
X61606847Y-38631793D01*
X60707187Y-38631793D01*
X55402697Y-33327303D01*
X55130766Y-33145604D01*
X54810000Y-33081800D01*
X50270000Y-33081800D01*
X49949234Y-33145604D01*
X49677303Y-33327303D01*
X44203667Y-38800939D01*
X44078056Y-38748781D01*
X43699371Y-38748451D01*
X43898969Y-38665979D01*
X44288915Y-38276712D01*
X44500213Y-37767850D01*
X44500694Y-37216863D01*
X44290285Y-36707633D01*
X43901018Y-36317687D01*
X43392156Y-36106389D01*
X42941351Y-36105995D01*
X43813679Y-35233667D01*
X43948764Y-35035964D01*
X44003248Y-34784802D01*
X43955724Y-34532231D01*
X43813679Y-34318049D01*
X42753019Y-33257389D01*
X42555316Y-33122304D01*
X42304154Y-33067820D01*
X42051583Y-33115344D01*
X41837401Y-33257389D01*
X40776741Y-34318049D01*
X40641656Y-34515752D01*
X40587172Y-34766914D01*
X40634696Y-35019485D01*
X40776741Y-35233667D01*
X40920291Y-35377217D01*
X40683937Y-35279074D01*
X40132950Y-35278593D01*
X39623720Y-35489002D01*
X39233774Y-35878269D01*
X39022476Y-36387131D01*
X39021995Y-36938118D01*
X39173008Y-37303598D01*
X38810104Y-37152907D01*
X38259117Y-37152426D01*
X37749887Y-37362835D01*
X37359941Y-37752102D01*
X37148643Y-38260964D01*
X37148162Y-38811951D01*
X37314148Y-39213670D01*
X36915058Y-39047953D01*
X36364071Y-39047472D01*
X35854841Y-39257881D01*
X35464895Y-39647148D01*
X35253597Y-40156010D01*
X35253132Y-40689240D01*
X35185604Y-40790302D01*
X35159958Y-40919235D01*
X35121800Y-41111068D01*
X29827153Y-41111068D01*
X26070100Y-39011539D01*
X24727485Y-38221765D01*
X26300985Y-38221765D01*
X26300985Y-38446272D01*
X26787433Y-38932719D01*
X26966061Y-39111348D01*
X27199450Y-39208021D01*
X27452069Y-39208020D01*
X27685458Y-39111347D01*
X28103047Y-38693759D01*
X28103047Y-38469256D01*
X28122504Y-38488713D01*
X28122327Y-38691793D01*
X28484656Y-39568697D01*
X29154982Y-40240194D01*
X30031253Y-40604053D01*
X30980065Y-40604881D01*
X31856969Y-40242552D01*
X32528466Y-39572226D01*
X32892325Y-38695955D01*
X32893153Y-37747143D01*
X32530824Y-36870239D01*
X31860498Y-36198742D01*
X30984227Y-35834883D01*
X30035415Y-35834055D01*
X29158511Y-36196384D01*
X28562970Y-36790886D01*
X28259671Y-36487586D01*
X28035164Y-36487586D01*
X27257877Y-37264873D01*
X27272020Y-37279016D01*
X27092415Y-37458621D01*
X27078272Y-37444478D01*
X26300985Y-38221765D01*
X24727485Y-38221765D01*
X23486600Y-37491833D01*
X23486600Y-37143695D01*
X25135124Y-37143695D01*
X25231797Y-37377084D01*
X25410426Y-37555712D01*
X25896873Y-38042160D01*
X26121380Y-38042160D01*
X26898667Y-37264873D01*
X25873892Y-36240098D01*
X25649386Y-36240098D01*
X25231798Y-36657687D01*
X25135125Y-36891076D01*
X25135124Y-37143695D01*
X23486600Y-37143695D01*
X23486600Y-35835987D01*
X26053497Y-35835987D01*
X26053497Y-36060493D01*
X27078272Y-37085268D01*
X27855559Y-36307981D01*
X27855559Y-36083474D01*
X27369111Y-35597027D01*
X27190483Y-35418398D01*
X26957094Y-35321725D01*
X26704475Y-35321726D01*
X26471086Y-35418399D01*
X26053497Y-35835987D01*
X23486600Y-35835987D01*
X23486600Y-34055110D01*
X26981645Y-30560065D01*
X36254055Y-30560065D01*
X36616384Y-31436969D01*
X37286710Y-32108466D01*
X38162981Y-32472325D01*
X39111793Y-32473153D01*
X39988697Y-32110824D01*
X40660194Y-31440498D01*
X41024053Y-30564227D01*
X41024881Y-29615415D01*
X40662552Y-28738511D01*
X39992226Y-28067014D01*
X39115955Y-27703155D01*
X38909184Y-27702975D01*
X38889256Y-27683047D01*
X39113759Y-27683047D01*
X39531347Y-27265458D01*
X39628020Y-27032069D01*
X39628021Y-26779450D01*
X39531348Y-26546061D01*
X39352719Y-26367433D01*
X38866272Y-25880985D01*
X38641765Y-25880985D01*
X37864478Y-26658272D01*
X37878621Y-26672415D01*
X37699016Y-26852020D01*
X37684873Y-26837877D01*
X36907586Y-27615164D01*
X36907586Y-27839671D01*
X37211337Y-28143421D01*
X36618742Y-28734982D01*
X36254883Y-29611253D01*
X36254055Y-30560065D01*
X26981645Y-30560065D01*
X31004616Y-26537094D01*
X35741725Y-26537094D01*
X35838398Y-26770483D01*
X36017027Y-26949111D01*
X36503474Y-27435559D01*
X36727981Y-27435559D01*
X37505268Y-26658272D01*
X36480493Y-25633497D01*
X36255987Y-25633497D01*
X35838399Y-26051086D01*
X35741726Y-26284475D01*
X35741725Y-26537094D01*
X31004616Y-26537094D01*
X32312324Y-25229386D01*
X36660098Y-25229386D01*
X36660098Y-25453892D01*
X37684873Y-26478667D01*
X38462160Y-25701380D01*
X38462160Y-25476873D01*
X37975712Y-24990426D01*
X37797084Y-24811797D01*
X37563695Y-24715124D01*
X37311076Y-24715125D01*
X37077687Y-24811798D01*
X36660098Y-25229386D01*
X32312324Y-25229386D01*
X34555110Y-22986600D01*
X38057226Y-22986600D01*
X42099497Y-30595579D01*
X42099497Y-30595579D01*
G37*
X42099497Y-30595579D02*
X42168512Y-30680111D01*
X42229145Y-30770855D01*
X42258746Y-30790634D01*
X42281261Y-30818211D01*
X42377375Y-30869899D01*
X42468115Y-30930530D01*
X42503032Y-30937475D01*
X42534386Y-30954337D01*
X42642965Y-30965309D01*
X42750000Y-30986600D01*
X51750000Y-30986600D01*
X51857032Y-30965310D01*
X51965613Y-30954337D01*
X51996967Y-30937476D01*
X52031885Y-30930530D01*
X52122626Y-30869898D01*
X52218739Y-30818211D01*
X52241254Y-30790634D01*
X52270855Y-30770855D01*
X52331486Y-30680114D01*
X52400503Y-30595580D01*
X52451245Y-30500065D01*
X53475119Y-30500065D01*
X53837448Y-31376969D01*
X54507774Y-32048466D01*
X55384045Y-32412325D01*
X56332857Y-32413153D01*
X57209761Y-32050824D01*
X57881258Y-31380498D01*
X58245117Y-30504227D01*
X58245945Y-29555415D01*
X57883616Y-28678511D01*
X57289114Y-28082970D01*
X57592414Y-27779671D01*
X57592414Y-27555164D01*
X56815127Y-26777877D01*
X56800985Y-26792020D01*
X56621380Y-26612415D01*
X56635522Y-26598272D01*
X56994732Y-26598272D01*
X57772019Y-27375559D01*
X57996526Y-27375559D01*
X58482973Y-26889111D01*
X58661602Y-26710483D01*
X58758275Y-26477094D01*
X58758274Y-26224475D01*
X58661601Y-25991086D01*
X58244013Y-25573497D01*
X58019507Y-25573497D01*
X56994732Y-26598272D01*
X56635522Y-26598272D01*
X55858235Y-25820985D01*
X55633728Y-25820985D01*
X55147281Y-26307433D01*
X54968652Y-26486061D01*
X54871979Y-26719450D01*
X54871980Y-26972069D01*
X54968653Y-27205458D01*
X55386241Y-27623047D01*
X55610744Y-27623047D01*
X55591287Y-27642504D01*
X55388207Y-27642327D01*
X54511303Y-28004656D01*
X53839806Y-28674982D01*
X53475947Y-29551253D01*
X53475119Y-30500065D01*
X52451245Y-30500065D01*
X55151691Y-25416873D01*
X56037840Y-25416873D01*
X56037840Y-25641380D01*
X56815127Y-26418667D01*
X57839902Y-25393892D01*
X57839902Y-25169386D01*
X57422313Y-24751798D01*
X57188924Y-24655125D01*
X56936305Y-24655124D01*
X56702916Y-24751797D01*
X56524288Y-24930426D01*
X56037840Y-25416873D01*
X55151691Y-25416873D01*
X56442774Y-22986600D01*
X59944890Y-22986600D01*
X71263400Y-34305110D01*
X71263400Y-37788885D01*
X62928177Y-41837422D01*
X62830769Y-41911242D01*
X62729145Y-41979145D01*
X62716811Y-41997604D01*
X62699116Y-42011014D01*
X62637371Y-42116494D01*
X62569470Y-42218115D01*
X62565139Y-42239890D01*
X62553923Y-42259050D01*
X62537243Y-42380132D01*
X62513400Y-42500000D01*
X62513400Y-46303471D01*
X62373046Y-51496569D01*
X62381714Y-51546231D01*
X62409019Y-51588609D01*
X62444513Y-51614238D01*
X62698230Y-51737472D01*
X62699116Y-51738986D01*
X62716811Y-51752396D01*
X62729145Y-51770855D01*
X62830769Y-51838758D01*
X62928177Y-51912578D01*
X71263400Y-55961115D01*
X71263400Y-59444890D01*
X59944890Y-70763400D01*
X56443493Y-70763400D01*
X54916257Y-67878620D01*
X56097840Y-67878620D01*
X56097840Y-68103127D01*
X56584288Y-68589574D01*
X56762916Y-68768203D01*
X56996305Y-68864876D01*
X57248924Y-68864875D01*
X57482313Y-68768202D01*
X57899902Y-68350614D01*
X57899902Y-68126108D01*
X56875127Y-67101333D01*
X56097840Y-67878620D01*
X54916257Y-67878620D01*
X52844121Y-63964585D01*
X53535119Y-63964585D01*
X53897448Y-64841489D01*
X54567774Y-65512986D01*
X55444045Y-65876845D01*
X55650816Y-65877025D01*
X55670744Y-65896953D01*
X55446241Y-65896953D01*
X55028653Y-66314542D01*
X54931980Y-66547931D01*
X54931979Y-66800550D01*
X55028652Y-67033939D01*
X55207281Y-67212567D01*
X55693728Y-67699015D01*
X55918235Y-67699015D01*
X56695522Y-66921728D01*
X57054732Y-66921728D01*
X58079507Y-67946503D01*
X58304013Y-67946503D01*
X58721601Y-67528914D01*
X58818274Y-67295525D01*
X58818275Y-67042906D01*
X58721602Y-66809517D01*
X58542973Y-66630889D01*
X58056526Y-66144441D01*
X57832019Y-66144441D01*
X57054732Y-66921728D01*
X56695522Y-66921728D01*
X56681380Y-66907586D01*
X56860985Y-66727981D01*
X56875127Y-66742123D01*
X57652414Y-65964836D01*
X57652414Y-65740329D01*
X57348663Y-65436579D01*
X57941258Y-64845018D01*
X58305117Y-63968747D01*
X58305945Y-63019935D01*
X57943616Y-62143031D01*
X57273290Y-61471534D01*
X56397019Y-61107675D01*
X55448207Y-61106847D01*
X54571303Y-61469176D01*
X53899806Y-62139502D01*
X53535947Y-63015773D01*
X53535119Y-63964585D01*
X52844121Y-63964585D01*
X52150998Y-62655354D01*
X52081775Y-62570318D01*
X52020855Y-62479145D01*
X51991695Y-62459661D01*
X51969554Y-62432462D01*
X51873056Y-62380389D01*
X51781885Y-62319470D01*
X51747488Y-62312628D01*
X51716624Y-62295973D01*
X51607541Y-62284791D01*
X51500000Y-62263400D01*
X42750000Y-62263400D01*
X42625767Y-62288111D01*
X42500499Y-62306942D01*
X42485400Y-62316032D01*
X42468115Y-62319470D01*
X42362792Y-62389845D01*
X42254269Y-62455178D01*
X42243798Y-62469354D01*
X42229145Y-62479145D01*
X42158772Y-62584466D01*
X42083510Y-62686358D01*
X38282550Y-70763400D01*
X34805110Y-70763400D01*
X32097818Y-68056108D01*
X36720098Y-68056108D01*
X36720098Y-68280614D01*
X37137687Y-68698202D01*
X37371076Y-68794875D01*
X37623695Y-68794876D01*
X37857084Y-68698203D01*
X38035712Y-68519574D01*
X38522160Y-68033127D01*
X38522160Y-67808620D01*
X37744873Y-67031333D01*
X36720098Y-68056108D01*
X32097818Y-68056108D01*
X31014616Y-66972906D01*
X35801725Y-66972906D01*
X35801726Y-67225525D01*
X35898399Y-67458914D01*
X36315987Y-67876503D01*
X36540493Y-67876503D01*
X37565268Y-66851728D01*
X36787981Y-66074441D01*
X36563474Y-66074441D01*
X36077027Y-66560889D01*
X35898398Y-66739517D01*
X35801725Y-66972906D01*
X31014616Y-66972906D01*
X27936295Y-63894585D01*
X36314055Y-63894585D01*
X36676384Y-64771489D01*
X37270886Y-65367030D01*
X36967586Y-65670329D01*
X36967586Y-65894836D01*
X37744873Y-66672123D01*
X37759016Y-66657981D01*
X37938621Y-66837586D01*
X37924478Y-66851728D01*
X38701765Y-67629015D01*
X38926272Y-67629015D01*
X39412719Y-67142567D01*
X39591348Y-66963939D01*
X39688021Y-66730550D01*
X39688020Y-66477931D01*
X39591347Y-66244542D01*
X39173759Y-65826953D01*
X38949256Y-65826953D01*
X38968713Y-65807496D01*
X39171793Y-65807673D01*
X40048697Y-65445344D01*
X40720194Y-64775018D01*
X41084053Y-63898747D01*
X41084881Y-62949935D01*
X40722552Y-62073031D01*
X40052226Y-61401534D01*
X39175955Y-61037675D01*
X38227143Y-61036847D01*
X37350239Y-61399176D01*
X36678742Y-62069502D01*
X36314883Y-62945773D01*
X36314055Y-63894585D01*
X27936295Y-63894585D01*
X23486600Y-59444890D01*
X23486600Y-57449507D01*
X26113497Y-57449507D01*
X26113497Y-57674013D01*
X26531086Y-58091601D01*
X26764475Y-58188274D01*
X27017094Y-58188275D01*
X27250483Y-58091602D01*
X27429111Y-57912973D01*
X27915559Y-57426526D01*
X27915559Y-57202019D01*
X27138272Y-56424732D01*
X26113497Y-57449507D01*
X23486600Y-57449507D01*
X23486600Y-56366305D01*
X25195124Y-56366305D01*
X25195125Y-56618924D01*
X25291798Y-56852313D01*
X25709386Y-57269902D01*
X25933892Y-57269902D01*
X26958667Y-56245127D01*
X26181380Y-55467840D01*
X25956873Y-55467840D01*
X25470426Y-55954288D01*
X25291797Y-56132916D01*
X25195124Y-56366305D01*
X23486600Y-56366305D01*
X23486600Y-55932182D01*
X25040675Y-55063728D01*
X26360985Y-55063728D01*
X26360985Y-55288235D01*
X27138272Y-56065522D01*
X27152415Y-56051380D01*
X27332020Y-56230985D01*
X27317877Y-56245127D01*
X28095164Y-57022414D01*
X28319671Y-57022414D01*
X28623421Y-56718663D01*
X29214982Y-57311258D01*
X30091253Y-57675117D01*
X31040065Y-57675945D01*
X31916969Y-57313616D01*
X32588466Y-56643290D01*
X32952325Y-55767019D01*
X32953153Y-54818207D01*
X32590824Y-53941303D01*
X31920498Y-53269806D01*
X31044227Y-52905947D01*
X30095415Y-52905119D01*
X29218511Y-53267448D01*
X28547014Y-53937774D01*
X28183155Y-54814045D01*
X28182975Y-55020816D01*
X28163047Y-55040744D01*
X28163047Y-54816241D01*
X27745458Y-54398653D01*
X27512069Y-54301980D01*
X27259450Y-54301979D01*
X27026061Y-54398652D01*
X26847433Y-54577281D01*
X26360985Y-55063728D01*
X25040675Y-55063728D01*
X31192675Y-51625846D01*
X33547820Y-51625846D01*
X33595344Y-51878417D01*
X33737389Y-52092599D01*
X34798049Y-53153259D01*
X34995752Y-53288344D01*
X35246914Y-53342828D01*
X35499485Y-53295304D01*
X35713667Y-53153259D01*
X35857217Y-53009709D01*
X35759074Y-53246063D01*
X35758593Y-53797050D01*
X35969002Y-54306280D01*
X36305633Y-54643498D01*
X36305633Y-57136167D01*
X36369437Y-57456933D01*
X36551136Y-57728864D01*
X40164969Y-61342697D01*
X40436901Y-61524396D01*
X40757666Y-61588200D01*
X42360000Y-61588200D01*
X42680766Y-61524396D01*
X42952697Y-61342697D01*
X44442194Y-59853200D01*
X44785000Y-59853200D01*
X45105766Y-59789396D01*
X45377697Y-59607697D01*
X50735059Y-54250335D01*
X50775604Y-54454168D01*
X50957303Y-54726099D01*
X51003656Y-54772452D01*
X50661031Y-54914021D01*
X50271085Y-55303288D01*
X50059787Y-55812150D01*
X50059306Y-56363137D01*
X50269715Y-56872367D01*
X50658982Y-57262313D01*
X51167844Y-57473611D01*
X51618649Y-57474005D01*
X50746321Y-58346333D01*
X50611236Y-58544036D01*
X50556752Y-58795198D01*
X50604276Y-59047769D01*
X50746321Y-59261951D01*
X51806981Y-60322611D01*
X52004684Y-60457696D01*
X52255846Y-60512180D01*
X52508417Y-60464656D01*
X52722599Y-60322611D01*
X53783259Y-59261951D01*
X53918344Y-59064248D01*
X53972828Y-58813086D01*
X53925304Y-58560515D01*
X53783259Y-58346333D01*
X53639709Y-58202783D01*
X53876063Y-58300926D01*
X54427050Y-58301407D01*
X54936280Y-58090998D01*
X55326226Y-57701731D01*
X55537524Y-57192869D01*
X55538005Y-56641882D01*
X55386992Y-56276402D01*
X55749896Y-56427093D01*
X56300883Y-56427574D01*
X56810113Y-56217165D01*
X57195091Y-55832857D01*
X61666847Y-55832857D01*
X62029176Y-56709761D01*
X62699502Y-57381258D01*
X63575773Y-57745117D01*
X64524585Y-57745945D01*
X65401489Y-57383616D01*
X65513281Y-57272019D01*
X66704441Y-57272019D01*
X66704441Y-57496526D01*
X67190889Y-57982973D01*
X67369517Y-58161602D01*
X67602906Y-58258275D01*
X67855525Y-58258274D01*
X68088914Y-58161601D01*
X68506503Y-57744013D01*
X68506503Y-57519507D01*
X67481728Y-56494732D01*
X66704441Y-57272019D01*
X65513281Y-57272019D01*
X65997030Y-56789114D01*
X66300329Y-57092414D01*
X66524836Y-57092414D01*
X67302123Y-56315127D01*
X67661333Y-56315127D01*
X68686108Y-57339902D01*
X68910614Y-57339902D01*
X69328202Y-56922313D01*
X69424875Y-56688924D01*
X69424876Y-56436305D01*
X69328203Y-56202916D01*
X69149574Y-56024288D01*
X68663127Y-55537840D01*
X68438620Y-55537840D01*
X67661333Y-56315127D01*
X67302123Y-56315127D01*
X67287981Y-56300985D01*
X67467586Y-56121380D01*
X67481728Y-56135522D01*
X68259015Y-55358235D01*
X68259015Y-55133728D01*
X67772567Y-54647281D01*
X67593939Y-54468652D01*
X67360550Y-54371979D01*
X67107931Y-54371980D01*
X66874542Y-54468653D01*
X66456953Y-54886241D01*
X66456953Y-55110744D01*
X66437496Y-55091287D01*
X66437673Y-54888207D01*
X66075344Y-54011303D01*
X65405018Y-53339806D01*
X64528747Y-52975947D01*
X63579935Y-52975119D01*
X62703031Y-53337448D01*
X62031534Y-54007774D01*
X61667675Y-54884045D01*
X61666847Y-55832857D01*
X57195091Y-55832857D01*
X57200059Y-55827898D01*
X57411357Y-55319036D01*
X57411838Y-54768049D01*
X57245852Y-54366330D01*
X57644942Y-54532047D01*
X58195929Y-54532528D01*
X58705159Y-54322119D01*
X59095105Y-53932852D01*
X59306403Y-53423990D01*
X59306884Y-52873003D01*
X59096475Y-52363773D01*
X58707208Y-51973827D01*
X58198346Y-51762529D01*
X57647359Y-51762048D01*
X57138129Y-51972457D01*
X56748183Y-52361724D01*
X56536885Y-52870586D01*
X56536404Y-53421573D01*
X56702390Y-53823292D01*
X56303300Y-53657575D01*
X55752313Y-53657094D01*
X55243083Y-53867503D01*
X54853137Y-54256770D01*
X54641839Y-54765632D01*
X54641358Y-55316619D01*
X54792371Y-55682099D01*
X54429467Y-55531408D01*
X54133141Y-55531149D01*
X54018147Y-55416155D01*
X54116036Y-55375708D01*
X54505982Y-54986441D01*
X54717280Y-54477579D01*
X54717761Y-53926592D01*
X54556766Y-53536953D01*
X54943794Y-53697661D01*
X55494781Y-53698142D01*
X56004011Y-53487733D01*
X56393957Y-53098466D01*
X56605255Y-52589604D01*
X56605736Y-52038617D01*
X56449732Y-51661057D01*
X56824698Y-51816757D01*
X57375685Y-51817238D01*
X57884915Y-51606829D01*
X58274861Y-51217562D01*
X58486159Y-50708700D01*
X58486640Y-50157713D01*
X58276231Y-49648483D01*
X57886964Y-49258537D01*
X57378102Y-49047239D01*
X56901619Y-49046823D01*
X56244332Y-48389536D01*
X55972401Y-48207837D01*
X55651635Y-48144033D01*
X52458656Y-48144033D01*
X52081690Y-47766409D01*
X51554458Y-47547483D01*
X50983580Y-47546985D01*
X50455967Y-47764990D01*
X50051943Y-48168310D01*
X49833017Y-48695542D01*
X49832519Y-49266420D01*
X49866365Y-49348334D01*
X49786691Y-49315250D01*
X49215813Y-49314752D01*
X48688200Y-49532757D01*
X48619036Y-49601800D01*
X47764356Y-49601800D01*
X47443591Y-49665604D01*
X47171659Y-49847303D01*
X43006735Y-54012227D01*
X42921929Y-53806981D01*
X42532662Y-53417035D01*
X42023800Y-53205737D01*
X41472813Y-53205256D01*
X41083174Y-53366251D01*
X41243882Y-52979223D01*
X41244363Y-52428236D01*
X41033954Y-51919006D01*
X40644687Y-51529060D01*
X40135825Y-51317762D01*
X39584838Y-51317281D01*
X39195199Y-51478276D01*
X39355907Y-51091248D01*
X39356388Y-50540261D01*
X39145979Y-50031031D01*
X38756712Y-49641085D01*
X38247850Y-49429787D01*
X37696863Y-49429306D01*
X37187633Y-49639715D01*
X36797687Y-50028982D01*
X36586389Y-50537844D01*
X36585995Y-50988649D01*
X35713667Y-50116321D01*
X35515964Y-49981236D01*
X35264802Y-49926752D01*
X35012231Y-49974276D01*
X34798049Y-50116321D01*
X33737389Y-51176981D01*
X33602304Y-51374684D01*
X33547820Y-51625846D01*
X31192675Y-51625846D01*
X31609329Y-51393010D01*
X31686517Y-51327208D01*
X31770855Y-51270855D01*
X31772906Y-51267786D01*
X32060591Y-51111614D01*
X32099241Y-51079248D01*
X32122254Y-51034394D01*
X32126945Y-50996266D01*
X31986600Y-46224536D01*
X31986600Y-42750000D01*
X31966812Y-42650519D01*
X31958761Y-42549407D01*
X31939005Y-42510721D01*
X31930530Y-42468115D01*
X31874179Y-42383780D01*
X31828047Y-42293445D01*
X31794988Y-42265263D01*
X31770855Y-42229145D01*
X31686517Y-42172792D01*
X31609329Y-42106990D01*
X29827153Y-41111068D01*
X35121800Y-41111068D01*
X35121800Y-43590000D01*
X35185604Y-43910766D01*
X35367303Y-44182697D01*
X36817303Y-45632697D01*
X37089235Y-45814396D01*
X37410000Y-45878200D01*
X41499111Y-45878200D01*
X41876077Y-46255824D01*
X42403309Y-46474750D01*
X42974187Y-46475248D01*
X43501800Y-46257243D01*
X43881505Y-45878200D01*
X44930000Y-45878200D01*
X45250766Y-45814396D01*
X45522697Y-45632697D01*
X46277194Y-44878200D01*
X50510000Y-44878200D01*
X50830766Y-44814396D01*
X51102697Y-44632697D01*
X53864927Y-41870467D01*
X53915313Y-41920940D01*
X54424175Y-42132238D01*
X54975162Y-42132719D01*
X55364801Y-41971724D01*
X55204093Y-42358752D01*
X55203612Y-42909739D01*
X55414021Y-43418969D01*
X55803288Y-43808915D01*
X56312150Y-44020213D01*
X56863137Y-44020694D01*
X57372367Y-43810285D01*
X57762313Y-43421018D01*
X57973611Y-42912156D01*
X57974005Y-42461351D01*
X58846333Y-43333679D01*
X59044036Y-43468764D01*
X59295198Y-43523248D01*
X59547769Y-43475724D01*
X59761951Y-43333679D01*
X60822611Y-42273019D01*
X60957696Y-42075316D01*
X61012180Y-41824154D01*
X60964656Y-41571583D01*
X60822611Y-41357401D01*
X60465302Y-41000092D01*
X61032697Y-40432697D01*
X61214396Y-40160765D01*
X61278200Y-39840000D01*
X61278200Y-39550000D01*
X61214396Y-39229235D01*
X61214396Y-39229234D01*
X61032697Y-38957303D01*
X60707187Y-38631793D01*
X61606847Y-38631793D01*
X61969176Y-39508697D01*
X62639502Y-40180194D01*
X63515773Y-40544053D01*
X64464585Y-40544881D01*
X65341489Y-40182552D01*
X66012986Y-39512226D01*
X66376845Y-38635955D01*
X66377025Y-38429184D01*
X66396953Y-38409256D01*
X66396953Y-38633759D01*
X66814542Y-39051347D01*
X67047931Y-39148020D01*
X67300550Y-39148021D01*
X67533939Y-39051348D01*
X67712567Y-38872719D01*
X68199015Y-38386272D01*
X68199015Y-38161765D01*
X67421728Y-37384478D01*
X67407586Y-37398621D01*
X67227981Y-37219016D01*
X67242123Y-37204873D01*
X67601333Y-37204873D01*
X68378620Y-37982160D01*
X68603127Y-37982160D01*
X69089574Y-37495712D01*
X69268203Y-37317084D01*
X69364876Y-37083695D01*
X69364875Y-36831076D01*
X69268202Y-36597687D01*
X68850614Y-36180098D01*
X68626108Y-36180098D01*
X67601333Y-37204873D01*
X67242123Y-37204873D01*
X66464836Y-36427586D01*
X66240329Y-36427586D01*
X65936579Y-36731337D01*
X65345018Y-36138742D01*
X65067422Y-36023474D01*
X66644441Y-36023474D01*
X66644441Y-36247981D01*
X67421728Y-37025268D01*
X68446503Y-36000493D01*
X68446503Y-35775987D01*
X68028914Y-35358399D01*
X67795525Y-35261726D01*
X67542906Y-35261725D01*
X67309517Y-35358398D01*
X67130889Y-35537027D01*
X66644441Y-36023474D01*
X65067422Y-36023474D01*
X64468747Y-35774883D01*
X63519935Y-35774055D01*
X62643031Y-36136384D01*
X61971534Y-36806710D01*
X61607675Y-37682981D01*
X61606847Y-38631793D01*
X60707187Y-38631793D01*
X55402697Y-33327303D01*
X55130766Y-33145604D01*
X54810000Y-33081800D01*
X50270000Y-33081800D01*
X49949234Y-33145604D01*
X49677303Y-33327303D01*
X44203667Y-38800939D01*
X44078056Y-38748781D01*
X43699371Y-38748451D01*
X43898969Y-38665979D01*
X44288915Y-38276712D01*
X44500213Y-37767850D01*
X44500694Y-37216863D01*
X44290285Y-36707633D01*
X43901018Y-36317687D01*
X43392156Y-36106389D01*
X42941351Y-36105995D01*
X43813679Y-35233667D01*
X43948764Y-35035964D01*
X44003248Y-34784802D01*
X43955724Y-34532231D01*
X43813679Y-34318049D01*
X42753019Y-33257389D01*
X42555316Y-33122304D01*
X42304154Y-33067820D01*
X42051583Y-33115344D01*
X41837401Y-33257389D01*
X40776741Y-34318049D01*
X40641656Y-34515752D01*
X40587172Y-34766914D01*
X40634696Y-35019485D01*
X40776741Y-35233667D01*
X40920291Y-35377217D01*
X40683937Y-35279074D01*
X40132950Y-35278593D01*
X39623720Y-35489002D01*
X39233774Y-35878269D01*
X39022476Y-36387131D01*
X39021995Y-36938118D01*
X39173008Y-37303598D01*
X38810104Y-37152907D01*
X38259117Y-37152426D01*
X37749887Y-37362835D01*
X37359941Y-37752102D01*
X37148643Y-38260964D01*
X37148162Y-38811951D01*
X37314148Y-39213670D01*
X36915058Y-39047953D01*
X36364071Y-39047472D01*
X35854841Y-39257881D01*
X35464895Y-39647148D01*
X35253597Y-40156010D01*
X35253132Y-40689240D01*
X35185604Y-40790302D01*
X35159958Y-40919235D01*
X35121800Y-41111068D01*
X29827153Y-41111068D01*
X26070100Y-39011539D01*
X24727485Y-38221765D01*
X26300985Y-38221765D01*
X26300985Y-38446272D01*
X26787433Y-38932719D01*
X26966061Y-39111348D01*
X27199450Y-39208021D01*
X27452069Y-39208020D01*
X27685458Y-39111347D01*
X28103047Y-38693759D01*
X28103047Y-38469256D01*
X28122504Y-38488713D01*
X28122327Y-38691793D01*
X28484656Y-39568697D01*
X29154982Y-40240194D01*
X30031253Y-40604053D01*
X30980065Y-40604881D01*
X31856969Y-40242552D01*
X32528466Y-39572226D01*
X32892325Y-38695955D01*
X32893153Y-37747143D01*
X32530824Y-36870239D01*
X31860498Y-36198742D01*
X30984227Y-35834883D01*
X30035415Y-35834055D01*
X29158511Y-36196384D01*
X28562970Y-36790886D01*
X28259671Y-36487586D01*
X28035164Y-36487586D01*
X27257877Y-37264873D01*
X27272020Y-37279016D01*
X27092415Y-37458621D01*
X27078272Y-37444478D01*
X26300985Y-38221765D01*
X24727485Y-38221765D01*
X23486600Y-37491833D01*
X23486600Y-37143695D01*
X25135124Y-37143695D01*
X25231797Y-37377084D01*
X25410426Y-37555712D01*
X25896873Y-38042160D01*
X26121380Y-38042160D01*
X26898667Y-37264873D01*
X25873892Y-36240098D01*
X25649386Y-36240098D01*
X25231798Y-36657687D01*
X25135125Y-36891076D01*
X25135124Y-37143695D01*
X23486600Y-37143695D01*
X23486600Y-35835987D01*
X26053497Y-35835987D01*
X26053497Y-36060493D01*
X27078272Y-37085268D01*
X27855559Y-36307981D01*
X27855559Y-36083474D01*
X27369111Y-35597027D01*
X27190483Y-35418398D01*
X26957094Y-35321725D01*
X26704475Y-35321726D01*
X26471086Y-35418399D01*
X26053497Y-35835987D01*
X23486600Y-35835987D01*
X23486600Y-34055110D01*
X26981645Y-30560065D01*
X36254055Y-30560065D01*
X36616384Y-31436969D01*
X37286710Y-32108466D01*
X38162981Y-32472325D01*
X39111793Y-32473153D01*
X39988697Y-32110824D01*
X40660194Y-31440498D01*
X41024053Y-30564227D01*
X41024881Y-29615415D01*
X40662552Y-28738511D01*
X39992226Y-28067014D01*
X39115955Y-27703155D01*
X38909184Y-27702975D01*
X38889256Y-27683047D01*
X39113759Y-27683047D01*
X39531347Y-27265458D01*
X39628020Y-27032069D01*
X39628021Y-26779450D01*
X39531348Y-26546061D01*
X39352719Y-26367433D01*
X38866272Y-25880985D01*
X38641765Y-25880985D01*
X37864478Y-26658272D01*
X37878621Y-26672415D01*
X37699016Y-26852020D01*
X37684873Y-26837877D01*
X36907586Y-27615164D01*
X36907586Y-27839671D01*
X37211337Y-28143421D01*
X36618742Y-28734982D01*
X36254883Y-29611253D01*
X36254055Y-30560065D01*
X26981645Y-30560065D01*
X31004616Y-26537094D01*
X35741725Y-26537094D01*
X35838398Y-26770483D01*
X36017027Y-26949111D01*
X36503474Y-27435559D01*
X36727981Y-27435559D01*
X37505268Y-26658272D01*
X36480493Y-25633497D01*
X36255987Y-25633497D01*
X35838399Y-26051086D01*
X35741726Y-26284475D01*
X35741725Y-26537094D01*
X31004616Y-26537094D01*
X32312324Y-25229386D01*
X36660098Y-25229386D01*
X36660098Y-25453892D01*
X37684873Y-26478667D01*
X38462160Y-25701380D01*
X38462160Y-25476873D01*
X37975712Y-24990426D01*
X37797084Y-24811797D01*
X37563695Y-24715124D01*
X37311076Y-24715125D01*
X37077687Y-24811798D01*
X36660098Y-25229386D01*
X32312324Y-25229386D01*
X34555110Y-22986600D01*
X38057226Y-22986600D01*
X42099497Y-30595579D01*
M02*
